<svg xmlns="http://www.w3.org/2000/svg" viewBox="-98.09 -24.00 801.34 354.30" width="801" height="354">
<polygon points="0.00,-13.00 11.28,-8.90 0.00,-4.79 -11.28,-8.90" fill="#0e4429"/>
<polygon points="-11.28,4.10 -11.28,-8.90 0.00,-4.79 0.00,8.21" fill="#0c3b24"/>
<polygon points="0.00,8.21 0.00,-4.79 11.28,-8.90 11.28,4.10" fill="#0a321e"/>
<polygon points="-13.16,-13.21 -1.88,-9.11 -13.16,-5.00 -24.43,-9.11" fill="#0e4429"/>
<polygon points="-24.43,8.89 -24.43,-9.11 -13.16,-5.00 -13.16,13.00" fill="#0c3b24"/>
<polygon points="-13.16,13.00 -13.16,-5.00 -1.88,-9.11 -1.88,8.89" fill="#0a321e"/>
<polygon points="13.16,-6.21 24.43,-2.11 13.16,2.00 1.88,-2.11" fill="#0e4429"/>
<polygon points="1.88,8.89 1.88,-2.11 13.16,2.00 13.16,13.00" fill="#0c3b24"/>
<polygon points="13.16,13.00 13.16,2.00 24.43,-2.11 24.43,8.89" fill="#0a321e"/>
<polygon points="-26.31,1.58 -15.04,5.68 -26.31,9.79 -37.59,5.68" fill="#0e4429"/>
<polygon points="-37.59,13.68 -37.59,5.68 -26.31,9.79 -26.31,17.79" fill="#0c3b24"/>
<polygon points="-26.31,17.79 -26.31,9.79 -15.04,5.68 -15.04,13.68" fill="#0a321e"/>
<polygon points="26.31,-1.42 37.59,2.68 26.31,6.79 15.04,2.68" fill="#0e4429"/>
<polygon points="15.04,13.68 15.04,2.68 26.31,6.79 26.31,17.79" fill="#0c3b24"/>
<polygon points="26.31,17.79 26.31,6.79 37.59,2.68 37.59,13.68" fill="#0a321e"/>
<polygon points="0.00,-8.42 11.28,-4.32 0.00,-0.21 -11.28,-4.32" fill="#26a641"/>
<polygon points="-11.28,13.68 -11.28,-4.32 0.00,-0.21 0.00,17.79" fill="#219239"/>
<polygon points="0.00,17.79 0.00,-0.21 11.28,-4.32 11.28,13.68" fill="#1c7a30"/>
<polygon points="39.47,14.36 50.74,18.47 39.47,22.57 28.19,18.47" fill="#161b22"/>
<polygon points="-39.47,-3.64 -28.19,0.47 -39.47,4.57 -50.74,0.47" fill="#006d32"/>
<polygon points="-50.74,18.47 -50.74,0.47 -39.47,4.57 -39.47,22.57" fill="#005f2c"/>
<polygon points="-39.47,22.57 -39.47,4.57 -28.19,0.47 -28.19,18.47" fill="#005025"/>
<polygon points="-13.16,-3.64 -1.88,0.47 -13.16,4.57 -24.43,0.47" fill="#006d32"/>
<polygon points="-24.43,18.47 -24.43,0.47 -13.16,4.57 -13.16,22.57" fill="#005f2c"/>
<polygon points="-13.16,22.57 -13.16,4.57 -1.88,0.47 -1.88,18.47" fill="#005025"/>
<polygon points="13.16,-3.64 24.43,0.47 13.16,4.57 1.88,0.47" fill="#006d32"/>
<polygon points="1.88,18.47 1.88,0.47 13.16,4.57 13.16,22.57" fill="#005f2c"/>
<polygon points="13.16,22.57 13.16,4.57 24.43,0.47 24.43,18.47" fill="#005025"/>
<polygon points="-52.62,5.15 -41.35,9.26 -52.62,13.36 -63.90,9.26" fill="#0e4429"/>
<polygon points="-63.90,23.26 -63.90,9.26 -52.62,13.36 -52.62,27.36" fill="#0c3b24"/>
<polygon points="-52.62,27.36 -52.62,13.36 -41.35,9.26 -41.35,23.26" fill="#0a321e"/>
<polygon points="0.00,11.15 11.28,15.26 0.00,19.36 -11.28,15.26" fill="#0e4429"/>
<polygon points="-11.28,23.26 -11.28,15.26 0.00,19.36 0.00,27.36" fill="#0c3b24"/>
<polygon points="0.00,27.36 0.00,19.36 11.28,15.26 11.28,23.26" fill="#0a321e"/>
<polygon points="26.31,6.15 37.59,10.26 26.31,14.36 15.04,10.26" fill="#0e4429"/>
<polygon points="15.04,23.26 15.04,10.26 26.31,14.36 26.31,27.36" fill="#0c3b24"/>
<polygon points="26.31,27.36 26.31,14.36 37.59,10.26 37.59,23.26" fill="#0a321e"/>
<polygon points="52.62,8.15 63.90,12.26 52.62,16.36 41.35,12.26" fill="#0e4429"/>
<polygon points="41.35,23.26 41.35,12.26 52.62,16.36 52.62,27.36" fill="#0c3b24"/>
<polygon points="52.62,27.36 52.62,16.36 63.90,12.26 63.90,23.26" fill="#0a321e"/>
<polygon points="-26.31,1.15 -15.04,5.26 -26.31,9.36 -37.59,5.26" fill="#26a641"/>
<polygon points="-37.59,23.26 -37.59,5.26 -26.31,9.36 -26.31,27.36" fill="#219239"/>
<polygon points="-26.31,27.36 -26.31,9.36 -15.04,5.26 -15.04,23.26" fill="#1c7a30"/>
<polygon points="13.16,12.94 24.43,17.05 13.16,21.15 1.88,17.05" fill="#0e4429"/>
<polygon points="1.88,28.05 1.88,17.05 13.16,21.15 13.16,32.15" fill="#0c3b24"/>
<polygon points="13.16,32.15 13.16,21.15 24.43,17.05 24.43,28.05" fill="#0a321e"/>
<polygon points="65.78,8.94 77.05,13.05 65.78,17.15 54.50,13.05" fill="#0e4429"/>
<polygon points="54.50,28.05 54.50,13.05 65.78,17.15 65.78,32.15" fill="#0c3b24"/>
<polygon points="65.78,32.15 65.78,17.15 77.05,13.05 77.05,28.05" fill="#0a321e"/>
<polygon points="-65.78,5.94 -54.50,10.05 -65.78,14.15 -77.05,10.05" fill="#006d32"/>
<polygon points="-77.05,28.05 -77.05,10.05 -65.78,14.15 -65.78,32.15" fill="#005f2c"/>
<polygon points="-65.78,32.15 -65.78,14.15 -54.50,10.05 -54.50,28.05" fill="#005025"/>
<polygon points="-39.47,5.94 -28.19,10.05 -39.47,14.15 -50.74,10.05" fill="#006d32"/>
<polygon points="-50.74,28.05 -50.74,10.05 -39.47,14.15 -39.47,32.15" fill="#005f2c"/>
<polygon points="-39.47,32.15 -39.47,14.15 -28.19,10.05 -28.19,28.05" fill="#005025"/>
<polygon points="-13.16,5.94 -1.88,10.05 -13.16,14.15 -24.43,10.05" fill="#006d32"/>
<polygon points="-24.43,28.05 -24.43,10.05 -13.16,14.15 -13.16,32.15" fill="#005f2c"/>
<polygon points="-13.16,32.15 -13.16,14.15 -1.88,10.05 -1.88,28.05" fill="#005025"/>
<polygon points="39.47,5.94 50.74,10.05 39.47,14.15 28.19,10.05" fill="#006d32"/>
<polygon points="28.19,28.05 28.19,10.05 39.47,14.15 39.47,32.15" fill="#005f2c"/>
<polygon points="39.47,32.15 39.47,14.15 50.74,10.05 50.74,28.05" fill="#005025"/>
<polygon points="-78.93,12.73 -67.66,16.83 -78.93,20.94 -90.21,16.83" fill="#0e4429"/>
<polygon points="-90.21,32.83 -90.21,16.83 -78.93,20.94 -78.93,36.94" fill="#0c3b24"/>
<polygon points="-78.93,36.94 -78.93,20.94 -67.66,16.83 -67.66,32.83" fill="#0a321e"/>
<polygon points="-26.31,15.73 -15.04,19.83 -26.31,23.94 -37.59,19.83" fill="#0e4429"/>
<polygon points="-37.59,32.83 -37.59,19.83 -26.31,23.94 -26.31,36.94" fill="#0c3b24"/>
<polygon points="-26.31,36.94 -26.31,23.94 -15.04,19.83 -15.04,32.83" fill="#0a321e"/>
<polygon points="26.31,13.73 37.59,17.83 26.31,21.94 15.04,17.83" fill="#0e4429"/>
<polygon points="15.04,32.83 15.04,17.83 26.31,21.94 26.31,36.94" fill="#0c3b24"/>
<polygon points="26.31,36.94 26.31,21.94 37.59,17.83 37.59,32.83" fill="#0a321e"/>
<polygon points="52.62,15.73 63.90,19.83 52.62,23.94 41.35,19.83" fill="#0e4429"/>
<polygon points="41.35,32.83 41.35,19.83 52.62,23.94 52.62,36.94" fill="#0c3b24"/>
<polygon points="52.62,36.94 52.62,23.94 63.90,19.83 63.90,32.83" fill="#0a321e"/>
<polygon points="78.93,17.73 90.21,21.83 78.93,25.94 67.66,21.83" fill="#0e4429"/>
<polygon points="67.66,32.83 67.66,21.83 78.93,25.94 78.93,36.94" fill="#0c3b24"/>
<polygon points="78.93,36.94 78.93,25.94 90.21,21.83 90.21,32.83" fill="#0a321e"/>
<polygon points="-52.62,10.73 -41.35,14.83 -52.62,18.94 -63.90,14.83" fill="#006d32"/>
<polygon points="-63.90,32.83 -63.90,14.83 -52.62,18.94 -52.62,36.94" fill="#005f2c"/>
<polygon points="-52.62,36.94 -52.62,18.94 -41.35,14.83 -41.35,32.83" fill="#005025"/>
<polygon points="0.00,10.73 11.28,14.83 0.00,18.94 -11.28,14.83" fill="#006d32"/>
<polygon points="-11.28,32.83 -11.28,14.83 0.00,18.94 0.00,36.94" fill="#005f2c"/>
<polygon points="0.00,36.94 0.00,18.94 11.28,14.83 11.28,32.83" fill="#005025"/>
<polygon points="-39.47,33.52 -28.19,37.62 -39.47,41.73 -50.74,37.62" fill="#161b22"/>
<polygon points="-13.16,20.52 -1.88,24.62 -13.16,28.73 -24.43,24.62" fill="#0e4429"/>
<polygon points="-24.43,37.62 -24.43,24.62 -13.16,28.73 -13.16,41.73" fill="#0c3b24"/>
<polygon points="-13.16,41.73 -13.16,28.73 -1.88,24.62 -1.88,37.62" fill="#0a321e"/>
<polygon points="13.16,15.52 24.43,19.62 13.16,23.73 1.88,19.62" fill="#0e4429"/>
<polygon points="1.88,37.62 1.88,19.62 13.16,23.73 13.16,41.73" fill="#0c3b24"/>
<polygon points="13.16,41.73 13.16,23.73 24.43,19.62 24.43,37.62" fill="#0a321e"/>
<polygon points="92.09,19.52 103.37,23.62 92.09,27.73 80.81,23.62" fill="#0e4429"/>
<polygon points="80.81,37.62 80.81,23.62 92.09,27.73 92.09,41.73" fill="#0c3b24"/>
<polygon points="92.09,41.73 92.09,27.73 103.37,23.62 103.37,37.62" fill="#0a321e"/>
<polygon points="-65.78,15.52 -54.50,19.62 -65.78,23.73 -77.05,19.62" fill="#006d32"/>
<polygon points="-77.05,37.62 -77.05,19.62 -65.78,23.73 -65.78,41.73" fill="#005f2c"/>
<polygon points="-65.78,41.73 -65.78,23.73 -54.50,19.62 -54.50,37.62" fill="#005025"/>
<polygon points="65.78,15.52 77.05,19.62 65.78,23.73 54.50,19.62" fill="#006d32"/>
<polygon points="54.50,37.62 54.50,19.62 65.78,23.73 65.78,41.73" fill="#005f2c"/>
<polygon points="65.78,41.73 65.78,23.73 77.05,19.62 77.05,37.62" fill="#005025"/>
<polygon points="39.47,15.52 50.74,19.62 39.47,23.73 28.19,19.62" fill="#39d353"/>
<polygon points="28.19,37.62 28.19,19.62 39.47,23.73 39.47,41.73" fill="#32b949"/>
<polygon points="39.47,41.73 39.47,23.73 50.74,19.62 50.74,37.62" fill="#2a9c3d"/>
<polygon points="-52.62,38.31 -41.35,42.41 -52.62,46.51 -63.90,42.41" fill="#161b22"/>
<polygon points="105.25,38.31 116.52,42.41 105.25,46.51 93.97,42.41" fill="#161b22"/>
<polygon points="-26.31,27.31 -15.04,31.41 -26.31,35.51 -37.59,31.41" fill="#0e4429"/>
<polygon points="-37.59,42.41 -37.59,31.41 -26.31,35.51 -26.31,46.51" fill="#0c3b24"/>
<polygon points="-26.31,46.51 -26.31,35.51 -15.04,31.41 -15.04,42.41" fill="#0a321e"/>
<polygon points="78.93,24.31 90.21,28.41 78.93,32.51 67.66,28.41" fill="#0e4429"/>
<polygon points="67.66,42.41 67.66,28.41 78.93,32.51 78.93,46.51" fill="#0c3b24"/>
<polygon points="78.93,46.51 78.93,32.51 90.21,28.41 90.21,42.41" fill="#0a321e"/>
<polygon points="0.00,20.31 11.28,24.41 0.00,28.51 -11.28,24.41" fill="#006d32"/>
<polygon points="-11.28,42.41 -11.28,24.41 0.00,28.51 0.00,46.51" fill="#005f2c"/>
<polygon points="0.00,46.51 0.00,28.51 11.28,24.41 11.28,42.41" fill="#005025"/>
<polygon points="26.31,20.31 37.59,24.41 26.31,28.51 15.04,24.41" fill="#006d32"/>
<polygon points="15.04,42.41 15.04,24.41 26.31,28.51 26.31,46.51" fill="#005f2c"/>
<polygon points="26.31,46.51 26.31,28.51 37.59,24.41 37.59,42.41" fill="#005025"/>
<polygon points="52.62,20.31 63.90,24.41 52.62,28.51 41.35,24.41" fill="#26a641"/>
<polygon points="41.35,42.41 41.35,24.41 52.62,28.51 52.62,46.51" fill="#219239"/>
<polygon points="52.62,46.51 52.62,28.51 63.90,24.41 63.90,42.41" fill="#1c7a30"/>
<polygon points="-13.16,43.09 -1.88,47.20 -13.16,51.30 -24.43,47.20" fill="#161b22"/>
<polygon points="92.09,43.09 103.37,47.20 92.09,51.30 80.81,47.20" fill="#161b22"/>
<polygon points="-39.47,30.09 -28.19,34.20 -39.47,38.30 -50.74,34.20" fill="#0e4429"/>
<polygon points="-50.74,47.20 -50.74,34.20 -39.47,38.30 -39.47,51.30" fill="#0c3b24"/>
<polygon points="-39.47,51.30 -39.47,38.30 -28.19,34.20 -28.19,47.20" fill="#0a321e"/>
<polygon points="13.16,35.09 24.43,39.20 13.16,43.30 1.88,39.20" fill="#0e4429"/>
<polygon points="1.88,47.20 1.88,39.20 13.16,43.30 13.16,51.30" fill="#0c3b24"/>
<polygon points="13.16,51.30 13.16,43.30 24.43,39.20 24.43,47.20" fill="#0a321e"/>
<polygon points="65.78,29.09 77.05,33.20 65.78,37.30 54.50,33.20" fill="#0e4429"/>
<polygon points="54.50,47.20 54.50,33.20 65.78,37.30 65.78,51.30" fill="#0c3b24"/>
<polygon points="65.78,51.30 65.78,37.30 77.05,33.20 77.05,47.20" fill="#0a321e"/>
<polygon points="118.40,30.09 129.68,34.20 118.40,38.30 107.12,34.20" fill="#0e4429"/>
<polygon points="107.12,47.20 107.12,34.20 118.40,38.30 118.40,51.30" fill="#0c3b24"/>
<polygon points="118.40,51.30 118.40,38.30 129.68,34.20 129.68,47.20" fill="#0a321e"/>
<polygon points="39.47,25.09 50.74,29.20 39.47,33.30 28.19,29.20" fill="#006d32"/>
<polygon points="28.19,47.20 28.19,29.20 39.47,33.30 39.47,51.30" fill="#005f2c"/>
<polygon points="39.47,51.30 39.47,33.30 50.74,29.20 50.74,47.20" fill="#005025"/>
<polygon points="131.56,47.88 142.83,51.99 131.56,56.09 120.28,51.99" fill="#161b22"/>
<polygon points="-26.31,29.88 -15.04,33.99 -26.31,38.09 -37.59,33.99" fill="#0e4429"/>
<polygon points="-37.59,51.99 -37.59,33.99 -26.31,38.09 -26.31,56.09" fill="#0c3b24"/>
<polygon points="-26.31,56.09 -26.31,38.09 -15.04,33.99 -15.04,51.99" fill="#0a321e"/>
<polygon points="0.00,29.88 11.28,33.99 0.00,38.09 -11.28,33.99" fill="#0e4429"/>
<polygon points="-11.28,51.99 -11.28,33.99 0.00,38.09 0.00,56.09" fill="#0c3b24"/>
<polygon points="0.00,56.09 0.00,38.09 11.28,33.99 11.28,51.99" fill="#0a321e"/>
<polygon points="52.62,39.88 63.90,43.99 52.62,48.09 41.35,43.99" fill="#0e4429"/>
<polygon points="41.35,51.99 41.35,43.99 52.62,48.09 52.62,56.09" fill="#0c3b24"/>
<polygon points="52.62,56.09 52.62,48.09 63.90,43.99 63.90,51.99" fill="#0a321e"/>
<polygon points="78.93,39.88 90.21,43.99 78.93,48.09 67.66,43.99" fill="#0e4429"/>
<polygon points="67.66,51.99 67.66,43.99 78.93,48.09 78.93,56.09" fill="#0c3b24"/>
<polygon points="78.93,56.09 78.93,48.09 90.21,43.99 90.21,51.99" fill="#0a321e"/>
<polygon points="105.25,39.88 116.52,43.99 105.25,48.09 93.97,43.99" fill="#0e4429"/>
<polygon points="93.97,51.99 93.97,43.99 105.25,48.09 105.25,56.09" fill="#0c3b24"/>
<polygon points="105.25,56.09 105.25,48.09 116.52,43.99 116.52,51.99" fill="#0a321e"/>
<polygon points="26.31,29.88 37.59,33.99 26.31,38.09 15.04,33.99" fill="#006d32"/>
<polygon points="15.04,51.99 15.04,33.99 26.31,38.09 26.31,56.09" fill="#005f2c"/>
<polygon points="26.31,56.09 26.31,38.09 37.59,33.99 37.59,51.99" fill="#005025"/>
<polygon points="-13.16,39.67 -1.88,43.78 -13.16,47.88 -24.43,43.78" fill="#0e4429"/>
<polygon points="-24.43,56.78 -24.43,43.78 -13.16,47.88 -13.16,60.88" fill="#0c3b24"/>
<polygon points="-13.16,60.88 -13.16,47.88 -1.88,43.78 -1.88,56.78" fill="#0a321e"/>
<polygon points="13.16,39.67 24.43,43.78 13.16,47.88 1.88,43.78" fill="#0e4429"/>
<polygon points="1.88,56.78 1.88,43.78 13.16,47.88 13.16,60.88" fill="#0c3b24"/>
<polygon points="13.16,60.88 13.16,47.88 24.43,43.78 24.43,56.78" fill="#0a321e"/>
<polygon points="39.47,44.67 50.74,48.78 39.47,52.88 28.19,48.78" fill="#0e4429"/>
<polygon points="28.19,56.78 28.19,48.78 39.47,52.88 39.47,60.88" fill="#0c3b24"/>
<polygon points="39.47,60.88 39.47,52.88 50.74,48.78 50.74,56.78" fill="#0a321e"/>
<polygon points="65.78,41.67 77.05,45.78 65.78,49.88 54.50,45.78" fill="#0e4429"/>
<polygon points="54.50,56.78 54.50,45.78 65.78,49.88 65.78,60.88" fill="#0c3b24"/>
<polygon points="65.78,60.88 65.78,49.88 77.05,45.78 77.05,56.78" fill="#0a321e"/>
<polygon points="92.09,39.67 103.37,43.78 92.09,47.88 80.81,43.78" fill="#0e4429"/>
<polygon points="80.81,56.78 80.81,43.78 92.09,47.88 92.09,60.88" fill="#0c3b24"/>
<polygon points="92.09,60.88 92.09,47.88 103.37,43.78 103.37,56.78" fill="#0a321e"/>
<polygon points="118.40,37.67 129.68,41.78 118.40,45.88 107.12,41.78" fill="#0e4429"/>
<polygon points="107.12,56.78 107.12,41.78 118.40,45.88 118.40,60.88" fill="#0c3b24"/>
<polygon points="118.40,60.88 118.40,45.88 129.68,41.78 129.68,56.78" fill="#0a321e"/>
<polygon points="144.71,41.67 155.99,45.78 144.71,49.88 133.44,45.78" fill="#0e4429"/>
<polygon points="133.44,56.78 133.44,45.78 144.71,49.88 144.71,60.88" fill="#0c3b24"/>
<polygon points="144.71,60.88 144.71,49.88 155.99,45.78 155.99,56.78" fill="#0a321e"/>
<polygon points="78.93,57.46 90.21,61.56 78.93,65.67 67.66,61.56" fill="#161b22"/>
<polygon points="105.25,57.46 116.52,61.56 105.25,65.67 93.97,61.56" fill="#161b22"/>
<polygon points="0.00,46.46 11.28,50.56 0.00,54.67 -11.28,50.56" fill="#0e4429"/>
<polygon points="-11.28,61.56 -11.28,50.56 0.00,54.67 0.00,65.67" fill="#0c3b24"/>
<polygon points="0.00,65.67 0.00,54.67 11.28,50.56 11.28,61.56" fill="#0a321e"/>
<polygon points="26.31,43.46 37.59,47.56 26.31,51.67 15.04,47.56" fill="#0e4429"/>
<polygon points="15.04,61.56 15.04,47.56 26.31,51.67 26.31,65.67" fill="#0c3b24"/>
<polygon points="26.31,65.67 26.31,51.67 37.59,47.56 37.59,61.56" fill="#0a321e"/>
<polygon points="52.62,49.46 63.90,53.56 52.62,57.67 41.35,53.56" fill="#0e4429"/>
<polygon points="41.35,61.56 41.35,53.56 52.62,57.67 52.62,65.67" fill="#0c3b24"/>
<polygon points="52.62,65.67 52.62,57.67 63.90,53.56 63.90,61.56" fill="#0a321e"/>
<polygon points="131.56,43.46 142.83,47.56 131.56,51.67 120.28,47.56" fill="#0e4429"/>
<polygon points="120.28,61.56 120.28,47.56 131.56,51.67 131.56,65.67" fill="#0c3b24"/>
<polygon points="131.56,65.67 131.56,51.67 142.83,47.56 142.83,61.56" fill="#0a321e"/>
<polygon points="157.87,46.46 169.14,50.56 157.87,54.67 146.59,50.56" fill="#0e4429"/>
<polygon points="146.59,61.56 146.59,50.56 157.87,54.67 157.87,65.67" fill="#0c3b24"/>
<polygon points="157.87,65.67 157.87,54.67 169.14,50.56 169.14,61.56" fill="#0a321e"/>
<polygon points="13.16,62.25 24.43,66.35 13.16,70.46 1.88,66.35" fill="#161b22"/>
<polygon points="39.47,62.25 50.74,66.35 39.47,70.46 28.19,66.35" fill="#161b22"/>
<polygon points="65.78,62.25 77.05,66.35 65.78,70.46 54.50,66.35" fill="#161b22"/>
<polygon points="92.09,62.25 103.37,66.35 92.09,70.46 80.81,66.35" fill="#161b22"/>
<polygon points="171.02,62.25 182.30,66.35 171.02,70.46 159.75,66.35" fill="#161b22"/>
<polygon points="118.40,46.25 129.68,50.35 118.40,54.46 107.12,50.35" fill="#0e4429"/>
<polygon points="107.12,66.35 107.12,50.35 118.40,54.46 118.40,70.46" fill="#0c3b24"/>
<polygon points="118.40,70.46 118.40,54.46 129.68,50.35 129.68,66.35" fill="#0a321e"/>
<polygon points="144.71,51.25 155.99,55.35 144.71,59.46 133.44,55.35" fill="#0e4429"/>
<polygon points="133.44,66.35 133.44,55.35 144.71,59.46 144.71,70.46" fill="#0c3b24"/>
<polygon points="144.71,70.46 144.71,59.46 155.99,55.35 155.99,66.35" fill="#0a321e"/>
<polygon points="157.87,67.04 169.14,71.14 157.87,75.24 146.59,71.14" fill="#161b22"/>
<polygon points="184.18,67.04 195.46,71.14 184.18,75.24 172.90,71.14" fill="#161b22"/>
<polygon points="26.31,56.04 37.59,60.14 26.31,64.24 15.04,60.14" fill="#0e4429"/>
<polygon points="15.04,71.14 15.04,60.14 26.31,64.24 26.31,75.24" fill="#0c3b24"/>
<polygon points="26.31,75.24 26.31,64.24 37.59,60.14 37.59,71.14" fill="#0a321e"/>
<polygon points="52.62,59.04 63.90,63.14 52.62,67.24 41.35,63.14" fill="#0e4429"/>
<polygon points="41.35,71.14 41.35,63.14 52.62,67.24 52.62,75.24" fill="#0c3b24"/>
<polygon points="52.62,75.24 52.62,67.24 63.90,63.14 63.90,71.14" fill="#0a321e"/>
<polygon points="78.93,59.04 90.21,63.14 78.93,67.24 67.66,63.14" fill="#0e4429"/>
<polygon points="67.66,71.14 67.66,63.14 78.93,67.24 78.93,75.24" fill="#0c3b24"/>
<polygon points="78.93,75.24 78.93,67.24 90.21,63.14 90.21,71.14" fill="#0a321e"/>
<polygon points="105.25,51.04 116.52,55.14 105.25,59.24 93.97,55.14" fill="#0e4429"/>
<polygon points="93.97,71.14 93.97,55.14 105.25,59.24 105.25,75.24" fill="#0c3b24"/>
<polygon points="105.25,75.24 105.25,59.24 116.52,55.14 116.52,71.14" fill="#0a321e"/>
<polygon points="131.56,49.04 142.83,53.14 131.56,57.24 120.28,53.14" fill="#006d32"/>
<polygon points="120.28,71.14 120.28,53.14 131.56,57.24 131.56,75.24" fill="#005f2c"/>
<polygon points="131.56,75.24 131.56,57.24 142.83,53.14 142.83,71.14" fill="#005025"/>
<polygon points="39.47,71.82 50.74,75.93 39.47,80.03 28.19,75.93" fill="#161b22"/>
<polygon points="144.71,71.82 155.99,75.93 144.71,80.03 133.44,75.93" fill="#161b22"/>
<polygon points="65.78,55.82 77.05,59.93 65.78,64.03 54.50,59.93" fill="#0e4429"/>
<polygon points="54.50,75.93 54.50,59.93 65.78,64.03 65.78,80.03" fill="#0c3b24"/>
<polygon points="65.78,80.03 65.78,64.03 77.05,59.93 77.05,75.93" fill="#0a321e"/>
<polygon points="92.09,58.82 103.37,62.93 92.09,67.03 80.81,62.93" fill="#0e4429"/>
<polygon points="80.81,75.93 80.81,62.93 92.09,67.03 92.09,80.03" fill="#0c3b24"/>
<polygon points="92.09,80.03 92.09,67.03 103.37,62.93 103.37,75.93" fill="#0a321e"/>
<polygon points="118.40,60.82 129.68,64.93 118.40,69.03 107.12,64.93" fill="#0e4429"/>
<polygon points="107.12,75.93 107.12,64.93 118.40,69.03 118.40,80.03" fill="#0c3b24"/>
<polygon points="118.40,80.03 118.40,69.03 129.68,64.93 129.68,75.93" fill="#0a321e"/>
<polygon points="171.02,58.82 182.30,62.93 171.02,67.03 159.75,62.93" fill="#0e4429"/>
<polygon points="159.75,75.93 159.75,62.93 171.02,67.03 171.02,80.03" fill="#0c3b24"/>
<polygon points="171.02,80.03 171.02,67.03 182.30,62.93 182.30,75.93" fill="#0a321e"/>
<polygon points="197.34,58.82 208.61,62.93 197.34,67.03 186.06,62.93" fill="#0e4429"/>
<polygon points="186.06,75.93 186.06,62.93 197.34,67.03 197.34,80.03" fill="#0c3b24"/>
<polygon points="197.34,80.03 197.34,67.03 208.61,62.93 208.61,75.93" fill="#0a321e"/>
<polygon points="131.56,76.61 142.83,80.72 131.56,84.82 120.28,80.72" fill="#161b22"/>
<polygon points="52.62,60.61 63.90,64.72 52.62,68.82 41.35,64.72" fill="#0e4429"/>
<polygon points="41.35,80.72 41.35,64.72 52.62,68.82 52.62,84.82" fill="#0c3b24"/>
<polygon points="52.62,84.82 52.62,68.82 63.90,64.72 63.90,80.72" fill="#0a321e"/>
<polygon points="78.93,61.61 90.21,65.72 78.93,69.82 67.66,65.72" fill="#0e4429"/>
<polygon points="67.66,80.72 67.66,65.72 78.93,69.82 78.93,84.82" fill="#0c3b24"/>
<polygon points="78.93,84.82 78.93,69.82 90.21,65.72 90.21,80.72" fill="#0a321e"/>
<polygon points="105.25,68.61 116.52,72.72 105.25,76.82 93.97,72.72" fill="#0e4429"/>
<polygon points="93.97,80.72 93.97,72.72 105.25,76.82 105.25,84.82" fill="#0c3b24"/>
<polygon points="105.25,84.82 105.25,76.82 116.52,72.72 116.52,80.72" fill="#0a321e"/>
<polygon points="157.87,65.61 169.14,69.72 157.87,73.82 146.59,69.72" fill="#0e4429"/>
<polygon points="146.59,80.72 146.59,69.72 157.87,73.82 157.87,84.82" fill="#0c3b24"/>
<polygon points="157.87,84.82 157.87,73.82 169.14,69.72 169.14,80.72" fill="#0a321e"/>
<polygon points="184.18,65.61 195.46,69.72 184.18,73.82 172.90,69.72" fill="#0e4429"/>
<polygon points="172.90,80.72 172.90,69.72 184.18,73.82 184.18,84.82" fill="#0c3b24"/>
<polygon points="184.18,84.82 184.18,73.82 195.46,69.72 195.46,80.72" fill="#0a321e"/>
<polygon points="210.49,68.61 221.77,72.72 210.49,76.82 199.21,72.72" fill="#0e4429"/>
<polygon points="199.21,80.72 199.21,72.72 210.49,76.82 210.49,84.82" fill="#0c3b24"/>
<polygon points="210.49,84.82 210.49,76.82 221.77,72.72 221.77,80.72" fill="#0a321e"/>
<polygon points="223.65,81.40 234.92,85.51 223.65,89.61 212.37,85.51" fill="#161b22"/>
<polygon points="92.09,73.40 103.37,77.51 92.09,81.61 80.81,77.51" fill="#0e4429"/>
<polygon points="80.81,85.51 80.81,77.51 92.09,81.61 92.09,89.61" fill="#0c3b24"/>
<polygon points="92.09,89.61 92.09,81.61 103.37,77.51 103.37,85.51" fill="#0a321e"/>
<polygon points="118.40,66.40 129.68,70.51 118.40,74.61 107.12,70.51" fill="#0e4429"/>
<polygon points="107.12,85.51 107.12,70.51 118.40,74.61 118.40,89.61" fill="#0c3b24"/>
<polygon points="118.40,89.61 118.40,74.61 129.68,70.51 129.68,85.51" fill="#0a321e"/>
<polygon points="171.02,66.40 182.30,70.51 171.02,74.61 159.75,70.51" fill="#0e4429"/>
<polygon points="159.75,85.51 159.75,70.51 171.02,74.61 171.02,89.61" fill="#0c3b24"/>
<polygon points="171.02,89.61 171.02,74.61 182.30,70.51 182.30,85.51" fill="#0a321e"/>
<polygon points="197.34,68.40 208.61,72.51 197.34,76.61 186.06,72.51" fill="#0e4429"/>
<polygon points="186.06,85.51 186.06,72.51 197.34,76.61 197.34,89.61" fill="#0c3b24"/>
<polygon points="197.34,89.61 197.34,76.61 208.61,72.51 208.61,85.51" fill="#0a321e"/>
<polygon points="65.78,63.40 77.05,67.51 65.78,71.61 54.50,67.51" fill="#006d32"/>
<polygon points="54.50,85.51 54.50,67.51 65.78,71.61 65.78,89.61" fill="#005f2c"/>
<polygon points="65.78,89.61 65.78,71.61 77.05,67.51 77.05,85.51" fill="#005025"/>
<polygon points="144.71,63.40 155.99,67.51 144.71,71.61 133.44,67.51" fill="#006d32"/>
<polygon points="133.44,85.51 133.44,67.51 144.71,71.61 144.71,89.61" fill="#005f2c"/>
<polygon points="144.71,89.61 144.71,71.61 155.99,67.51 155.99,85.51" fill="#005025"/>
<polygon points="78.93,72.19 90.21,76.29 78.93,80.40 67.66,76.29" fill="#0e4429"/>
<polygon points="67.66,90.29 67.66,76.29 78.93,80.40 78.93,94.40" fill="#0c3b24"/>
<polygon points="78.93,94.40 78.93,80.40 90.21,76.29 90.21,90.29" fill="#0a321e"/>
<polygon points="105.25,75.19 116.52,79.29 105.25,83.40 93.97,79.29" fill="#0e4429"/>
<polygon points="93.97,90.29 93.97,79.29 105.25,83.40 105.25,94.40" fill="#0c3b24"/>
<polygon points="105.25,94.40 105.25,83.40 116.52,79.29 116.52,90.29" fill="#0a321e"/>
<polygon points="131.56,70.19 142.83,74.29 131.56,78.40 120.28,74.29" fill="#0e4429"/>
<polygon points="120.28,90.29 120.28,74.29 131.56,78.40 131.56,94.40" fill="#0c3b24"/>
<polygon points="131.56,94.40 131.56,78.40 142.83,74.29 142.83,90.29" fill="#0a321e"/>
<polygon points="157.87,73.19 169.14,77.29 157.87,81.40 146.59,77.29" fill="#0e4429"/>
<polygon points="146.59,90.29 146.59,77.29 157.87,81.40 157.87,94.40" fill="#0c3b24"/>
<polygon points="157.87,94.40 157.87,81.40 169.14,77.29 169.14,90.29" fill="#0a321e"/>
<polygon points="184.18,72.19 195.46,76.29 184.18,80.40 172.90,76.29" fill="#0e4429"/>
<polygon points="172.90,90.29 172.90,76.29 184.18,80.40 184.18,94.40" fill="#0c3b24"/>
<polygon points="184.18,94.40 184.18,80.40 195.46,76.29 195.46,90.29" fill="#0a321e"/>
<polygon points="236.80,75.19 248.08,79.29 236.80,83.40 225.53,79.29" fill="#0e4429"/>
<polygon points="225.53,90.29 225.53,79.29 236.80,83.40 236.80,94.40" fill="#0c3b24"/>
<polygon points="236.80,94.40 236.80,83.40 248.08,79.29 248.08,90.29" fill="#0a321e"/>
<polygon points="210.49,68.19 221.77,72.29 210.49,76.40 199.21,72.29" fill="#006d32"/>
<polygon points="199.21,90.29 199.21,72.29 210.49,76.40 210.49,94.40" fill="#005f2c"/>
<polygon points="210.49,94.40 210.49,76.40 221.77,72.29 221.77,90.29" fill="#005025"/>
<polygon points="92.09,90.98 103.37,95.08 92.09,99.19 80.81,95.08" fill="#161b22"/>
<polygon points="249.96,90.98 261.23,95.08 249.96,99.19 238.68,95.08" fill="#161b22"/>
<polygon points="118.40,74.98 129.68,79.08 118.40,83.19 107.12,79.08" fill="#0e4429"/>
<polygon points="107.12,95.08 107.12,79.08 118.40,83.19 118.40,99.19" fill="#0c3b24"/>
<polygon points="118.40,99.19 118.40,83.19 129.68,79.08 129.68,95.08" fill="#0a321e"/>
<polygon points="144.71,73.98 155.99,78.08 144.71,82.19 133.44,78.08" fill="#0e4429"/>
<polygon points="133.44,95.08 133.44,78.08 144.71,82.19 144.71,99.19" fill="#0c3b24"/>
<polygon points="144.71,99.19 144.71,82.19 155.99,78.08 155.99,95.08" fill="#0a321e"/>
<polygon points="171.02,74.98 182.30,79.08 171.02,83.19 159.75,79.08" fill="#0e4429"/>
<polygon points="159.75,95.08 159.75,79.08 171.02,83.19 171.02,99.19" fill="#0c3b24"/>
<polygon points="171.02,99.19 171.02,83.19 182.30,79.08 182.30,95.08" fill="#0a321e"/>
<polygon points="197.34,74.98 208.61,79.08 197.34,83.19 186.06,79.08" fill="#0e4429"/>
<polygon points="186.06,95.08 186.06,79.08 197.34,83.19 197.34,99.19" fill="#0c3b24"/>
<polygon points="197.34,99.19 197.34,83.19 208.61,79.08 208.61,95.08" fill="#0a321e"/>
<polygon points="223.65,75.98 234.92,80.08 223.65,84.19 212.37,80.08" fill="#0e4429"/>
<polygon points="212.37,95.08 212.37,80.08 223.65,84.19 223.65,99.19" fill="#0c3b24"/>
<polygon points="223.65,99.19 223.65,84.19 234.92,80.08 234.92,95.08" fill="#0a321e"/>
<polygon points="236.80,95.77 248.08,99.87 236.80,103.97 225.53,99.87" fill="#161b22"/>
<polygon points="105.25,87.77 116.52,91.87 105.25,95.97 93.97,91.87" fill="#0e4429"/>
<polygon points="93.97,99.87 93.97,91.87 105.25,95.97 105.25,103.97" fill="#0c3b24"/>
<polygon points="105.25,103.97 105.25,95.97 116.52,91.87 116.52,99.87" fill="#0a321e"/>
<polygon points="131.56,87.77 142.83,91.87 131.56,95.97 120.28,91.87" fill="#0e4429"/>
<polygon points="120.28,99.87 120.28,91.87 131.56,95.97 131.56,103.97" fill="#0c3b24"/>
<polygon points="131.56,103.97 131.56,95.97 142.83,91.87 142.83,99.87" fill="#0a321e"/>
<polygon points="157.87,84.77 169.14,88.87 157.87,92.97 146.59,88.87" fill="#0e4429"/>
<polygon points="146.59,99.87 146.59,88.87 157.87,92.97 157.87,103.97" fill="#0c3b24"/>
<polygon points="157.87,103.97 157.87,92.97 169.14,88.87 169.14,99.87" fill="#0a321e"/>
<polygon points="184.18,79.77 195.46,83.87 184.18,87.97 172.90,83.87" fill="#0e4429"/>
<polygon points="172.90,99.87 172.90,83.87 184.18,87.97 184.18,103.97" fill="#0c3b24"/>
<polygon points="184.18,103.97 184.18,87.97 195.46,83.87 195.46,99.87" fill="#0a321e"/>
<polygon points="210.49,82.77 221.77,86.87 210.49,90.97 199.21,86.87" fill="#0e4429"/>
<polygon points="199.21,99.87 199.21,86.87 210.49,90.97 210.49,103.97" fill="#0c3b24"/>
<polygon points="210.49,103.97 210.49,90.97 221.77,86.87 221.77,99.87" fill="#0a321e"/>
<polygon points="263.11,84.77 274.39,88.87 263.11,92.97 251.84,88.87" fill="#0e4429"/>
<polygon points="251.84,99.87 251.84,88.87 263.11,92.97 263.11,103.97" fill="#0c3b24"/>
<polygon points="263.11,103.97 263.11,92.97 274.39,88.87 274.39,99.87" fill="#0a321e"/>
<polygon points="144.71,100.55 155.99,104.66 144.71,108.76 133.44,104.66" fill="#161b22"/>
<polygon points="223.65,100.55 234.92,104.66 223.65,108.76 212.37,104.66" fill="#161b22"/>
<polygon points="118.40,85.55 129.68,89.66 118.40,93.76 107.12,89.66" fill="#0e4429"/>
<polygon points="107.12,104.66 107.12,89.66 118.40,93.76 118.40,108.76" fill="#0c3b24"/>
<polygon points="118.40,108.76 118.40,93.76 129.68,89.66 129.68,104.66" fill="#0a321e"/>
<polygon points="171.02,89.55 182.30,93.66 171.02,97.76 159.75,93.66" fill="#0e4429"/>
<polygon points="159.75,104.66 159.75,93.66 171.02,97.76 171.02,108.76" fill="#0c3b24"/>
<polygon points="171.02,108.76 171.02,97.76 182.30,93.66 182.30,104.66" fill="#0a321e"/>
<polygon points="197.34,89.55 208.61,93.66 197.34,97.76 186.06,93.66" fill="#0e4429"/>
<polygon points="186.06,104.66 186.06,93.66 197.34,97.76 197.34,108.76" fill="#0c3b24"/>
<polygon points="197.34,108.76 197.34,97.76 208.61,93.66 208.61,104.66" fill="#0a321e"/>
<polygon points="249.96,92.55 261.23,96.66 249.96,100.76 238.68,96.66" fill="#0e4429"/>
<polygon points="238.68,104.66 238.68,96.66 249.96,100.76 249.96,108.76" fill="#0c3b24"/>
<polygon points="249.96,108.76 249.96,100.76 261.23,96.66 261.23,104.66" fill="#0a321e"/>
<polygon points="276.27,87.55 287.55,91.66 276.27,95.76 264.99,91.66" fill="#0e4429"/>
<polygon points="264.99,104.66 264.99,91.66 276.27,95.76 276.27,108.76" fill="#0c3b24"/>
<polygon points="276.27,108.76 276.27,95.76 287.55,91.66 287.55,104.66" fill="#0a321e"/>
<polygon points="210.49,105.34 221.77,109.45 210.49,113.55 199.21,109.45" fill="#161b22"/>
<polygon points="131.56,92.34 142.83,96.45 131.56,100.55 120.28,96.45" fill="#0e4429"/>
<polygon points="120.28,109.45 120.28,96.45 131.56,100.55 131.56,113.55" fill="#0c3b24"/>
<polygon points="131.56,113.55 131.56,100.55 142.83,96.45 142.83,109.45" fill="#0a321e"/>
<polygon points="157.87,89.34 169.14,93.45 157.87,97.55 146.59,93.45" fill="#0e4429"/>
<polygon points="146.59,109.45 146.59,93.45 157.87,97.55 157.87,113.55" fill="#0c3b24"/>
<polygon points="157.87,113.55 157.87,97.55 169.14,93.45 169.14,109.45" fill="#0a321e"/>
<polygon points="184.18,92.34 195.46,96.45 184.18,100.55 172.90,96.45" fill="#0e4429"/>
<polygon points="172.90,109.45 172.90,96.45 184.18,100.55 184.18,113.55" fill="#0c3b24"/>
<polygon points="184.18,113.55 184.18,100.55 195.46,96.45 195.46,109.45" fill="#0a321e"/>
<polygon points="236.80,91.34 248.08,95.45 236.80,99.55 225.53,95.45" fill="#0e4429"/>
<polygon points="225.53,109.45 225.53,95.45 236.80,99.55 236.80,113.55" fill="#0c3b24"/>
<polygon points="236.80,113.55 236.80,99.55 248.08,95.45 248.08,109.45" fill="#0a321e"/>
<polygon points="263.11,91.34 274.39,95.45 263.11,99.55 251.84,95.45" fill="#0e4429"/>
<polygon points="251.84,109.45 251.84,95.45 263.11,99.55 263.11,113.55" fill="#0c3b24"/>
<polygon points="263.11,113.55 263.11,99.55 274.39,95.45 274.39,109.45" fill="#0a321e"/>
<polygon points="289.43,97.34 300.70,101.45 289.43,105.55 278.15,101.45" fill="#0e4429"/>
<polygon points="278.15,109.45 278.15,101.45 289.43,105.55 289.43,113.55" fill="#0c3b24"/>
<polygon points="289.43,113.55 289.43,105.55 300.70,101.45 300.70,109.45" fill="#0a321e"/>
<polygon points="223.65,110.13 234.92,114.23 223.65,118.34 212.37,114.23" fill="#161b22"/>
<polygon points="249.96,110.13 261.23,114.23 249.96,118.34 238.68,114.23" fill="#161b22"/>
<polygon points="144.71,102.13 155.99,106.23 144.71,110.34 133.44,106.23" fill="#0e4429"/>
<polygon points="133.44,114.23 133.44,106.23 144.71,110.34 144.71,118.34" fill="#0c3b24"/>
<polygon points="144.71,118.34 144.71,110.34 155.99,106.23 155.99,114.23" fill="#0a321e"/>
<polygon points="171.02,97.13 182.30,101.23 171.02,105.34 159.75,101.23" fill="#0e4429"/>
<polygon points="159.75,114.23 159.75,101.23 171.02,105.34 171.02,118.34" fill="#0c3b24"/>
<polygon points="171.02,118.34 171.02,105.34 182.30,101.23 182.30,114.23" fill="#0a321e"/>
<polygon points="197.34,95.13 208.61,99.23 197.34,103.34 186.06,99.23" fill="#0e4429"/>
<polygon points="186.06,114.23 186.06,99.23 197.34,103.34 197.34,118.34" fill="#0c3b24"/>
<polygon points="197.34,118.34 197.34,103.34 208.61,99.23 208.61,114.23" fill="#0a321e"/>
<polygon points="276.27,94.13 287.55,98.23 276.27,102.34 264.99,98.23" fill="#0e4429"/>
<polygon points="264.99,114.23 264.99,98.23 276.27,102.34 276.27,118.34" fill="#0c3b24"/>
<polygon points="276.27,118.34 276.27,102.34 287.55,98.23 287.55,114.23" fill="#0a321e"/>
<polygon points="302.58,93.13 313.86,97.23 302.58,101.34 291.30,97.23" fill="#0e4429"/>
<polygon points="291.30,114.23 291.30,97.23 302.58,101.34 302.58,118.34" fill="#0c3b24"/>
<polygon points="302.58,118.34 302.58,101.34 313.86,97.23 313.86,114.23" fill="#0a321e"/>
<polygon points="157.87,114.92 169.14,119.02 157.87,123.13 146.59,119.02" fill="#161b22"/>
<polygon points="184.18,106.92 195.46,111.02 184.18,115.13 172.90,111.02" fill="#0e4429"/>
<polygon points="172.90,119.02 172.90,111.02 184.18,115.13 184.18,123.13" fill="#0c3b24"/>
<polygon points="184.18,123.13 184.18,115.13 195.46,111.02 195.46,119.02" fill="#0a321e"/>
<polygon points="210.49,106.92 221.77,111.02 210.49,115.13 199.21,111.02" fill="#0e4429"/>
<polygon points="199.21,119.02 199.21,111.02 210.49,115.13 210.49,123.13" fill="#0c3b24"/>
<polygon points="210.49,123.13 210.49,115.13 221.77,111.02 221.77,119.02" fill="#0a321e"/>
<polygon points="236.80,103.92 248.08,108.02 236.80,112.13 225.53,108.02" fill="#0e4429"/>
<polygon points="225.53,119.02 225.53,108.02 236.80,112.13 236.80,123.13" fill="#0c3b24"/>
<polygon points="236.80,123.13 236.80,112.13 248.08,108.02 248.08,119.02" fill="#0a321e"/>
<polygon points="289.43,103.92 300.70,108.02 289.43,112.13 278.15,108.02" fill="#0e4429"/>
<polygon points="278.15,119.02 278.15,108.02 289.43,112.13 289.43,123.13" fill="#0c3b24"/>
<polygon points="289.43,123.13 289.43,112.13 300.70,108.02 300.70,119.02" fill="#0a321e"/>
<polygon points="315.74,106.92 327.01,111.02 315.74,115.13 304.46,111.02" fill="#0e4429"/>
<polygon points="304.46,119.02 304.46,111.02 315.74,115.13 315.74,123.13" fill="#0c3b24"/>
<polygon points="315.74,123.13 315.74,115.13 327.01,111.02 327.01,119.02" fill="#0a321e"/>
<polygon points="263.11,96.92 274.39,101.02 263.11,105.13 251.84,101.02" fill="#26a641"/>
<polygon points="251.84,119.02 251.84,101.02 263.11,105.13 263.11,123.13" fill="#219239"/>
<polygon points="263.11,123.13 263.11,105.13 274.39,101.02 274.39,119.02" fill="#1c7a30"/>
<polygon points="223.65,119.71 234.92,123.81 223.65,127.92 212.37,123.81" fill="#161b22"/>
<polygon points="302.58,119.71 313.86,123.81 302.58,127.92 291.30,123.81" fill="#161b22"/>
<polygon points="171.02,106.71 182.30,110.81 171.02,114.92 159.75,110.81" fill="#0e4429"/>
<polygon points="159.75,123.81 159.75,110.81 171.02,114.92 171.02,127.92" fill="#0c3b24"/>
<polygon points="171.02,127.92 171.02,114.92 182.30,110.81 182.30,123.81" fill="#0a321e"/>
<polygon points="197.34,105.71 208.61,109.81 197.34,113.92 186.06,109.81" fill="#0e4429"/>
<polygon points="186.06,123.81 186.06,109.81 197.34,113.92 197.34,127.92" fill="#0c3b24"/>
<polygon points="197.34,127.92 197.34,113.92 208.61,109.81 208.61,123.81" fill="#0a321e"/>
<polygon points="249.96,105.71 261.23,109.81 249.96,113.92 238.68,109.81" fill="#0e4429"/>
<polygon points="238.68,123.81 238.68,109.81 249.96,113.92 249.96,127.92" fill="#0c3b24"/>
<polygon points="249.96,127.92 249.96,113.92 261.23,109.81 261.23,123.81" fill="#0a321e"/>
<polygon points="328.89,105.71 340.17,109.81 328.89,113.92 317.62,109.81" fill="#0e4429"/>
<polygon points="317.62,123.81 317.62,109.81 328.89,113.92 328.89,127.92" fill="#0c3b24"/>
<polygon points="328.89,127.92 328.89,113.92 340.17,109.81 340.17,123.81" fill="#0a321e"/>
<polygon points="276.27,101.71 287.55,105.81 276.27,109.92 264.99,105.81" fill="#006d32"/>
<polygon points="264.99,123.81 264.99,105.81 276.27,109.92 276.27,127.92" fill="#005f2c"/>
<polygon points="276.27,127.92 276.27,109.92 287.55,105.81 287.55,123.81" fill="#005025"/>
<polygon points="263.11,124.50 274.39,128.60 263.11,132.70 251.84,128.60" fill="#161b22"/>
<polygon points="184.18,116.50 195.46,120.60 184.18,124.70 172.90,120.60" fill="#0e4429"/>
<polygon points="172.90,128.60 172.90,120.60 184.18,124.70 184.18,132.70" fill="#0c3b24"/>
<polygon points="184.18,132.70 184.18,124.70 195.46,120.60 195.46,128.60" fill="#0a321e"/>
<polygon points="289.43,108.50 300.70,112.60 289.43,116.70 278.15,112.60" fill="#0e4429"/>
<polygon points="278.15,128.60 278.15,112.60 289.43,116.70 289.43,132.70" fill="#0c3b24"/>
<polygon points="289.43,132.70 289.43,116.70 300.70,112.60 300.70,128.60" fill="#0a321e"/>
<polygon points="315.74,116.50 327.01,120.60 315.74,124.70 304.46,120.60" fill="#0e4429"/>
<polygon points="304.46,128.60 304.46,120.60 315.74,124.70 315.74,132.70" fill="#0c3b24"/>
<polygon points="315.74,132.70 315.74,124.70 327.01,120.60 327.01,128.60" fill="#0a321e"/>
<polygon points="342.05,116.50 353.32,120.60 342.05,124.70 330.77,120.60" fill="#0e4429"/>
<polygon points="330.77,128.60 330.77,120.60 342.05,124.70 342.05,132.70" fill="#0c3b24"/>
<polygon points="342.05,132.70 342.05,124.70 353.32,120.60 353.32,128.60" fill="#0a321e"/>
<polygon points="210.49,106.50 221.77,110.60 210.49,114.70 199.21,110.60" fill="#006d32"/>
<polygon points="199.21,128.60 199.21,110.60 210.49,114.70 210.49,132.70" fill="#005f2c"/>
<polygon points="210.49,132.70 210.49,114.70 221.77,110.60 221.77,128.60" fill="#005025"/>
<polygon points="236.80,106.50 248.08,110.60 236.80,114.70 225.53,110.60" fill="#006d32"/>
<polygon points="225.53,128.60 225.53,110.60 236.80,114.70 236.80,132.70" fill="#005f2c"/>
<polygon points="236.80,132.70 236.80,114.70 248.08,110.60 248.08,128.60" fill="#005025"/>
<polygon points="223.65,129.28 234.92,133.39 223.65,137.49 212.37,133.39" fill="#161b22"/>
<polygon points="355.20,129.28 366.48,133.39 355.20,137.49 343.93,133.39" fill="#161b22"/>
<polygon points="249.96,116.28 261.23,120.39 249.96,124.49 238.68,120.39" fill="#0e4429"/>
<polygon points="238.68,133.39 238.68,120.39 249.96,124.49 249.96,137.49" fill="#0c3b24"/>
<polygon points="249.96,137.49 249.96,124.49 261.23,120.39 261.23,133.39" fill="#0a321e"/>
<polygon points="197.34,111.28 208.61,115.39 197.34,119.49 186.06,115.39" fill="#006d32"/>
<polygon points="186.06,133.39 186.06,115.39 197.34,119.49 197.34,137.49" fill="#005f2c"/>
<polygon points="197.34,137.49 197.34,119.49 208.61,115.39 208.61,133.39" fill="#005025"/>
<polygon points="302.58,111.28 313.86,115.39 302.58,119.49 291.30,115.39" fill="#006d32"/>
<polygon points="291.30,133.39 291.30,115.39 302.58,119.49 302.58,137.49" fill="#005f2c"/>
<polygon points="302.58,137.49 302.58,119.49 313.86,115.39 313.86,133.39" fill="#005025"/>
<polygon points="276.27,111.28 287.55,115.39 276.27,119.49 264.99,115.39" fill="#26a641"/>
<polygon points="264.99,133.39 264.99,115.39 276.27,119.49 276.27,137.49" fill="#219239"/>
<polygon points="276.27,137.49 276.27,119.49 287.55,115.39 287.55,133.39" fill="#1c7a30"/>
<polygon points="328.89,111.28 340.17,115.39 328.89,119.49 317.62,115.39" fill="#39d353"/>
<polygon points="317.62,133.39 317.62,115.39 328.89,119.49 328.89,137.49" fill="#32b949"/>
<polygon points="328.89,137.49 328.89,119.49 340.17,115.39 340.17,133.39" fill="#2a9c3d"/>
<polygon points="342.05,134.07 353.32,138.18 342.05,142.28 330.77,138.18" fill="#161b22"/>
<polygon points="210.49,126.07 221.77,130.18 210.49,134.28 199.21,130.18" fill="#0e4429"/>
<polygon points="199.21,138.18 199.21,130.18 210.49,134.28 210.49,142.28" fill="#0c3b24"/>
<polygon points="210.49,142.28 210.49,134.28 221.77,130.18 221.77,138.18" fill="#0a321e"/>
<polygon points="236.80,121.07 248.08,125.18 236.80,129.28 225.53,125.18" fill="#0e4429"/>
<polygon points="225.53,138.18 225.53,125.18 236.80,129.28 236.80,142.28" fill="#0c3b24"/>
<polygon points="236.80,142.28 236.80,129.28 248.08,125.18 248.08,138.18" fill="#0a321e"/>
<polygon points="289.43,119.07 300.70,123.18 289.43,127.28 278.15,123.18" fill="#0e4429"/>
<polygon points="278.15,138.18 278.15,123.18 289.43,127.28 289.43,142.28" fill="#0c3b24"/>
<polygon points="289.43,142.28 289.43,127.28 300.70,123.18 300.70,138.18" fill="#0a321e"/>
<polygon points="368.36,123.07 379.64,127.18 368.36,131.28 357.08,127.18" fill="#0e4429"/>
<polygon points="357.08,138.18 357.08,127.18 368.36,131.28 368.36,142.28" fill="#0c3b24"/>
<polygon points="368.36,142.28 368.36,131.28 379.64,127.18 379.64,138.18" fill="#0a321e"/>
<polygon points="315.74,116.07 327.01,120.18 315.74,124.28 304.46,120.18" fill="#006d32"/>
<polygon points="304.46,138.18 304.46,120.18 315.74,124.28 315.74,142.28" fill="#005f2c"/>
<polygon points="315.74,142.28 315.74,124.28 327.01,120.18 327.01,138.18" fill="#005025"/>
<polygon points="263.11,116.07 274.39,120.18 263.11,124.28 251.84,120.18" fill="#39d353"/>
<polygon points="251.84,138.18 251.84,120.18 263.11,124.28 263.11,142.28" fill="#32b949"/>
<polygon points="263.11,142.28 263.11,124.28 274.39,120.18 274.39,138.18" fill="#2a9c3d"/>
<polygon points="223.65,120.86 234.92,124.96 223.65,129.07 212.37,124.96" fill="#0e4429"/>
<polygon points="212.37,142.96 212.37,124.96 223.65,129.07 223.65,147.07" fill="#0c3b24"/>
<polygon points="223.65,147.07 223.65,129.07 234.92,124.96 234.92,142.96" fill="#0a321e"/>
<polygon points="276.27,125.86 287.55,129.96 276.27,134.07 264.99,129.96" fill="#0e4429"/>
<polygon points="264.99,142.96 264.99,129.96 276.27,134.07 276.27,147.07" fill="#0c3b24"/>
<polygon points="276.27,147.07 276.27,134.07 287.55,129.96 287.55,142.96" fill="#0a321e"/>
<polygon points="328.89,123.86 340.17,127.96 328.89,132.07 317.62,127.96" fill="#0e4429"/>
<polygon points="317.62,142.96 317.62,127.96 328.89,132.07 328.89,147.07" fill="#0c3b24"/>
<polygon points="328.89,147.07 328.89,132.07 340.17,127.96 340.17,142.96" fill="#0a321e"/>
<polygon points="381.52,123.86 392.79,127.96 381.52,132.07 370.24,127.96" fill="#0e4429"/>
<polygon points="370.24,142.96 370.24,127.96 381.52,132.07 381.52,147.07" fill="#0c3b24"/>
<polygon points="381.52,147.07 381.52,132.07 392.79,127.96 392.79,142.96" fill="#0a321e"/>
<polygon points="249.96,120.86 261.23,124.96 249.96,129.07 238.68,124.96" fill="#006d32"/>
<polygon points="238.68,142.96 238.68,124.96 249.96,129.07 249.96,147.07" fill="#005f2c"/>
<polygon points="249.96,147.07 249.96,129.07 261.23,124.96 261.23,142.96" fill="#005025"/>
<polygon points="302.58,120.86 313.86,124.96 302.58,129.07 291.30,124.96" fill="#006d32"/>
<polygon points="291.30,142.96 291.30,124.96 302.58,129.07 302.58,147.07" fill="#005f2c"/>
<polygon points="302.58,147.07 302.58,129.07 313.86,124.96 313.86,142.96" fill="#005025"/>
<polygon points="355.20,120.86 366.48,124.96 355.20,129.07 343.93,124.96" fill="#39d353"/>
<polygon points="343.93,142.96 343.93,124.96 355.20,129.07 355.20,147.07" fill="#32b949"/>
<polygon points="355.20,147.07 355.20,129.07 366.48,124.96 366.48,142.96" fill="#2a9c3d"/>
<polygon points="289.43,143.65 300.70,147.75 289.43,151.86 278.15,147.75" fill="#161b22"/>
<polygon points="236.80,126.65 248.08,130.75 236.80,134.86 225.53,130.75" fill="#0e4429"/>
<polygon points="225.53,147.75 225.53,130.75 236.80,134.86 236.80,151.86" fill="#0c3b24"/>
<polygon points="236.80,151.86 236.80,134.86 248.08,130.75 248.08,147.75" fill="#0a321e"/>
<polygon points="315.74,127.65 327.01,131.75 315.74,135.86 304.46,131.75" fill="#0e4429"/>
<polygon points="304.46,147.75 304.46,131.75 315.74,135.86 315.74,151.86" fill="#0c3b24"/>
<polygon points="315.74,151.86 315.74,135.86 327.01,131.75 327.01,147.75" fill="#0a321e"/>
<polygon points="394.67,135.65 405.95,139.75 394.67,143.86 383.39,139.75" fill="#0e4429"/>
<polygon points="383.39,147.75 383.39,139.75 394.67,143.86 394.67,151.86" fill="#0c3b24"/>
<polygon points="394.67,151.86 394.67,143.86 405.95,139.75 405.95,147.75" fill="#0a321e"/>
<polygon points="263.11,125.65 274.39,129.75 263.11,133.86 251.84,129.75" fill="#006d32"/>
<polygon points="251.84,147.75 251.84,129.75 263.11,133.86 263.11,151.86" fill="#005f2c"/>
<polygon points="263.11,151.86 263.11,133.86 274.39,129.75 274.39,147.75" fill="#005025"/>
<polygon points="368.36,125.65 379.64,129.75 368.36,133.86 357.08,129.75" fill="#006d32"/>
<polygon points="357.08,147.75 357.08,129.75 368.36,133.86 368.36,151.86" fill="#005f2c"/>
<polygon points="368.36,151.86 368.36,133.86 379.64,129.75 379.64,147.75" fill="#005025"/>
<polygon points="342.05,125.65 353.32,129.75 342.05,133.86 330.77,129.75" fill="#26a641"/>
<polygon points="330.77,147.75 330.77,129.75 342.05,133.86 342.05,151.86" fill="#219239"/>
<polygon points="342.05,151.86 342.05,133.86 353.32,129.75 353.32,147.75" fill="#1c7a30"/>
<polygon points="328.89,148.44 340.17,152.54 328.89,156.65 317.62,152.54" fill="#161b22"/>
<polygon points="407.83,148.44 419.10,152.54 407.83,156.65 396.55,152.54" fill="#161b22"/>
<polygon points="381.52,137.44 392.79,141.54 381.52,145.65 370.24,141.54" fill="#0e4429"/>
<polygon points="370.24,152.54 370.24,141.54 381.52,145.65 381.52,156.65" fill="#0c3b24"/>
<polygon points="381.52,156.65 381.52,145.65 392.79,141.54 392.79,152.54" fill="#0a321e"/>
<polygon points="276.27,130.44 287.55,134.54 276.27,138.65 264.99,134.54" fill="#006d32"/>
<polygon points="264.99,152.54 264.99,134.54 276.27,138.65 276.27,156.65" fill="#005f2c"/>
<polygon points="276.27,156.65 276.27,138.65 287.55,134.54 287.55,152.54" fill="#005025"/>
<polygon points="249.96,130.44 261.23,134.54 249.96,138.65 238.68,134.54" fill="#39d353"/>
<polygon points="238.68,152.54 238.68,134.54 249.96,138.65 249.96,156.65" fill="#32b949"/>
<polygon points="249.96,156.65 249.96,138.65 261.23,134.54 261.23,152.54" fill="#2a9c3d"/>
<polygon points="302.58,130.44 313.86,134.54 302.58,138.65 291.30,134.54" fill="#39d353"/>
<polygon points="291.30,152.54 291.30,134.54 302.58,138.65 302.58,156.65" fill="#32b949"/>
<polygon points="302.58,156.65 302.58,138.65 313.86,134.54 313.86,152.54" fill="#2a9c3d"/>
<polygon points="355.20,130.44 366.48,134.54 355.20,138.65 343.93,134.54" fill="#39d353"/>
<polygon points="343.93,152.54 343.93,134.54 355.20,138.65 355.20,156.65" fill="#32b949"/>
<polygon points="355.20,156.65 355.20,138.65 366.48,134.54 366.48,152.54" fill="#2a9c3d"/>
<polygon points="263.11,153.23 274.39,157.33 263.11,161.43 251.84,157.33" fill="#161b22"/>
<polygon points="420.98,153.23 432.26,157.33 420.98,161.43 409.71,157.33" fill="#161b22"/>
<polygon points="315.74,145.23 327.01,149.33 315.74,153.43 304.46,149.33" fill="#0e4429"/>
<polygon points="304.46,157.33 304.46,149.33 315.74,153.43 315.74,161.43" fill="#0c3b24"/>
<polygon points="315.74,161.43 315.74,153.43 327.01,149.33 327.01,157.33" fill="#0a321e"/>
<polygon points="368.36,140.23 379.64,144.33 368.36,148.43 357.08,144.33" fill="#0e4429"/>
<polygon points="357.08,157.33 357.08,144.33 368.36,148.43 368.36,161.43" fill="#0c3b24"/>
<polygon points="368.36,161.43 368.36,148.43 379.64,144.33 379.64,157.33" fill="#0a321e"/>
<polygon points="394.67,138.23 405.95,142.33 394.67,146.43 383.39,142.33" fill="#0e4429"/>
<polygon points="383.39,157.33 383.39,142.33 394.67,146.43 394.67,161.43" fill="#0c3b24"/>
<polygon points="394.67,161.43 394.67,146.43 405.95,142.33 405.95,157.33" fill="#0a321e"/>
<polygon points="289.43,135.23 300.70,139.33 289.43,143.43 278.15,139.33" fill="#006d32"/>
<polygon points="278.15,157.33 278.15,139.33 289.43,143.43 289.43,161.43" fill="#005f2c"/>
<polygon points="289.43,161.43 289.43,143.43 300.70,139.33 300.70,157.33" fill="#005025"/>
<polygon points="342.05,135.23 353.32,139.33 342.05,143.43 330.77,139.33" fill="#006d32"/>
<polygon points="330.77,157.33 330.77,139.33 342.05,143.43 342.05,161.43" fill="#005f2c"/>
<polygon points="342.05,161.43 342.05,143.43 353.32,139.33 353.32,157.33" fill="#005025"/>
<polygon points="434.14,158.01 445.41,162.12 434.14,166.22 422.86,162.12" fill="#161b22"/>
<polygon points="328.89,150.01 340.17,154.12 328.89,158.22 317.62,154.12" fill="#0e4429"/>
<polygon points="317.62,162.12 317.62,154.12 328.89,158.22 328.89,166.22" fill="#0c3b24"/>
<polygon points="328.89,166.22 328.89,158.22 340.17,154.12 340.17,162.12" fill="#0a321e"/>
<polygon points="381.52,144.01 392.79,148.12 381.52,152.22 370.24,148.12" fill="#0e4429"/>
<polygon points="370.24,162.12 370.24,148.12 381.52,152.22 381.52,166.22" fill="#0c3b24"/>
<polygon points="381.52,166.22 381.52,152.22 392.79,148.12 392.79,162.12" fill="#0a321e"/>
<polygon points="407.83,150.01 419.10,154.12 407.83,158.22 396.55,154.12" fill="#0e4429"/>
<polygon points="396.55,162.12 396.55,154.12 407.83,158.22 407.83,166.22" fill="#0c3b24"/>
<polygon points="407.83,166.22 407.83,158.22 419.10,154.12 419.10,162.12" fill="#0a321e"/>
<polygon points="276.27,140.01 287.55,144.12 276.27,148.22 264.99,144.12" fill="#26a641"/>
<polygon points="264.99,162.12 264.99,144.12 276.27,148.22 276.27,166.22" fill="#219239"/>
<polygon points="276.27,166.22 276.27,148.22 287.55,144.12 287.55,162.12" fill="#1c7a30"/>
<polygon points="302.58,140.01 313.86,144.12 302.58,148.22 291.30,144.12" fill="#26a641"/>
<polygon points="291.30,162.12 291.30,144.12 302.58,148.22 302.58,166.22" fill="#219239"/>
<polygon points="302.58,166.22 302.58,148.22 313.86,144.12 313.86,162.12" fill="#1c7a30"/>
<polygon points="355.20,140.01 366.48,144.12 355.20,148.22 343.93,144.12" fill="#39d353"/>
<polygon points="343.93,162.12 343.93,144.12 355.20,148.22 355.20,166.22" fill="#32b949"/>
<polygon points="355.20,166.22 355.20,148.22 366.48,144.12 366.48,162.12" fill="#2a9c3d"/>
<polygon points="447.29,162.80 458.57,166.91 447.29,171.01 436.02,166.91" fill="#161b22"/>
<polygon points="289.43,151.80 300.70,155.91 289.43,160.01 278.15,155.91" fill="#0e4429"/>
<polygon points="278.15,166.91 278.15,155.91 289.43,160.01 289.43,171.01" fill="#0c3b24"/>
<polygon points="289.43,171.01 289.43,160.01 300.70,155.91 300.70,166.91" fill="#0a321e"/>
<polygon points="315.74,154.80 327.01,158.91 315.74,163.01 304.46,158.91" fill="#0e4429"/>
<polygon points="304.46,166.91 304.46,158.91 315.74,163.01 315.74,171.01" fill="#0c3b24"/>
<polygon points="315.74,171.01 315.74,163.01 327.01,158.91 327.01,166.91" fill="#0a321e"/>
<polygon points="368.36,154.80 379.64,158.91 368.36,163.01 357.08,158.91" fill="#0e4429"/>
<polygon points="357.08,166.91 357.08,158.91 368.36,163.01 368.36,171.01" fill="#0c3b24"/>
<polygon points="368.36,171.01 368.36,163.01 379.64,158.91 379.64,166.91" fill="#0a321e"/>
<polygon points="394.67,154.80 405.95,158.91 394.67,163.01 383.39,158.91" fill="#0e4429"/>
<polygon points="383.39,166.91 383.39,158.91 394.67,163.01 394.67,171.01" fill="#0c3b24"/>
<polygon points="394.67,171.01 394.67,163.01 405.95,158.91 405.95,166.91" fill="#0a321e"/>
<polygon points="420.98,151.80 432.26,155.91 420.98,160.01 409.71,155.91" fill="#0e4429"/>
<polygon points="409.71,166.91 409.71,155.91 420.98,160.01 420.98,171.01" fill="#0c3b24"/>
<polygon points="420.98,171.01 420.98,160.01 432.26,155.91 432.26,166.91" fill="#0a321e"/>
<polygon points="342.05,144.80 353.32,148.91 342.05,153.01 330.77,148.91" fill="#39d353"/>
<polygon points="330.77,166.91 330.77,148.91 342.05,153.01 342.05,171.01" fill="#32b949"/>
<polygon points="342.05,171.01 342.05,153.01 353.32,148.91 353.32,166.91" fill="#2a9c3d"/>
<polygon points="302.58,167.59 313.86,171.69 302.58,175.80 291.30,171.69" fill="#161b22"/>
<polygon points="381.52,167.59 392.79,171.69 381.52,175.80 370.24,171.69" fill="#161b22"/>
<polygon points="460.45,167.59 471.73,171.69 460.45,175.80 449.17,171.69" fill="#161b22"/>
<polygon points="328.89,149.59 340.17,153.69 328.89,157.80 317.62,153.69" fill="#0e4429"/>
<polygon points="317.62,171.69 317.62,153.69 328.89,157.80 328.89,175.80" fill="#0c3b24"/>
<polygon points="328.89,175.80 328.89,157.80 340.17,153.69 340.17,171.69" fill="#0a321e"/>
<polygon points="355.20,149.59 366.48,153.69 355.20,157.80 343.93,153.69" fill="#006d32"/>
<polygon points="343.93,171.69 343.93,153.69 355.20,157.80 355.20,175.80" fill="#005f2c"/>
<polygon points="355.20,175.80 355.20,157.80 366.48,153.69 366.48,171.69" fill="#005025"/>
<polygon points="407.83,149.59 419.10,153.69 407.83,157.80 396.55,153.69" fill="#006d32"/>
<polygon points="396.55,171.69 396.55,153.69 407.83,157.80 407.83,175.80" fill="#005f2c"/>
<polygon points="407.83,175.80 407.83,157.80 419.10,153.69 419.10,171.69" fill="#005025"/>
<polygon points="434.14,149.59 445.41,153.69 434.14,157.80 422.86,153.69" fill="#006d32"/>
<polygon points="422.86,171.69 422.86,153.69 434.14,157.80 434.14,175.80" fill="#005f2c"/>
<polygon points="434.14,175.80 434.14,157.80 445.41,153.69 445.41,171.69" fill="#005025"/>
<polygon points="315.74,172.38 327.01,176.48 315.74,180.59 304.46,176.48" fill="#161b22"/>
<polygon points="368.36,172.38 379.64,176.48 368.36,180.59 357.08,176.48" fill="#161b22"/>
<polygon points="420.98,172.38 432.26,176.48 420.98,180.59 409.71,176.48" fill="#161b22"/>
<polygon points="473.61,172.38 484.88,176.48 473.61,180.59 462.33,176.48" fill="#161b22"/>
<polygon points="342.05,156.38 353.32,160.48 342.05,164.59 330.77,160.48" fill="#0e4429"/>
<polygon points="330.77,176.48 330.77,160.48 342.05,164.59 342.05,180.59" fill="#0c3b24"/>
<polygon points="342.05,180.59 342.05,164.59 353.32,160.48 353.32,176.48" fill="#0a321e"/>
<polygon points="447.29,161.38 458.57,165.48 447.29,169.59 436.02,165.48" fill="#0e4429"/>
<polygon points="436.02,176.48 436.02,165.48 447.29,169.59 447.29,180.59" fill="#0c3b24"/>
<polygon points="447.29,180.59 447.29,169.59 458.57,165.48 458.57,176.48" fill="#0a321e"/>
<polygon points="394.67,154.38 405.95,158.48 394.67,162.59 383.39,158.48" fill="#006d32"/>
<polygon points="383.39,176.48 383.39,158.48 394.67,162.59 394.67,180.59" fill="#005f2c"/>
<polygon points="394.67,180.59 394.67,162.59 405.95,158.48 405.95,176.48" fill="#005025"/>
<polygon points="381.52,177.17 392.79,181.27 381.52,185.37 370.24,181.27" fill="#161b22"/>
<polygon points="407.83,177.17 419.10,181.27 407.83,185.37 396.55,181.27" fill="#161b22"/>
<polygon points="328.89,161.17 340.17,165.27 328.89,169.37 317.62,165.27" fill="#0e4429"/>
<polygon points="317.62,181.27 317.62,165.27 328.89,169.37 328.89,185.37" fill="#0c3b24"/>
<polygon points="328.89,185.37 328.89,169.37 340.17,165.27 340.17,181.27" fill="#0a321e"/>
<polygon points="355.20,164.17 366.48,168.27 355.20,172.37 343.93,168.27" fill="#0e4429"/>
<polygon points="343.93,181.27 343.93,168.27 355.20,172.37 355.20,185.37" fill="#0c3b24"/>
<polygon points="355.20,185.37 355.20,172.37 366.48,168.27 366.48,181.27" fill="#0a321e"/>
<polygon points="434.14,164.17 445.41,168.27 434.14,172.37 422.86,168.27" fill="#0e4429"/>
<polygon points="422.86,181.27 422.86,168.27 434.14,172.37 434.14,185.37" fill="#0c3b24"/>
<polygon points="434.14,185.37 434.14,172.37 445.41,168.27 445.41,181.27" fill="#0a321e"/>
<polygon points="486.76,169.17 498.04,173.27 486.76,177.37 475.48,173.27" fill="#0e4429"/>
<polygon points="475.48,181.27 475.48,173.27 486.76,177.37 486.76,185.37" fill="#0c3b24"/>
<polygon points="486.76,185.37 486.76,177.37 498.04,173.27 498.04,181.27" fill="#0a321e"/>
<polygon points="460.45,159.17 471.73,163.27 460.45,167.37 449.17,163.27" fill="#26a641"/>
<polygon points="449.17,181.27 449.17,163.27 460.45,167.37 460.45,185.37" fill="#219239"/>
<polygon points="460.45,185.37 460.45,167.37 471.73,163.27 471.73,181.27" fill="#1c7a30"/>
<polygon points="368.36,181.95 379.64,186.06 368.36,190.16 357.08,186.06" fill="#161b22"/>
<polygon points="394.67,181.95 405.95,186.06 394.67,190.16 383.39,186.06" fill="#161b22"/>
<polygon points="420.98,181.95 432.26,186.06 420.98,190.16 409.71,186.06" fill="#161b22"/>
<polygon points="342.05,163.95 353.32,168.06 342.05,172.16 330.77,168.06" fill="#0e4429"/>
<polygon points="330.77,186.06 330.77,168.06 342.05,172.16 342.05,190.16" fill="#0c3b24"/>
<polygon points="342.05,190.16 342.05,172.16 353.32,168.06 353.32,186.06" fill="#0a321e"/>
<polygon points="447.29,165.95 458.57,170.06 447.29,174.16 436.02,170.06" fill="#0e4429"/>
<polygon points="436.02,186.06 436.02,170.06 447.29,174.16 447.29,190.16" fill="#0c3b24"/>
<polygon points="447.29,190.16 447.29,174.16 458.57,170.06 458.57,186.06" fill="#0a321e"/>
<polygon points="473.61,173.95 484.88,178.06 473.61,182.16 462.33,178.06" fill="#0e4429"/>
<polygon points="462.33,186.06 462.33,178.06 473.61,182.16 473.61,190.16" fill="#0c3b24"/>
<polygon points="473.61,190.16 473.61,182.16 484.88,178.06 484.88,186.06" fill="#0a321e"/>
<polygon points="499.92,170.95 511.19,175.06 499.92,179.16 488.64,175.06" fill="#0e4429"/>
<polygon points="488.64,186.06 488.64,175.06 499.92,179.16 499.92,190.16" fill="#0c3b24"/>
<polygon points="499.92,190.16 499.92,179.16 511.19,175.06 511.19,186.06" fill="#0a321e"/>
<polygon points="355.20,186.74 366.48,190.85 355.20,194.95 343.93,190.85" fill="#161b22"/>
<polygon points="381.52,186.74 392.79,190.85 381.52,194.95 370.24,190.85" fill="#161b22"/>
<polygon points="407.83,175.74 419.10,179.85 407.83,183.95 396.55,179.85" fill="#0e4429"/>
<polygon points="396.55,190.85 396.55,179.85 407.83,183.95 407.83,194.95" fill="#0c3b24"/>
<polygon points="407.83,194.95 407.83,183.95 419.10,179.85 419.10,190.85" fill="#0a321e"/>
<polygon points="513.07,170.74 524.35,174.85 513.07,178.95 501.80,174.85" fill="#0e4429"/>
<polygon points="501.80,190.85 501.80,174.85 513.07,178.95 513.07,194.95" fill="#0c3b24"/>
<polygon points="513.07,194.95 513.07,178.95 524.35,174.85 524.35,190.85" fill="#0a321e"/>
<polygon points="434.14,168.74 445.41,172.85 434.14,176.95 422.86,172.85" fill="#006d32"/>
<polygon points="422.86,190.85 422.86,172.85 434.14,176.95 434.14,194.95" fill="#005f2c"/>
<polygon points="434.14,194.95 434.14,176.95 445.41,172.85 445.41,190.85" fill="#005025"/>
<polygon points="486.76,168.74 498.04,172.85 486.76,176.95 475.48,172.85" fill="#006d32"/>
<polygon points="475.48,190.85 475.48,172.85 486.76,176.95 486.76,194.95" fill="#005f2c"/>
<polygon points="486.76,194.95 486.76,176.95 498.04,172.85 498.04,190.85" fill="#005025"/>
<polygon points="460.45,168.74 471.73,172.85 460.45,176.95 449.17,172.85" fill="#26a641"/>
<polygon points="449.17,190.85 449.17,172.85 460.45,176.95 460.45,194.95" fill="#219239"/>
<polygon points="460.45,194.95 460.45,176.95 471.73,172.85 471.73,190.85" fill="#1c7a30"/>
<polygon points="368.36,191.53 379.64,195.64 368.36,199.74 357.08,195.64" fill="#161b22"/>
<polygon points="473.61,191.53 484.88,195.64 473.61,199.74 462.33,195.64" fill="#161b22"/>
<polygon points="526.23,191.53 537.50,195.64 526.23,199.74 514.95,195.64" fill="#161b22"/>
<polygon points="394.67,177.53 405.95,181.64 394.67,185.74 383.39,181.64" fill="#0e4429"/>
<polygon points="383.39,195.64 383.39,181.64 394.67,185.74 394.67,199.74" fill="#0c3b24"/>
<polygon points="394.67,199.74 394.67,185.74 405.95,181.64 405.95,195.64" fill="#0a321e"/>
<polygon points="447.29,173.53 458.57,177.64 447.29,181.74 436.02,177.64" fill="#006d32"/>
<polygon points="436.02,195.64 436.02,177.64 447.29,181.74 447.29,199.74" fill="#005f2c"/>
<polygon points="447.29,199.74 447.29,181.74 458.57,177.64 458.57,195.64" fill="#005025"/>
<polygon points="499.92,173.53 511.19,177.64 499.92,181.74 488.64,177.64" fill="#006d32"/>
<polygon points="488.64,195.64 488.64,177.64 499.92,181.74 499.92,199.74" fill="#005f2c"/>
<polygon points="499.92,199.74 499.92,181.74 511.19,177.64 511.19,195.64" fill="#005025"/>
<polygon points="420.98,173.53 432.26,177.64 420.98,181.74 409.71,177.64" fill="#26a641"/>
<polygon points="409.71,195.64 409.71,177.64 420.98,181.74 420.98,199.74" fill="#219239"/>
<polygon points="420.98,199.74 420.98,181.74 432.26,177.64 432.26,195.64" fill="#1c7a30"/>
<polygon points="381.52,196.32 392.79,200.42 381.52,204.53 370.24,200.42" fill="#161b22"/>
<polygon points="539.38,196.32 550.66,200.42 539.38,204.53 528.11,200.42" fill="#161b22"/>
<polygon points="407.83,185.32 419.10,189.42 407.83,193.53 396.55,189.42" fill="#0e4429"/>
<polygon points="396.55,200.42 396.55,189.42 407.83,193.53 407.83,204.53" fill="#0c3b24"/>
<polygon points="407.83,204.53 407.83,193.53 419.10,189.42 419.10,200.42" fill="#0a321e"/>
<polygon points="460.45,185.32 471.73,189.42 460.45,193.53 449.17,189.42" fill="#0e4429"/>
<polygon points="449.17,200.42 449.17,189.42 460.45,193.53 460.45,204.53" fill="#0c3b24"/>
<polygon points="460.45,204.53 460.45,193.53 471.73,189.42 471.73,200.42" fill="#0a321e"/>
<polygon points="513.07,181.32 524.35,185.42 513.07,189.53 501.80,185.42" fill="#0e4429"/>
<polygon points="501.80,200.42 501.80,185.42 513.07,189.53 513.07,204.53" fill="#0c3b24"/>
<polygon points="513.07,204.53 513.07,189.53 524.35,185.42 524.35,200.42" fill="#0a321e"/>
<polygon points="434.14,178.32 445.41,182.42 434.14,186.53 422.86,182.42" fill="#006d32"/>
<polygon points="422.86,200.42 422.86,182.42 434.14,186.53 434.14,204.53" fill="#005f2c"/>
<polygon points="434.14,204.53 434.14,186.53 445.41,182.42 445.41,200.42" fill="#005025"/>
<polygon points="486.76,178.32 498.04,182.42 486.76,186.53 475.48,182.42" fill="#006d32"/>
<polygon points="475.48,200.42 475.48,182.42 486.76,186.53 486.76,204.53" fill="#005f2c"/>
<polygon points="486.76,204.53 486.76,186.53 498.04,182.42 498.04,200.42" fill="#005025"/>
<polygon points="394.67,201.11 405.95,205.21 394.67,209.32 383.39,205.21" fill="#161b22"/>
<polygon points="552.54,201.11 563.82,205.21 552.54,209.32 541.26,205.21" fill="#161b22"/>
<polygon points="447.29,187.11 458.57,191.21 447.29,195.32 436.02,191.21" fill="#0e4429"/>
<polygon points="436.02,205.21 436.02,191.21 447.29,195.32 447.29,209.32" fill="#0c3b24"/>
<polygon points="447.29,209.32 447.29,195.32 458.57,191.21 458.57,205.21" fill="#0a321e"/>
<polygon points="499.92,185.11 511.19,189.21 499.92,193.32 488.64,189.21" fill="#0e4429"/>
<polygon points="488.64,205.21 488.64,189.21 499.92,193.32 499.92,209.32" fill="#0c3b24"/>
<polygon points="499.92,209.32 499.92,193.32 511.19,189.21 511.19,205.21" fill="#0a321e"/>
<polygon points="526.23,190.11 537.50,194.21 526.23,198.32 514.95,194.21" fill="#0e4429"/>
<polygon points="514.95,205.21 514.95,194.21 526.23,198.32 526.23,209.32" fill="#0c3b24"/>
<polygon points="526.23,209.32 526.23,198.32 537.50,194.21 537.50,205.21" fill="#0a321e"/>
<polygon points="420.98,183.11 432.26,187.21 420.98,191.32 409.71,187.21" fill="#006d32"/>
<polygon points="409.71,205.21 409.71,187.21 420.98,191.32 420.98,209.32" fill="#005f2c"/>
<polygon points="420.98,209.32 420.98,191.32 432.26,187.21 432.26,205.21" fill="#005025"/>
<polygon points="473.61,183.11 484.88,187.21 473.61,191.32 462.33,187.21" fill="#006d32"/>
<polygon points="462.33,205.21 462.33,187.21 473.61,191.32 473.61,209.32" fill="#005f2c"/>
<polygon points="473.61,209.32 473.61,191.32 484.88,187.21 484.88,205.21" fill="#005025"/>
<polygon points="407.83,197.90 419.10,202.00 407.83,206.10 396.55,202.00" fill="#0e4429"/>
<polygon points="396.55,210.00 396.55,202.00 407.83,206.10 407.83,214.10" fill="#0c3b24"/>
<polygon points="407.83,214.10 407.83,206.10 419.10,202.00 419.10,210.00" fill="#0a321e"/>
<polygon points="434.14,192.90 445.41,197.00 434.14,201.10 422.86,197.00" fill="#0e4429"/>
<polygon points="422.86,210.00 422.86,197.00 434.14,201.10 434.14,214.10" fill="#0c3b24"/>
<polygon points="434.14,214.10 434.14,201.10 445.41,197.00 445.41,210.00" fill="#0a321e"/>
<polygon points="460.45,197.90 471.73,202.00 460.45,206.10 449.17,202.00" fill="#0e4429"/>
<polygon points="449.17,210.00 449.17,202.00 460.45,206.10 460.45,214.10" fill="#0c3b24"/>
<polygon points="460.45,214.10 460.45,206.10 471.73,202.00 471.73,210.00" fill="#0a321e"/>
<polygon points="513.07,189.90 524.35,194.00 513.07,198.10 501.80,194.00" fill="#0e4429"/>
<polygon points="501.80,210.00 501.80,194.00 513.07,198.10 513.07,214.10" fill="#0c3b24"/>
<polygon points="513.07,214.10 513.07,198.10 524.35,194.00 524.35,210.00" fill="#0a321e"/>
<polygon points="539.38,189.90 550.66,194.00 539.38,198.10 528.11,194.00" fill="#0e4429"/>
<polygon points="528.11,210.00 528.11,194.00 539.38,198.10 539.38,214.10" fill="#0c3b24"/>
<polygon points="539.38,214.10 539.38,198.10 550.66,194.00 550.66,210.00" fill="#0a321e"/>
<polygon points="565.69,197.90 576.97,202.00 565.69,206.10 554.42,202.00" fill="#0e4429"/>
<polygon points="554.42,210.00 554.42,202.00 565.69,206.10 565.69,214.10" fill="#0c3b24"/>
<polygon points="565.69,214.10 565.69,206.10 576.97,202.00 576.97,210.00" fill="#0a321e"/>
<polygon points="486.76,187.90 498.04,192.00 486.76,196.10 475.48,192.00" fill="#006d32"/>
<polygon points="475.48,210.00 475.48,192.00 486.76,196.10 486.76,214.10" fill="#005f2c"/>
<polygon points="486.76,214.10 486.76,196.10 498.04,192.00 498.04,210.00" fill="#005025"/>
<polygon points="578.85,210.68 590.13,214.79 578.85,218.89 567.57,214.79" fill="#161b22"/>
<polygon points="420.98,195.68 432.26,199.79 420.98,203.89 409.71,199.79" fill="#0e4429"/>
<polygon points="409.71,214.79 409.71,199.79 420.98,203.89 420.98,218.89" fill="#0c3b24"/>
<polygon points="420.98,218.89 420.98,203.89 432.26,199.79 432.26,214.79" fill="#0a321e"/>
<polygon points="447.29,199.68 458.57,203.79 447.29,207.89 436.02,203.79" fill="#0e4429"/>
<polygon points="436.02,214.79 436.02,203.79 447.29,207.89 447.29,218.89" fill="#0c3b24"/>
<polygon points="447.29,218.89 447.29,207.89 458.57,203.79 458.57,214.79" fill="#0a321e"/>
<polygon points="473.61,192.68 484.88,196.79 473.61,200.89 462.33,196.79" fill="#0e4429"/>
<polygon points="462.33,214.79 462.33,196.79 473.61,200.89 473.61,218.89" fill="#0c3b24"/>
<polygon points="473.61,218.89 473.61,200.89 484.88,196.79 484.88,214.79" fill="#0a321e"/>
<polygon points="499.92,194.68 511.19,198.79 499.92,202.89 488.64,198.79" fill="#0e4429"/>
<polygon points="488.64,214.79 488.64,198.79 499.92,202.89 499.92,218.89" fill="#0c3b24"/>
<polygon points="499.92,218.89 499.92,202.89 511.19,198.79 511.19,214.79" fill="#0a321e"/>
<polygon points="552.54,199.68 563.82,203.79 552.54,207.89 541.26,203.79" fill="#0e4429"/>
<polygon points="541.26,214.79 541.26,203.79 552.54,207.89 552.54,218.89" fill="#0c3b24"/>
<polygon points="552.54,218.89 552.54,207.89 563.82,203.79 563.82,214.79" fill="#0a321e"/>
<polygon points="526.23,192.68 537.50,196.79 526.23,200.89 514.95,196.79" fill="#006d32"/>
<polygon points="514.95,214.79 514.95,196.79 526.23,200.89 526.23,218.89" fill="#005f2c"/>
<polygon points="526.23,218.89 526.23,200.89 537.50,196.79 537.50,214.79" fill="#005025"/>
<polygon points="434.14,215.47 445.41,219.58 434.14,223.68 422.86,219.58" fill="#161b22"/>
<polygon points="460.45,198.47 471.73,202.58 460.45,206.68 449.17,202.58" fill="#0e4429"/>
<polygon points="449.17,219.58 449.17,202.58 460.45,206.68 460.45,223.68" fill="#0c3b24"/>
<polygon points="460.45,223.68 460.45,206.68 471.73,202.58 471.73,219.58" fill="#0a321e"/>
<polygon points="539.38,199.47 550.66,203.58 539.38,207.68 528.11,203.58" fill="#0e4429"/>
<polygon points="528.11,219.58 528.11,203.58 539.38,207.68 539.38,223.68" fill="#0c3b24"/>
<polygon points="539.38,223.68 539.38,207.68 550.66,203.58 550.66,219.58" fill="#0a321e"/>
<polygon points="565.69,204.47 576.97,208.58 565.69,212.68 554.42,208.58" fill="#0e4429"/>
<polygon points="554.42,219.58 554.42,208.58 565.69,212.68 565.69,223.68" fill="#0c3b24"/>
<polygon points="565.69,223.68 565.69,212.68 576.97,208.58 576.97,219.58" fill="#0a321e"/>
<polygon points="592.01,204.47 603.28,208.58 592.01,212.68 580.73,208.58" fill="#0e4429"/>
<polygon points="580.73,219.58 580.73,208.58 592.01,212.68 592.01,223.68" fill="#0c3b24"/>
<polygon points="592.01,223.68 592.01,212.68 603.28,208.58 603.28,219.58" fill="#0a321e"/>
<polygon points="486.76,197.47 498.04,201.58 486.76,205.68 475.48,201.58" fill="#006d32"/>
<polygon points="475.48,219.58 475.48,201.58 486.76,205.68 486.76,223.68" fill="#005f2c"/>
<polygon points="486.76,223.68 486.76,205.68 498.04,201.58 498.04,219.58" fill="#005025"/>
<polygon points="513.07,197.47 524.35,201.58 513.07,205.68 501.80,201.58" fill="#26a641"/>
<polygon points="501.80,219.58 501.80,201.58 513.07,205.68 513.07,223.68" fill="#219239"/>
<polygon points="513.07,223.68 513.07,205.68 524.35,201.58 524.35,219.58" fill="#1c7a30"/>
<polygon points="473.61,220.26 484.88,224.37 473.61,228.47 462.33,224.37" fill="#161b22"/>
<polygon points="605.16,220.26 616.44,224.37 605.16,228.47 593.89,224.37" fill="#161b22"/>
<polygon points="447.29,212.26 458.57,216.37 447.29,220.47 436.02,216.37" fill="#0e4429"/>
<polygon points="436.02,224.37 436.02,216.37 447.29,220.47 447.29,228.47" fill="#0c3b24"/>
<polygon points="447.29,228.47 447.29,220.47 458.57,216.37 458.57,224.37" fill="#0a321e"/>
<polygon points="499.92,202.26 511.19,206.37 499.92,210.47 488.64,206.37" fill="#0e4429"/>
<polygon points="488.64,224.37 488.64,206.37 499.92,210.47 499.92,228.47" fill="#0c3b24"/>
<polygon points="499.92,228.47 499.92,210.47 511.19,206.37 511.19,224.37" fill="#0a321e"/>
<polygon points="526.23,203.26 537.50,207.37 526.23,211.47 514.95,207.37" fill="#0e4429"/>
<polygon points="514.95,224.37 514.95,207.37 526.23,211.47 526.23,228.47" fill="#0c3b24"/>
<polygon points="526.23,228.47 526.23,211.47 537.50,207.37 537.50,224.37" fill="#0a321e"/>
<polygon points="552.54,202.26 563.82,206.37 552.54,210.47 541.26,206.37" fill="#26a641"/>
<polygon points="541.26,224.37 541.26,206.37 552.54,210.47 552.54,228.47" fill="#219239"/>
<polygon points="552.54,228.47 552.54,210.47 563.82,206.37 563.82,224.37" fill="#1c7a30"/>
<polygon points="578.85,202.26 590.13,206.37 578.85,210.47 567.57,206.37" fill="#26a641"/>
<polygon points="567.57,224.37 567.57,206.37 578.85,210.47 578.85,228.47" fill="#219239"/>
<polygon points="578.85,228.47 578.85,210.47 590.13,206.37 590.13,224.37" fill="#1c7a30"/>
<polygon points="460.45,225.05 471.73,229.15 460.45,233.26 449.17,229.15" fill="#161b22"/>
<polygon points="618.32,225.05 629.59,229.15 618.32,233.26 607.04,229.15" fill="#161b22"/>
<polygon points="486.76,211.05 498.04,215.15 486.76,219.26 475.48,215.15" fill="#0e4429"/>
<polygon points="475.48,229.15 475.48,215.15 486.76,219.26 486.76,233.26" fill="#0c3b24"/>
<polygon points="486.76,233.26 486.76,219.26 498.04,215.15 498.04,229.15" fill="#0a321e"/>
<polygon points="513.07,209.05 524.35,213.15 513.07,217.26 501.80,213.15" fill="#0e4429"/>
<polygon points="501.80,229.15 501.80,213.15 513.07,217.26 513.07,233.26" fill="#0c3b24"/>
<polygon points="513.07,233.26 513.07,217.26 524.35,213.15 524.35,229.15" fill="#0a321e"/>
<polygon points="592.01,210.05 603.28,214.15 592.01,218.26 580.73,214.15" fill="#0e4429"/>
<polygon points="580.73,229.15 580.73,214.15 592.01,218.26 592.01,233.26" fill="#0c3b24"/>
<polygon points="592.01,233.26 592.01,218.26 603.28,214.15 603.28,229.15" fill="#0a321e"/>
<polygon points="539.38,207.05 550.66,211.15 539.38,215.26 528.11,211.15" fill="#006d32"/>
<polygon points="528.11,229.15 528.11,211.15 539.38,215.26 539.38,233.26" fill="#005f2c"/>
<polygon points="539.38,233.26 539.38,215.26 550.66,211.15 550.66,229.15" fill="#005025"/>
<polygon points="565.69,207.05 576.97,211.15 565.69,215.26 554.42,211.15" fill="#006d32"/>
<polygon points="554.42,229.15 554.42,211.15 565.69,215.26 565.69,233.26" fill="#005f2c"/>
<polygon points="565.69,233.26 565.69,215.26 576.97,211.15 576.97,229.15" fill="#005025"/>
<polygon points="631.47,229.84 642.75,233.94 631.47,238.05 620.20,233.94" fill="#161b22"/>
<polygon points="473.61,216.84 484.88,220.94 473.61,225.05 462.33,220.94" fill="#0e4429"/>
<polygon points="462.33,233.94 462.33,220.94 473.61,225.05 473.61,238.05" fill="#0c3b24"/>
<polygon points="473.61,238.05 473.61,225.05 484.88,220.94 484.88,233.94" fill="#0a321e"/>
<polygon points="499.92,213.84 511.19,217.94 499.92,222.05 488.64,217.94" fill="#0e4429"/>
<polygon points="488.64,233.94 488.64,217.94 499.92,222.05 499.92,238.05" fill="#0c3b24"/>
<polygon points="499.92,238.05 499.92,222.05 511.19,217.94 511.19,233.94" fill="#0a321e"/>
<polygon points="578.85,213.84 590.13,217.94 578.85,222.05 567.57,217.94" fill="#0e4429"/>
<polygon points="567.57,233.94 567.57,217.94 578.85,222.05 578.85,238.05" fill="#0c3b24"/>
<polygon points="578.85,238.05 578.85,222.05 590.13,217.94 590.13,233.94" fill="#0a321e"/>
<polygon points="605.16,214.84 616.44,218.94 605.16,223.05 593.89,218.94" fill="#0e4429"/>
<polygon points="593.89,233.94 593.89,218.94 605.16,223.05 605.16,238.05" fill="#0c3b24"/>
<polygon points="605.16,238.05 605.16,223.05 616.44,218.94 616.44,233.94" fill="#0a321e"/>
<polygon points="526.23,211.84 537.50,215.94 526.23,220.05 514.95,215.94" fill="#006d32"/>
<polygon points="514.95,233.94 514.95,215.94 526.23,220.05 526.23,238.05" fill="#005f2c"/>
<polygon points="526.23,238.05 526.23,220.05 537.50,215.94 537.50,233.94" fill="#005025"/>
<polygon points="552.54,211.84 563.82,215.94 552.54,220.05 541.26,215.94" fill="#006d32"/>
<polygon points="541.26,233.94 541.26,215.94 552.54,220.05 552.54,238.05" fill="#005f2c"/>
<polygon points="552.54,238.05 552.54,220.05 563.82,215.94 563.82,233.94" fill="#005025"/>
<polygon points="486.76,234.63 498.04,238.73 486.76,242.83 475.48,238.73" fill="#161b22"/>
<polygon points="513.07,234.63 524.35,238.73 513.07,242.83 501.80,238.73" fill="#161b22"/>
<polygon points="592.01,218.63 603.28,222.73 592.01,226.83 580.73,222.73" fill="#0e4429"/>
<polygon points="580.73,238.73 580.73,222.73 592.01,226.83 592.01,242.83" fill="#0c3b24"/>
<polygon points="592.01,242.83 592.01,226.83 603.28,222.73 603.28,238.73" fill="#0a321e"/>
<polygon points="618.32,218.63 629.59,222.73 618.32,226.83 607.04,222.73" fill="#0e4429"/>
<polygon points="607.04,238.73 607.04,222.73 618.32,226.83 618.32,242.83" fill="#0c3b24"/>
<polygon points="618.32,242.83 618.32,226.83 629.59,222.73 629.59,238.73" fill="#0a321e"/>
<polygon points="644.63,218.63 655.91,222.73 644.63,226.83 633.35,222.73" fill="#0e4429"/>
<polygon points="633.35,238.73 633.35,222.73 644.63,226.83 644.63,242.83" fill="#0c3b24"/>
<polygon points="644.63,242.83 644.63,226.83 655.91,222.73 655.91,238.73" fill="#0a321e"/>
<polygon points="539.38,216.63 550.66,220.73 539.38,224.83 528.11,220.73" fill="#006d32"/>
<polygon points="528.11,238.73 528.11,220.73 539.38,224.83 539.38,242.83" fill="#005f2c"/>
<polygon points="539.38,242.83 539.38,224.83 550.66,220.73 550.66,238.73" fill="#005025"/>
<polygon points="565.69,216.63 576.97,220.73 565.69,224.83 554.42,220.73" fill="#006d32"/>
<polygon points="554.42,238.73 554.42,220.73 565.69,224.83 565.69,242.83" fill="#005f2c"/>
<polygon points="565.69,242.83 565.69,224.83 576.97,220.73 576.97,238.73" fill="#005025"/>
<polygon points="499.92,239.41 511.19,243.52 499.92,247.62 488.64,243.52" fill="#161b22"/>
<polygon points="552.54,239.41 563.82,243.52 552.54,247.62 541.26,243.52" fill="#161b22"/>
<polygon points="657.78,239.41 669.06,243.52 657.78,247.62 646.51,243.52" fill="#161b22"/>
<polygon points="578.85,223.41 590.13,227.52 578.85,231.62 567.57,227.52" fill="#0e4429"/>
<polygon points="567.57,243.52 567.57,227.52 578.85,231.62 578.85,247.62" fill="#0c3b24"/>
<polygon points="578.85,247.62 578.85,231.62 590.13,227.52 590.13,243.52" fill="#0a321e"/>
<polygon points="526.23,221.41 537.50,225.52 526.23,229.62 514.95,225.52" fill="#006d32"/>
<polygon points="514.95,243.52 514.95,225.52 526.23,229.62 526.23,247.62" fill="#005f2c"/>
<polygon points="526.23,247.62 526.23,229.62 537.50,225.52 537.50,243.52" fill="#005025"/>
<polygon points="631.47,221.41 642.75,225.52 631.47,229.62 620.20,225.52" fill="#006d32"/>
<polygon points="620.20,243.52 620.20,225.52 631.47,229.62 631.47,247.62" fill="#005f2c"/>
<polygon points="631.47,247.62 631.47,229.62 642.75,225.52 642.75,243.52" fill="#005025"/>
<polygon points="605.16,221.41 616.44,225.52 605.16,229.62 593.89,225.52" fill="#26a641"/>
<polygon points="593.89,243.52 593.89,225.52 605.16,229.62 605.16,247.62" fill="#219239"/>
<polygon points="605.16,247.62 605.16,229.62 616.44,225.52 616.44,243.52" fill="#1c7a30"/>
<polygon points="513.07,230.20 524.35,234.31 513.07,238.41 501.80,234.31" fill="#0e4429"/>
<polygon points="501.80,248.31 501.80,234.31 513.07,238.41 513.07,252.41" fill="#0c3b24"/>
<polygon points="513.07,252.41 513.07,238.41 524.35,234.31 524.35,248.31" fill="#0a321e"/>
<polygon points="539.38,229.20 550.66,233.31 539.38,237.41 528.11,233.31" fill="#0e4429"/>
<polygon points="528.11,248.31 528.11,233.31 539.38,237.41 539.38,252.41" fill="#0c3b24"/>
<polygon points="539.38,252.41 539.38,237.41 550.66,233.31 550.66,248.31" fill="#0a321e"/>
<polygon points="565.69,226.20 576.97,230.31 565.69,234.41 554.42,230.31" fill="#0e4429"/>
<polygon points="554.42,248.31 554.42,230.31 565.69,234.41 565.69,252.41" fill="#0c3b24"/>
<polygon points="565.69,252.41 565.69,234.41 576.97,230.31 576.97,248.31" fill="#0a321e"/>
<polygon points="592.01,230.20 603.28,234.31 592.01,238.41 580.73,234.31" fill="#0e4429"/>
<polygon points="580.73,248.31 580.73,234.31 592.01,238.41 592.01,252.41" fill="#0c3b24"/>
<polygon points="592.01,252.41 592.01,238.41 603.28,234.31 603.28,248.31" fill="#0a321e"/>
<polygon points="670.94,230.20 682.22,234.31 670.94,238.41 659.66,234.31" fill="#0e4429"/>
<polygon points="659.66,248.31 659.66,234.31 670.94,238.41 670.94,252.41" fill="#0c3b24"/>
<polygon points="670.94,252.41 670.94,238.41 682.22,234.31 682.22,248.31" fill="#0a321e"/>
<polygon points="644.63,226.20 655.91,230.31 644.63,234.41 633.35,230.31" fill="#26a641"/>
<polygon points="633.35,248.31 633.35,230.31 644.63,234.41 644.63,252.41" fill="#219239"/>
<polygon points="644.63,252.41 644.63,234.41 655.91,230.31 655.91,248.31" fill="#1c7a30"/>
<polygon points="618.32,226.20 629.59,230.31 618.32,234.41 607.04,230.31" fill="#39d353"/>
<polygon points="607.04,248.31 607.04,230.31 618.32,234.41 618.32,252.41" fill="#32b949"/>
<polygon points="618.32,252.41 618.32,234.41 629.59,230.31 629.59,248.31" fill="#2a9c3d"/>
<polygon points="657.78,248.99 669.06,253.09 657.78,257.20 646.51,253.09" fill="#161b22"/>
<polygon points="684.10,248.99 695.37,253.09 684.10,257.20 672.82,253.09" fill="#161b22"/>
<polygon points="526.23,235.99 537.50,240.09 526.23,244.20 514.95,240.09" fill="#0e4429"/>
<polygon points="514.95,253.09 514.95,240.09 526.23,244.20 526.23,257.20" fill="#0c3b24"/>
<polygon points="526.23,257.20 526.23,244.20 537.50,240.09 537.50,253.09" fill="#0a321e"/>
<polygon points="552.54,232.99 563.82,237.09 552.54,241.20 541.26,237.09" fill="#0e4429"/>
<polygon points="541.26,253.09 541.26,237.09 552.54,241.20 552.54,257.20" fill="#0c3b24"/>
<polygon points="552.54,257.20 552.54,241.20 563.82,237.09 563.82,253.09" fill="#0a321e"/>
<polygon points="605.16,237.99 616.44,242.09 605.16,246.20 593.89,242.09" fill="#0e4429"/>
<polygon points="593.89,253.09 593.89,242.09 605.16,246.20 605.16,257.20" fill="#0c3b24"/>
<polygon points="605.16,257.20 605.16,246.20 616.44,242.09 616.44,253.09" fill="#0a321e"/>
<polygon points="631.47,233.99 642.75,238.09 631.47,242.20 620.20,238.09" fill="#0e4429"/>
<polygon points="620.20,253.09 620.20,238.09 631.47,242.20 631.47,257.20" fill="#0c3b24"/>
<polygon points="631.47,257.20 631.47,242.20 642.75,238.09 642.75,253.09" fill="#0a321e"/>
<polygon points="578.85,230.99 590.13,235.09 578.85,239.20 567.57,235.09" fill="#006d32"/>
<polygon points="567.57,253.09 567.57,235.09 578.85,239.20 578.85,257.20" fill="#005f2c"/>
<polygon points="578.85,257.20 578.85,239.20 590.13,235.09 590.13,253.09" fill="#005025"/>
<polygon points="539.38,240.78 550.66,244.88 539.38,248.99 528.11,244.88" fill="#0e4429"/>
<polygon points="528.11,257.88 528.11,244.88 539.38,248.99 539.38,261.99" fill="#0c3b24"/>
<polygon points="539.38,261.99 539.38,248.99 550.66,244.88 550.66,257.88" fill="#0a321e"/>
<polygon points="565.69,236.78 576.97,240.88 565.69,244.99 554.42,240.88" fill="#0e4429"/>
<polygon points="554.42,257.88 554.42,240.88 565.69,244.99 565.69,261.99" fill="#0c3b24"/>
<polygon points="565.69,261.99 565.69,244.99 576.97,240.88 576.97,257.88" fill="#0a321e"/>
<polygon points="592.01,238.78 603.28,242.88 592.01,246.99 580.73,242.88" fill="#0e4429"/>
<polygon points="580.73,257.88 580.73,242.88 592.01,246.99 592.01,261.99" fill="#0c3b24"/>
<polygon points="592.01,261.99 592.01,246.99 603.28,242.88 603.28,257.88" fill="#0a321e"/>
<polygon points="618.32,245.78 629.59,249.88 618.32,253.99 607.04,249.88" fill="#0e4429"/>
<polygon points="607.04,257.88 607.04,249.88 618.32,253.99 618.32,261.99" fill="#0c3b24"/>
<polygon points="618.32,261.99 618.32,253.99 629.59,249.88 629.59,257.88" fill="#0a321e"/>
<polygon points="644.63,242.78 655.91,246.88 644.63,250.99 633.35,246.88" fill="#0e4429"/>
<polygon points="633.35,257.88 633.35,246.88 644.63,250.99 644.63,261.99" fill="#0c3b24"/>
<polygon points="644.63,261.99 644.63,250.99 655.91,246.88 655.91,257.88" fill="#0a321e"/>
<polygon points="605.16,258.57 616.44,262.67 605.16,266.78 593.89,262.67" fill="#161b22"/>
<polygon points="631.47,258.57 642.75,262.67 631.47,266.78 620.20,262.67" fill="#161b22"/>
<polygon points="552.54,240.57 563.82,244.67 552.54,248.78 541.26,244.67" fill="#006d32"/>
<polygon points="541.26,262.67 541.26,244.67 552.54,248.78 552.54,266.78" fill="#005f2c"/>
<polygon points="552.54,266.78 552.54,248.78 563.82,244.67 563.82,262.67" fill="#005025"/>
<polygon points="578.85,240.57 590.13,244.67 578.85,248.78 567.57,244.67" fill="#006d32"/>
<polygon points="567.57,262.67 567.57,244.67 578.85,248.78 578.85,266.78" fill="#005f2c"/>
<polygon points="578.85,266.78 578.85,248.78 590.13,244.67 590.13,262.67" fill="#005025"/>
<polygon points="592.01,263.36 603.28,267.46 592.01,271.56 580.73,267.46" fill="#161b22"/>
<polygon points="618.32,263.36 629.59,267.46 618.32,271.56 607.04,267.46" fill="#161b22"/>
<polygon points="565.69,255.36 576.97,259.46 565.69,263.56 554.42,259.46" fill="#0e4429"/>
<polygon points="554.42,267.46 554.42,259.46 565.69,263.56 565.69,271.56" fill="#0c3b24"/>
<polygon points="565.69,271.56 565.69,263.56 576.97,259.46 576.97,267.46" fill="#0a321e"/>
<polygon points="605.16,260.14 616.44,264.25 605.16,268.35 593.89,264.25" fill="#0e4429"/>
<polygon points="593.89,272.25 593.89,264.25 605.16,268.35 605.16,276.35" fill="#0c3b24"/>
<polygon points="605.16,276.35 605.16,268.35 616.44,264.25 616.44,272.25" fill="#0a321e"/>
<polygon points="578.85,250.14 590.13,254.25 578.85,258.35 567.57,254.25" fill="#006d32"/>
<polygon points="567.57,272.25 567.57,254.25 578.85,258.35 578.85,276.35" fill="#005f2c"/>
<polygon points="578.85,276.35 578.85,258.35 590.13,254.25 590.13,272.25" fill="#005025"/>
<polygon points="592.01,272.93 603.28,277.04 592.01,281.14 580.73,277.04" fill="#161b22"/>
<text x="697.25" y="14.00" text-anchor="end" font-family='-apple-system, BlinkMacSystemFont, "Segoe UI", Helvetica, Arial, sans-serif' font-size="34" font-weight="700" fill="#39d353">2,290</text>
<text x="697.25" y="26.00" text-anchor="end" font-family='-apple-system, BlinkMacSystemFont, "Segoe UI", Helvetica, Arial, sans-serif' font-size="10" fill="#7d8590" letter-spacing="0.8">TOTAL CONTRIBUTIONS</text>
<rect x="-92.09" y="229.52" width="12" height="9.78" rx="1" fill="#006d32"/>
<text x="-86.09" y="257.30" text-anchor="middle" font-family='-apple-system, BlinkMacSystemFont, "Segoe UI", Helvetica, Arial, sans-serif' font-size="11" fill="#7d8590">S</text>
<rect x="-76.09" y="196.82" width="12" height="42.48" rx="1" fill="#006d32"/>
<text x="-70.09" y="257.30" text-anchor="middle" font-family='-apple-system, BlinkMacSystemFont, "Segoe UI", Helvetica, Arial, sans-serif' font-size="11" fill="#7d8590">M</text>
<rect x="-60.09" y="185.30" width="12" height="54.00" rx="1" fill="#39d353"/>
<text x="-54.09" y="257.30" text-anchor="middle" font-family='-apple-system, BlinkMacSystemFont, "Segoe UI", Helvetica, Arial, sans-serif' font-size="11" fill="#7d8590">T</text>
<rect x="-44.09" y="189.37" width="12" height="49.93" rx="1" fill="#006d32"/>
<text x="-38.09" y="257.30" text-anchor="middle" font-family='-apple-system, BlinkMacSystemFont, "Segoe UI", Helvetica, Arial, sans-serif' font-size="11" fill="#7d8590">W</text>
<rect x="-28.09" y="195.54" width="12" height="43.76" rx="1" fill="#006d32"/>
<text x="-22.09" y="257.30" text-anchor="middle" font-family='-apple-system, BlinkMacSystemFont, "Segoe UI", Helvetica, Arial, sans-serif' font-size="11" fill="#7d8590">T</text>
<rect x="-12.09" y="204.15" width="12" height="35.15" rx="1" fill="#006d32"/>
<text x="-6.09" y="257.30" text-anchor="middle" font-family='-apple-system, BlinkMacSystemFont, "Segoe UI", Helvetica, Arial, sans-serif' font-size="11" fill="#7d8590">F</text>
<rect x="3.91" y="211.60" width="12" height="27.70" rx="1" fill="#006d32"/>
<text x="9.91" y="257.30" text-anchor="middle" font-family='-apple-system, BlinkMacSystemFont, "Segoe UI", Helvetica, Arial, sans-serif' font-size="11" fill="#7d8590">S</text>
<text x="-92.09" y="277.30" font-family='-apple-system, BlinkMacSystemFont, "Segoe UI", Helvetica, Arial, sans-serif' font-size="12" fill="#7d8590" letter-spacing="0.3">Most active days</text>
<text x="-92.09" y="293.30" font-family='-apple-system, BlinkMacSystemFont, "Segoe UI", Helvetica, Arial, sans-serif' font-size="9" fill="#7d8590">Data pulled daily from GitHub.</text>
<text x="-92.09" y="303.30" font-family='-apple-system, BlinkMacSystemFont, "Segoe UI", Helvetica, Arial, sans-serif' font-size="9" fill="#7d8590">Rolling last-12-month activity.</text>
</svg>