<svg xmlns="http://www.w3.org/2000/svg" viewBox="-98.09 -24.00 801.34 354.30" width="801" height="354">
<polygon points="0.00,0.00 11.28,4.10 0.00,8.21 -11.28,4.10" fill="#ebedf0"/>
<polygon points="13.16,-6.21 24.43,-2.11 13.16,2.00 1.88,-2.11" fill="#9be9a8"/>
<polygon points="1.88,8.89 1.88,-2.11 13.16,2.00 13.16,13.00" fill="#88cd93"/>
<polygon points="13.16,13.00 13.16,2.00 24.43,-2.11 24.43,8.89" fill="#72ac7c"/>
<polygon points="-13.16,-13.21 -1.88,-9.11 -13.16,-5.00 -24.43,-9.11" fill="#30a14e"/>
<polygon points="-24.43,8.89 -24.43,-9.11 -13.16,-5.00 -13.16,13.00" fill="#2a8d44"/>
<polygon points="-13.16,13.00 -13.16,-5.00 -1.88,-9.11 -1.88,8.89" fill="#237739"/>
<polygon points="-26.31,-1.42 -15.04,2.68 -26.31,6.79 -37.59,2.68" fill="#9be9a8"/>
<polygon points="-37.59,13.68 -37.59,2.68 -26.31,6.79 -26.31,17.79" fill="#88cd93"/>
<polygon points="-26.31,17.79 -26.31,6.79 -15.04,2.68 -15.04,13.68" fill="#72ac7c"/>
<polygon points="0.00,-4.42 11.28,-0.32 0.00,3.79 -11.28,-0.32" fill="#9be9a8"/>
<polygon points="-11.28,13.68 -11.28,-0.32 0.00,3.79 0.00,17.79" fill="#88cd93"/>
<polygon points="0.00,17.79 0.00,3.79 11.28,-0.32 11.28,13.68" fill="#72ac7c"/>
<polygon points="26.31,-5.42 37.59,-1.32 26.31,2.79 15.04,-1.32" fill="#9be9a8"/>
<polygon points="15.04,13.68 15.04,-1.32 26.31,2.79 26.31,17.79" fill="#88cd93"/>
<polygon points="26.31,17.79 26.31,2.79 37.59,-1.32 37.59,13.68" fill="#72ac7c"/>
<polygon points="-39.47,6.36 -28.19,10.47 -39.47,14.57 -50.74,10.47" fill="#9be9a8"/>
<polygon points="-50.74,18.47 -50.74,10.47 -39.47,14.57 -39.47,22.57" fill="#88cd93"/>
<polygon points="-39.47,22.57 -39.47,14.57 -28.19,10.47 -28.19,18.47" fill="#72ac7c"/>
<polygon points="39.47,1.36 50.74,5.47 39.47,9.57 28.19,5.47" fill="#9be9a8"/>
<polygon points="28.19,18.47 28.19,5.47 39.47,9.57 39.47,22.57" fill="#88cd93"/>
<polygon points="39.47,22.57 39.47,9.57 50.74,5.47 50.74,18.47" fill="#72ac7c"/>
<polygon points="-13.16,-3.64 -1.88,0.47 -13.16,4.57 -24.43,0.47" fill="#40c463"/>
<polygon points="-24.43,18.47 -24.43,0.47 -13.16,4.57 -13.16,22.57" fill="#38ac57"/>
<polygon points="-13.16,22.57 -13.16,4.57 -1.88,0.47 -1.88,18.47" fill="#2f9149"/>
<polygon points="13.16,-3.64 24.43,0.47 13.16,4.57 1.88,0.47" fill="#40c463"/>
<polygon points="1.88,18.47 1.88,0.47 13.16,4.57 13.16,22.57" fill="#38ac57"/>
<polygon points="13.16,22.57 13.16,4.57 24.43,0.47 24.43,18.47" fill="#2f9149"/>
<polygon points="0.00,19.15 11.28,23.26 0.00,27.36 -11.28,23.26" fill="#ebedf0"/>
<polygon points="-52.62,3.15 -41.35,7.26 -52.62,11.36 -63.90,7.26" fill="#9be9a8"/>
<polygon points="-63.90,23.26 -63.90,7.26 -52.62,11.36 -52.62,27.36" fill="#88cd93"/>
<polygon points="-52.62,27.36 -52.62,11.36 -41.35,7.26 -41.35,23.26" fill="#72ac7c"/>
<polygon points="-26.31,3.15 -15.04,7.26 -26.31,11.36 -37.59,7.26" fill="#9be9a8"/>
<polygon points="-37.59,23.26 -37.59,7.26 -26.31,11.36 -26.31,27.36" fill="#88cd93"/>
<polygon points="-26.31,27.36 -26.31,11.36 -15.04,7.26 -15.04,23.26" fill="#72ac7c"/>
<polygon points="26.31,1.15 37.59,5.26 26.31,9.36 15.04,5.26" fill="#9be9a8"/>
<polygon points="15.04,23.26 15.04,5.26 26.31,9.36 26.31,27.36" fill="#88cd93"/>
<polygon points="26.31,27.36 26.31,9.36 37.59,5.26 37.59,23.26" fill="#72ac7c"/>
<polygon points="52.62,8.15 63.90,12.26 52.62,16.36 41.35,12.26" fill="#9be9a8"/>
<polygon points="41.35,23.26 41.35,12.26 52.62,16.36 52.62,27.36" fill="#88cd93"/>
<polygon points="52.62,27.36 52.62,16.36 63.90,12.26 63.90,23.26" fill="#72ac7c"/>
<polygon points="-65.78,9.94 -54.50,14.05 -65.78,18.15 -77.05,14.05" fill="#9be9a8"/>
<polygon points="-77.05,28.05 -77.05,14.05 -65.78,18.15 -65.78,32.15" fill="#88cd93"/>
<polygon points="-65.78,32.15 -65.78,18.15 -54.50,14.05 -54.50,28.05" fill="#72ac7c"/>
<polygon points="-13.16,12.94 -1.88,17.05 -13.16,21.15 -24.43,17.05" fill="#9be9a8"/>
<polygon points="-24.43,28.05 -24.43,17.05 -13.16,21.15 -13.16,32.15" fill="#88cd93"/>
<polygon points="-13.16,32.15 -13.16,21.15 -1.88,17.05 -1.88,28.05" fill="#72ac7c"/>
<polygon points="13.16,15.94 24.43,20.05 13.16,24.15 1.88,20.05" fill="#9be9a8"/>
<polygon points="1.88,28.05 1.88,20.05 13.16,24.15 13.16,32.15" fill="#88cd93"/>
<polygon points="13.16,32.15 13.16,24.15 24.43,20.05 24.43,28.05" fill="#72ac7c"/>
<polygon points="65.78,12.94 77.05,17.05 65.78,21.15 54.50,17.05" fill="#9be9a8"/>
<polygon points="54.50,28.05 54.50,17.05 65.78,21.15 65.78,32.15" fill="#88cd93"/>
<polygon points="65.78,32.15 65.78,21.15 77.05,17.05 77.05,28.05" fill="#72ac7c"/>
<polygon points="-39.47,5.94 -28.19,10.05 -39.47,14.15 -50.74,10.05" fill="#40c463"/>
<polygon points="-50.74,28.05 -50.74,10.05 -39.47,14.15 -39.47,32.15" fill="#38ac57"/>
<polygon points="-39.47,32.15 -39.47,14.15 -28.19,10.05 -28.19,28.05" fill="#2f9149"/>
<polygon points="39.47,5.94 50.74,10.05 39.47,14.15 28.19,10.05" fill="#30a14e"/>
<polygon points="28.19,28.05 28.19,10.05 39.47,14.15 39.47,32.15" fill="#2a8d44"/>
<polygon points="39.47,32.15 39.47,14.15 50.74,10.05 50.74,28.05" fill="#237739"/>
<polygon points="-26.31,28.73 -15.04,32.83 -26.31,36.94 -37.59,32.83" fill="#ebedf0"/>
<polygon points="78.93,28.73 90.21,32.83 78.93,36.94 67.66,32.83" fill="#ebedf0"/>
<polygon points="-78.93,12.73 -67.66,16.83 -78.93,20.94 -90.21,16.83" fill="#9be9a8"/>
<polygon points="-90.21,32.83 -90.21,16.83 -78.93,20.94 -78.93,36.94" fill="#88cd93"/>
<polygon points="-78.93,36.94 -78.93,20.94 -67.66,16.83 -67.66,32.83" fill="#72ac7c"/>
<polygon points="-52.62,11.73 -41.35,15.83 -52.62,19.94 -63.90,15.83" fill="#9be9a8"/>
<polygon points="-63.90,32.83 -63.90,15.83 -52.62,19.94 -52.62,36.94" fill="#88cd93"/>
<polygon points="-52.62,36.94 -52.62,19.94 -41.35,15.83 -41.35,32.83" fill="#72ac7c"/>
<polygon points="0.00,10.73 11.28,14.83 0.00,18.94 -11.28,14.83" fill="#40c463"/>
<polygon points="-11.28,32.83 -11.28,14.83 0.00,18.94 0.00,36.94" fill="#38ac57"/>
<polygon points="0.00,36.94 0.00,18.94 11.28,14.83 11.28,32.83" fill="#2f9149"/>
<polygon points="26.31,10.73 37.59,14.83 26.31,18.94 15.04,14.83" fill="#40c463"/>
<polygon points="15.04,32.83 15.04,14.83 26.31,18.94 26.31,36.94" fill="#38ac57"/>
<polygon points="26.31,36.94 26.31,18.94 37.59,14.83 37.59,32.83" fill="#2f9149"/>
<polygon points="52.62,10.73 63.90,14.83 52.62,18.94 41.35,14.83" fill="#40c463"/>
<polygon points="41.35,32.83 41.35,14.83 52.62,18.94 52.62,36.94" fill="#38ac57"/>
<polygon points="52.62,36.94 52.62,18.94 63.90,14.83 63.90,32.83" fill="#2f9149"/>
<polygon points="-65.78,18.52 -54.50,22.62 -65.78,26.73 -77.05,22.62" fill="#9be9a8"/>
<polygon points="-77.05,37.62 -77.05,22.62 -65.78,26.73 -65.78,41.73" fill="#88cd93"/>
<polygon points="-65.78,41.73 -65.78,26.73 -54.50,22.62 -54.50,37.62" fill="#72ac7c"/>
<polygon points="-39.47,17.52 -28.19,21.62 -39.47,25.73 -50.74,21.62" fill="#9be9a8"/>
<polygon points="-50.74,37.62 -50.74,21.62 -39.47,25.73 -39.47,41.73" fill="#88cd93"/>
<polygon points="-39.47,41.73 -39.47,25.73 -28.19,21.62 -28.19,37.62" fill="#72ac7c"/>
<polygon points="-13.16,19.52 -1.88,23.62 -13.16,27.73 -24.43,23.62" fill="#9be9a8"/>
<polygon points="-24.43,37.62 -24.43,23.62 -13.16,27.73 -13.16,41.73" fill="#88cd93"/>
<polygon points="-13.16,41.73 -13.16,27.73 -1.88,23.62 -1.88,37.62" fill="#72ac7c"/>
<polygon points="39.47,25.52 50.74,29.62 39.47,33.73 28.19,29.62" fill="#9be9a8"/>
<polygon points="28.19,37.62 28.19,29.62 39.47,33.73 39.47,41.73" fill="#88cd93"/>
<polygon points="39.47,41.73 39.47,33.73 50.74,29.62 50.74,37.62" fill="#72ac7c"/>
<polygon points="65.78,20.52 77.05,24.62 65.78,28.73 54.50,24.62" fill="#9be9a8"/>
<polygon points="54.50,37.62 54.50,24.62 65.78,28.73 65.78,41.73" fill="#88cd93"/>
<polygon points="65.78,41.73 65.78,28.73 77.05,24.62 77.05,37.62" fill="#72ac7c"/>
<polygon points="92.09,22.52 103.37,26.62 92.09,30.73 80.81,26.62" fill="#9be9a8"/>
<polygon points="80.81,37.62 80.81,26.62 92.09,30.73 92.09,41.73" fill="#88cd93"/>
<polygon points="92.09,41.73 92.09,30.73 103.37,26.62 103.37,37.62" fill="#72ac7c"/>
<polygon points="13.16,15.52 24.43,19.62 13.16,23.73 1.88,19.62" fill="#30a14e"/>
<polygon points="1.88,37.62 1.88,19.62 13.16,23.73 13.16,41.73" fill="#2a8d44"/>
<polygon points="13.16,41.73 13.16,23.73 24.43,19.62 24.43,37.62" fill="#237739"/>
<polygon points="-52.62,24.31 -41.35,28.41 -52.62,32.51 -63.90,28.41" fill="#9be9a8"/>
<polygon points="-63.90,42.41 -63.90,28.41 -52.62,32.51 -52.62,46.51" fill="#88cd93"/>
<polygon points="-52.62,46.51 -52.62,32.51 -41.35,28.41 -41.35,42.41" fill="#72ac7c"/>
<polygon points="52.62,27.31 63.90,31.41 52.62,35.51 41.35,31.41" fill="#9be9a8"/>
<polygon points="41.35,42.41 41.35,31.41 52.62,35.51 52.62,46.51" fill="#88cd93"/>
<polygon points="52.62,46.51 52.62,35.51 63.90,31.41 63.90,42.41" fill="#72ac7c"/>
<polygon points="105.25,23.31 116.52,27.41 105.25,31.51 93.97,27.41" fill="#9be9a8"/>
<polygon points="93.97,42.41 93.97,27.41 105.25,31.51 105.25,46.51" fill="#88cd93"/>
<polygon points="105.25,46.51 105.25,31.51 116.52,27.41 116.52,42.41" fill="#72ac7c"/>
<polygon points="-26.31,20.31 -15.04,24.41 -26.31,28.51 -37.59,24.41" fill="#40c463"/>
<polygon points="-37.59,42.41 -37.59,24.41 -26.31,28.51 -26.31,46.51" fill="#38ac57"/>
<polygon points="-26.31,46.51 -26.31,28.51 -15.04,24.41 -15.04,42.41" fill="#2f9149"/>
<polygon points="0.00,20.31 11.28,24.41 0.00,28.51 -11.28,24.41" fill="#40c463"/>
<polygon points="-11.28,42.41 -11.28,24.41 0.00,28.51 0.00,46.51" fill="#38ac57"/>
<polygon points="0.00,46.51 0.00,28.51 11.28,24.41 11.28,42.41" fill="#2f9149"/>
<polygon points="26.31,20.31 37.59,24.41 26.31,28.51 15.04,24.41" fill="#40c463"/>
<polygon points="15.04,42.41 15.04,24.41 26.31,28.51 26.31,46.51" fill="#38ac57"/>
<polygon points="26.31,46.51 26.31,28.51 37.59,24.41 37.59,42.41" fill="#2f9149"/>
<polygon points="78.93,20.31 90.21,24.41 78.93,28.51 67.66,24.41" fill="#40c463"/>
<polygon points="67.66,42.41 67.66,24.41 78.93,28.51 78.93,46.51" fill="#38ac57"/>
<polygon points="78.93,46.51 78.93,28.51 90.21,24.41 90.21,42.41" fill="#2f9149"/>
<polygon points="-39.47,27.09 -28.19,31.20 -39.47,35.30 -50.74,31.20" fill="#9be9a8"/>
<polygon points="-50.74,47.20 -50.74,31.20 -39.47,35.30 -39.47,51.30" fill="#88cd93"/>
<polygon points="-39.47,51.30 -39.47,35.30 -28.19,31.20 -28.19,47.20" fill="#72ac7c"/>
<polygon points="13.16,30.09 24.43,34.20 13.16,38.30 1.88,34.20" fill="#9be9a8"/>
<polygon points="1.88,47.20 1.88,34.20 13.16,38.30 13.16,51.30" fill="#88cd93"/>
<polygon points="13.16,51.30 13.16,38.30 24.43,34.20 24.43,47.20" fill="#72ac7c"/>
<polygon points="65.78,28.09 77.05,32.20 65.78,36.30 54.50,32.20" fill="#9be9a8"/>
<polygon points="54.50,47.20 54.50,32.20 65.78,36.30 65.78,51.30" fill="#88cd93"/>
<polygon points="65.78,51.30 65.78,36.30 77.05,32.20 77.05,47.20" fill="#72ac7c"/>
<polygon points="92.09,30.09 103.37,34.20 92.09,38.30 80.81,34.20" fill="#9be9a8"/>
<polygon points="80.81,47.20 80.81,34.20 92.09,38.30 92.09,51.30" fill="#88cd93"/>
<polygon points="92.09,51.30 92.09,38.30 103.37,34.20 103.37,47.20" fill="#72ac7c"/>
<polygon points="118.40,32.09 129.68,36.20 118.40,40.30 107.12,36.20" fill="#9be9a8"/>
<polygon points="107.12,47.20 107.12,36.20 118.40,40.30 118.40,51.30" fill="#88cd93"/>
<polygon points="118.40,51.30 118.40,40.30 129.68,36.20 129.68,47.20" fill="#72ac7c"/>
<polygon points="-13.16,25.09 -1.88,29.20 -13.16,33.30 -24.43,29.20" fill="#40c463"/>
<polygon points="-24.43,47.20 -24.43,29.20 -13.16,33.30 -13.16,51.30" fill="#38ac57"/>
<polygon points="-13.16,51.30 -13.16,33.30 -1.88,29.20 -1.88,47.20" fill="#2f9149"/>
<polygon points="39.47,25.09 50.74,29.20 39.47,33.30 28.19,29.20" fill="#40c463"/>
<polygon points="28.19,47.20 28.19,29.20 39.47,33.30 39.47,51.30" fill="#38ac57"/>
<polygon points="39.47,51.30 39.47,33.30 50.74,29.20 50.74,47.20" fill="#2f9149"/>
<polygon points="0.00,47.88 11.28,51.99 0.00,56.09 -11.28,51.99" fill="#ebedf0"/>
<polygon points="26.31,34.88 37.59,38.99 26.31,43.09 15.04,38.99" fill="#9be9a8"/>
<polygon points="15.04,51.99 15.04,38.99 26.31,43.09 26.31,56.09" fill="#88cd93"/>
<polygon points="26.31,56.09 26.31,43.09 37.59,38.99 37.59,51.99" fill="#72ac7c"/>
<polygon points="52.62,29.88 63.90,33.99 52.62,38.09 41.35,33.99" fill="#9be9a8"/>
<polygon points="41.35,51.99 41.35,33.99 52.62,38.09 52.62,56.09" fill="#88cd93"/>
<polygon points="52.62,56.09 52.62,38.09 63.90,33.99 63.90,51.99" fill="#72ac7c"/>
<polygon points="131.56,33.88 142.83,37.99 131.56,42.09 120.28,37.99" fill="#9be9a8"/>
<polygon points="120.28,51.99 120.28,37.99 131.56,42.09 131.56,56.09" fill="#88cd93"/>
<polygon points="131.56,56.09 131.56,42.09 142.83,37.99 142.83,51.99" fill="#72ac7c"/>
<polygon points="-26.31,29.88 -15.04,33.99 -26.31,38.09 -37.59,33.99" fill="#40c463"/>
<polygon points="-37.59,51.99 -37.59,33.99 -26.31,38.09 -26.31,56.09" fill="#38ac57"/>
<polygon points="-26.31,56.09 -26.31,38.09 -15.04,33.99 -15.04,51.99" fill="#2f9149"/>
<polygon points="105.25,29.88 116.52,33.99 105.25,38.09 93.97,33.99" fill="#40c463"/>
<polygon points="93.97,51.99 93.97,33.99 105.25,38.09 105.25,56.09" fill="#38ac57"/>
<polygon points="105.25,56.09 105.25,38.09 116.52,33.99 116.52,51.99" fill="#2f9149"/>
<polygon points="78.93,29.88 90.21,33.99 78.93,38.09 67.66,33.99" fill="#216e39"/>
<polygon points="67.66,51.99 67.66,33.99 78.93,38.09 78.93,56.09" fill="#1d6032"/>
<polygon points="78.93,56.09 78.93,38.09 90.21,33.99 90.21,51.99" fill="#18512a"/>
<polygon points="-13.16,52.67 -1.88,56.78 -13.16,60.88 -24.43,56.78" fill="#ebedf0"/>
<polygon points="144.71,52.67 155.99,56.78 144.71,60.88 133.44,56.78" fill="#ebedf0"/>
<polygon points="13.16,41.67 24.43,45.78 13.16,49.88 1.88,45.78" fill="#9be9a8"/>
<polygon points="1.88,56.78 1.88,45.78 13.16,49.88 13.16,60.88" fill="#88cd93"/>
<polygon points="13.16,60.88 13.16,49.88 24.43,45.78 24.43,56.78" fill="#72ac7c"/>
<polygon points="118.40,38.67 129.68,42.78 118.40,46.88 107.12,42.78" fill="#9be9a8"/>
<polygon points="107.12,56.78 107.12,42.78 118.40,46.88 118.40,60.88" fill="#88cd93"/>
<polygon points="118.40,60.88 118.40,46.88 129.68,42.78 129.68,56.78" fill="#72ac7c"/>
<polygon points="39.47,34.67 50.74,38.78 39.47,42.88 28.19,38.78" fill="#40c463"/>
<polygon points="28.19,56.78 28.19,38.78 39.47,42.88 39.47,60.88" fill="#38ac57"/>
<polygon points="39.47,60.88 39.47,42.88 50.74,38.78 50.74,56.78" fill="#2f9149"/>
<polygon points="65.78,34.67 77.05,38.78 65.78,42.88 54.50,38.78" fill="#40c463"/>
<polygon points="54.50,56.78 54.50,38.78 65.78,42.88 65.78,60.88" fill="#38ac57"/>
<polygon points="65.78,60.88 65.78,42.88 77.05,38.78 77.05,56.78" fill="#2f9149"/>
<polygon points="92.09,34.67 103.37,38.78 92.09,42.88 80.81,38.78" fill="#30a14e"/>
<polygon points="80.81,56.78 80.81,38.78 92.09,42.88 92.09,60.88" fill="#2a8d44"/>
<polygon points="92.09,60.88 92.09,42.88 103.37,38.78 103.37,56.78" fill="#237739"/>
<polygon points="26.31,57.46 37.59,61.56 26.31,65.67 15.04,61.56" fill="#ebedf0"/>
<polygon points="131.56,57.46 142.83,61.56 131.56,65.67 120.28,61.56" fill="#ebedf0"/>
<polygon points="0.00,44.46 11.28,48.56 0.00,52.67 -11.28,48.56" fill="#9be9a8"/>
<polygon points="-11.28,61.56 -11.28,48.56 0.00,52.67 0.00,65.67" fill="#88cd93"/>
<polygon points="0.00,65.67 0.00,52.67 11.28,48.56 11.28,61.56" fill="#72ac7c"/>
<polygon points="52.62,49.46 63.90,53.56 52.62,57.67 41.35,53.56" fill="#9be9a8"/>
<polygon points="41.35,61.56 41.35,53.56 52.62,57.67 52.62,65.67" fill="#88cd93"/>
<polygon points="52.62,65.67 52.62,57.67 63.90,53.56 63.90,61.56" fill="#72ac7c"/>
<polygon points="105.25,43.46 116.52,47.56 105.25,51.67 93.97,47.56" fill="#9be9a8"/>
<polygon points="93.97,61.56 93.97,47.56 105.25,51.67 105.25,65.67" fill="#88cd93"/>
<polygon points="105.25,65.67 105.25,51.67 116.52,47.56 116.52,61.56" fill="#72ac7c"/>
<polygon points="157.87,44.46 169.14,48.56 157.87,52.67 146.59,48.56" fill="#9be9a8"/>
<polygon points="146.59,61.56 146.59,48.56 157.87,52.67 157.87,65.67" fill="#88cd93"/>
<polygon points="157.87,65.67 157.87,52.67 169.14,48.56 169.14,61.56" fill="#72ac7c"/>
<polygon points="78.93,39.46 90.21,43.56 78.93,47.67 67.66,43.56" fill="#40c463"/>
<polygon points="67.66,61.56 67.66,43.56 78.93,47.67 78.93,65.67" fill="#38ac57"/>
<polygon points="78.93,65.67 78.93,47.67 90.21,43.56 90.21,61.56" fill="#2f9149"/>
<polygon points="171.02,62.25 182.30,66.35 171.02,70.46 159.75,66.35" fill="#ebedf0"/>
<polygon points="13.16,44.25 24.43,48.35 13.16,52.46 1.88,48.35" fill="#9be9a8"/>
<polygon points="1.88,66.35 1.88,48.35 13.16,52.46 13.16,70.46" fill="#88cd93"/>
<polygon points="13.16,70.46 13.16,52.46 24.43,48.35 24.43,66.35" fill="#72ac7c"/>
<polygon points="39.47,44.25 50.74,48.35 39.47,52.46 28.19,48.35" fill="#9be9a8"/>
<polygon points="28.19,66.35 28.19,48.35 39.47,52.46 39.47,70.46" fill="#88cd93"/>
<polygon points="39.47,70.46 39.47,52.46 50.74,48.35 50.74,66.35" fill="#72ac7c"/>
<polygon points="92.09,54.25 103.37,58.35 92.09,62.46 80.81,58.35" fill="#9be9a8"/>
<polygon points="80.81,66.35 80.81,58.35 92.09,62.46 92.09,70.46" fill="#88cd93"/>
<polygon points="92.09,70.46 92.09,62.46 103.37,58.35 103.37,66.35" fill="#72ac7c"/>
<polygon points="118.40,54.25 129.68,58.35 118.40,62.46 107.12,58.35" fill="#9be9a8"/>
<polygon points="107.12,66.35 107.12,58.35 118.40,62.46 118.40,70.46" fill="#88cd93"/>
<polygon points="118.40,70.46 118.40,62.46 129.68,58.35 129.68,66.35" fill="#72ac7c"/>
<polygon points="144.71,54.25 155.99,58.35 144.71,62.46 133.44,58.35" fill="#9be9a8"/>
<polygon points="133.44,66.35 133.44,58.35 144.71,62.46 144.71,70.46" fill="#88cd93"/>
<polygon points="144.71,70.46 144.71,62.46 155.99,58.35 155.99,66.35" fill="#72ac7c"/>
<polygon points="65.78,44.25 77.05,48.35 65.78,52.46 54.50,48.35" fill="#40c463"/>
<polygon points="54.50,66.35 54.50,48.35 65.78,52.46 65.78,70.46" fill="#38ac57"/>
<polygon points="65.78,70.46 65.78,52.46 77.05,48.35 77.05,66.35" fill="#2f9149"/>
<polygon points="26.31,54.04 37.59,58.14 26.31,62.24 15.04,58.14" fill="#9be9a8"/>
<polygon points="15.04,71.14 15.04,58.14 26.31,62.24 26.31,75.24" fill="#88cd93"/>
<polygon points="26.31,75.24 26.31,62.24 37.59,58.14 37.59,71.14" fill="#72ac7c"/>
<polygon points="52.62,54.04 63.90,58.14 52.62,62.24 41.35,58.14" fill="#9be9a8"/>
<polygon points="41.35,71.14 41.35,58.14 52.62,62.24 52.62,75.24" fill="#88cd93"/>
<polygon points="52.62,75.24 52.62,62.24 63.90,58.14 63.90,71.14" fill="#72ac7c"/>
<polygon points="78.93,59.04 90.21,63.14 78.93,67.24 67.66,63.14" fill="#9be9a8"/>
<polygon points="67.66,71.14 67.66,63.14 78.93,67.24 78.93,75.24" fill="#88cd93"/>
<polygon points="78.93,75.24 78.93,67.24 90.21,63.14 90.21,71.14" fill="#72ac7c"/>
<polygon points="105.25,56.04 116.52,60.14 105.25,64.24 93.97,60.14" fill="#9be9a8"/>
<polygon points="93.97,71.14 93.97,60.14 105.25,64.24 105.25,75.24" fill="#88cd93"/>
<polygon points="105.25,75.24 105.25,64.24 116.52,60.14 116.52,71.14" fill="#72ac7c"/>
<polygon points="131.56,54.04 142.83,58.14 131.56,62.24 120.28,58.14" fill="#9be9a8"/>
<polygon points="120.28,71.14 120.28,58.14 131.56,62.24 131.56,75.24" fill="#88cd93"/>
<polygon points="131.56,75.24 131.56,62.24 142.83,58.14 142.83,71.14" fill="#72ac7c"/>
<polygon points="157.87,52.04 169.14,56.14 157.87,60.24 146.59,56.14" fill="#9be9a8"/>
<polygon points="146.59,71.14 146.59,56.14 157.87,60.24 157.87,75.24" fill="#88cd93"/>
<polygon points="157.87,75.24 157.87,60.24 169.14,56.14 169.14,71.14" fill="#72ac7c"/>
<polygon points="184.18,56.04 195.46,60.14 184.18,64.24 172.90,60.14" fill="#9be9a8"/>
<polygon points="172.90,71.14 172.90,60.14 184.18,64.24 184.18,75.24" fill="#88cd93"/>
<polygon points="184.18,75.24 184.18,64.24 195.46,60.14 195.46,71.14" fill="#72ac7c"/>
<polygon points="118.40,71.82 129.68,75.93 118.40,80.03 107.12,75.93" fill="#ebedf0"/>
<polygon points="144.71,71.82 155.99,75.93 144.71,80.03 133.44,75.93" fill="#ebedf0"/>
<polygon points="39.47,60.82 50.74,64.93 39.47,69.03 28.19,64.93" fill="#9be9a8"/>
<polygon points="28.19,75.93 28.19,64.93 39.47,69.03 39.47,80.03" fill="#88cd93"/>
<polygon points="39.47,80.03 39.47,69.03 50.74,64.93 50.74,75.93" fill="#72ac7c"/>
<polygon points="65.78,57.82 77.05,61.93 65.78,66.03 54.50,61.93" fill="#9be9a8"/>
<polygon points="54.50,75.93 54.50,61.93 65.78,66.03 65.78,80.03" fill="#88cd93"/>
<polygon points="65.78,80.03 65.78,66.03 77.05,61.93 77.05,75.93" fill="#72ac7c"/>
<polygon points="92.09,63.82 103.37,67.93 92.09,72.03 80.81,67.93" fill="#9be9a8"/>
<polygon points="80.81,75.93 80.81,67.93 92.09,72.03 92.09,80.03" fill="#88cd93"/>
<polygon points="92.09,80.03 92.09,72.03 103.37,67.93 103.37,75.93" fill="#72ac7c"/>
<polygon points="171.02,57.82 182.30,61.93 171.02,66.03 159.75,61.93" fill="#9be9a8"/>
<polygon points="159.75,75.93 159.75,61.93 171.02,66.03 171.02,80.03" fill="#88cd93"/>
<polygon points="171.02,80.03 171.02,66.03 182.30,61.93 182.30,75.93" fill="#72ac7c"/>
<polygon points="197.34,60.82 208.61,64.93 197.34,69.03 186.06,64.93" fill="#9be9a8"/>
<polygon points="186.06,75.93 186.06,64.93 197.34,69.03 197.34,80.03" fill="#88cd93"/>
<polygon points="197.34,80.03 197.34,69.03 208.61,64.93 208.61,75.93" fill="#72ac7c"/>
<polygon points="52.62,76.61 63.90,80.72 52.62,84.82 41.35,80.72" fill="#ebedf0"/>
<polygon points="78.93,76.61 90.21,80.72 78.93,84.82 67.66,80.72" fill="#ebedf0"/>
<polygon points="105.25,76.61 116.52,80.72 105.25,84.82 93.97,80.72" fill="#ebedf0"/>
<polygon points="131.56,76.61 142.83,80.72 131.56,84.82 120.28,80.72" fill="#ebedf0"/>
<polygon points="210.49,76.61 221.77,80.72 210.49,84.82 199.21,80.72" fill="#ebedf0"/>
<polygon points="157.87,60.61 169.14,64.72 157.87,68.82 146.59,64.72" fill="#9be9a8"/>
<polygon points="146.59,80.72 146.59,64.72 157.87,68.82 157.87,84.82" fill="#88cd93"/>
<polygon points="157.87,84.82 157.87,68.82 169.14,64.72 169.14,80.72" fill="#72ac7c"/>
<polygon points="184.18,65.61 195.46,69.72 184.18,73.82 172.90,69.72" fill="#9be9a8"/>
<polygon points="172.90,80.72 172.90,69.72 184.18,73.82 184.18,84.82" fill="#88cd93"/>
<polygon points="184.18,84.82 184.18,73.82 195.46,69.72 195.46,80.72" fill="#72ac7c"/>
<polygon points="197.34,81.40 208.61,85.51 197.34,89.61 186.06,85.51" fill="#ebedf0"/>
<polygon points="223.65,81.40 234.92,85.51 223.65,89.61 212.37,85.51" fill="#ebedf0"/>
<polygon points="65.78,70.40 77.05,74.51 65.78,78.61 54.50,74.51" fill="#9be9a8"/>
<polygon points="54.50,85.51 54.50,74.51 65.78,78.61 65.78,89.61" fill="#88cd93"/>
<polygon points="65.78,89.61 65.78,78.61 77.05,74.51 77.05,85.51" fill="#72ac7c"/>
<polygon points="92.09,73.40 103.37,77.51 92.09,81.61 80.81,77.51" fill="#9be9a8"/>
<polygon points="80.81,85.51 80.81,77.51 92.09,81.61 92.09,89.61" fill="#88cd93"/>
<polygon points="92.09,89.61 92.09,81.61 103.37,77.51 103.37,85.51" fill="#72ac7c"/>
<polygon points="118.40,73.40 129.68,77.51 118.40,81.61 107.12,77.51" fill="#9be9a8"/>
<polygon points="107.12,85.51 107.12,77.51 118.40,81.61 118.40,89.61" fill="#88cd93"/>
<polygon points="118.40,89.61 118.40,81.61 129.68,77.51 129.68,85.51" fill="#72ac7c"/>
<polygon points="144.71,65.40 155.99,69.51 144.71,73.61 133.44,69.51" fill="#9be9a8"/>
<polygon points="133.44,85.51 133.44,69.51 144.71,73.61 144.71,89.61" fill="#88cd93"/>
<polygon points="144.71,89.61 144.71,73.61 155.99,69.51 155.99,85.51" fill="#72ac7c"/>
<polygon points="171.02,63.40 182.30,67.51 171.02,71.61 159.75,67.51" fill="#40c463"/>
<polygon points="159.75,85.51 159.75,67.51 171.02,71.61 171.02,89.61" fill="#38ac57"/>
<polygon points="171.02,89.61 171.02,71.61 182.30,67.51 182.30,85.51" fill="#2f9149"/>
<polygon points="78.93,86.19 90.21,90.29 78.93,94.40 67.66,90.29" fill="#ebedf0"/>
<polygon points="184.18,86.19 195.46,90.29 184.18,94.40 172.90,90.29" fill="#ebedf0"/>
<polygon points="105.25,70.19 116.52,74.29 105.25,78.40 93.97,74.29" fill="#9be9a8"/>
<polygon points="93.97,90.29 93.97,74.29 105.25,78.40 105.25,94.40" fill="#88cd93"/>
<polygon points="105.25,94.40 105.25,78.40 116.52,74.29 116.52,90.29" fill="#72ac7c"/>
<polygon points="131.56,73.19 142.83,77.29 131.56,81.40 120.28,77.29" fill="#9be9a8"/>
<polygon points="120.28,90.29 120.28,77.29 131.56,81.40 131.56,94.40" fill="#88cd93"/>
<polygon points="131.56,94.40 131.56,81.40 142.83,77.29 142.83,90.29" fill="#72ac7c"/>
<polygon points="157.87,75.19 169.14,79.29 157.87,83.40 146.59,79.29" fill="#9be9a8"/>
<polygon points="146.59,90.29 146.59,79.29 157.87,83.40 157.87,94.40" fill="#88cd93"/>
<polygon points="157.87,94.40 157.87,83.40 169.14,79.29 169.14,90.29" fill="#72ac7c"/>
<polygon points="210.49,73.19 221.77,77.29 210.49,81.40 199.21,77.29" fill="#9be9a8"/>
<polygon points="199.21,90.29 199.21,77.29 210.49,81.40 210.49,94.40" fill="#88cd93"/>
<polygon points="210.49,94.40 210.49,81.40 221.77,77.29 221.77,90.29" fill="#72ac7c"/>
<polygon points="236.80,73.19 248.08,77.29 236.80,81.40 225.53,77.29" fill="#9be9a8"/>
<polygon points="225.53,90.29 225.53,77.29 236.80,81.40 236.80,94.40" fill="#88cd93"/>
<polygon points="236.80,94.40 236.80,81.40 248.08,77.29 248.08,90.29" fill="#72ac7c"/>
<polygon points="171.02,90.98 182.30,95.08 171.02,99.19 159.75,95.08" fill="#ebedf0"/>
<polygon points="92.09,74.98 103.37,79.08 92.09,83.19 80.81,79.08" fill="#9be9a8"/>
<polygon points="80.81,95.08 80.81,79.08 92.09,83.19 92.09,99.19" fill="#88cd93"/>
<polygon points="92.09,99.19 92.09,83.19 103.37,79.08 103.37,95.08" fill="#72ac7c"/>
<polygon points="118.40,75.98 129.68,80.08 118.40,84.19 107.12,80.08" fill="#9be9a8"/>
<polygon points="107.12,95.08 107.12,80.08 118.40,84.19 118.40,99.19" fill="#88cd93"/>
<polygon points="118.40,99.19 118.40,84.19 129.68,80.08 129.68,95.08" fill="#72ac7c"/>
<polygon points="144.71,82.98 155.99,87.08 144.71,91.19 133.44,87.08" fill="#9be9a8"/>
<polygon points="133.44,95.08 133.44,87.08 144.71,91.19 144.71,99.19" fill="#88cd93"/>
<polygon points="144.71,99.19 144.71,91.19 155.99,87.08 155.99,95.08" fill="#72ac7c"/>
<polygon points="197.34,79.98 208.61,84.08 197.34,88.19 186.06,84.08" fill="#9be9a8"/>
<polygon points="186.06,95.08 186.06,84.08 197.34,88.19 197.34,99.19" fill="#88cd93"/>
<polygon points="197.34,99.19 197.34,88.19 208.61,84.08 208.61,95.08" fill="#72ac7c"/>
<polygon points="223.65,79.98 234.92,84.08 223.65,88.19 212.37,84.08" fill="#9be9a8"/>
<polygon points="212.37,95.08 212.37,84.08 223.65,88.19 223.65,99.19" fill="#88cd93"/>
<polygon points="223.65,99.19 223.65,88.19 234.92,84.08 234.92,95.08" fill="#72ac7c"/>
<polygon points="249.96,82.98 261.23,87.08 249.96,91.19 238.68,87.08" fill="#9be9a8"/>
<polygon points="238.68,95.08 238.68,87.08 249.96,91.19 249.96,99.19" fill="#88cd93"/>
<polygon points="249.96,99.19 249.96,91.19 261.23,87.08 261.23,95.08" fill="#72ac7c"/>
<polygon points="263.11,95.77 274.39,99.87 263.11,103.97 251.84,99.87" fill="#ebedf0"/>
<polygon points="131.56,87.77 142.83,91.87 131.56,95.97 120.28,91.87" fill="#9be9a8"/>
<polygon points="120.28,99.87 120.28,91.87 131.56,95.97 131.56,103.97" fill="#88cd93"/>
<polygon points="131.56,103.97 131.56,95.97 142.83,91.87 142.83,99.87" fill="#72ac7c"/>
<polygon points="157.87,80.77 169.14,84.87 157.87,88.97 146.59,84.87" fill="#9be9a8"/>
<polygon points="146.59,99.87 146.59,84.87 157.87,88.97 157.87,103.97" fill="#88cd93"/>
<polygon points="157.87,103.97 157.87,88.97 169.14,84.87 169.14,99.87" fill="#72ac7c"/>
<polygon points="210.49,80.77 221.77,84.87 210.49,88.97 199.21,84.87" fill="#9be9a8"/>
<polygon points="199.21,99.87 199.21,84.87 210.49,88.97 210.49,103.97" fill="#88cd93"/>
<polygon points="210.49,103.97 210.49,88.97 221.77,84.87 221.77,99.87" fill="#72ac7c"/>
<polygon points="236.80,82.77 248.08,86.87 236.80,90.97 225.53,86.87" fill="#9be9a8"/>
<polygon points="225.53,99.87 225.53,86.87 236.80,90.97 236.80,103.97" fill="#88cd93"/>
<polygon points="236.80,103.97 236.80,90.97 248.08,86.87 248.08,99.87" fill="#72ac7c"/>
<polygon points="105.25,77.77 116.52,81.87 105.25,85.97 93.97,81.87" fill="#40c463"/>
<polygon points="93.97,99.87 93.97,81.87 105.25,85.97 105.25,103.97" fill="#38ac57"/>
<polygon points="105.25,103.97 105.25,85.97 116.52,81.87 116.52,99.87" fill="#2f9149"/>
<polygon points="184.18,77.77 195.46,81.87 184.18,85.97 172.90,81.87" fill="#40c463"/>
<polygon points="172.90,99.87 172.90,81.87 184.18,85.97 184.18,103.97" fill="#38ac57"/>
<polygon points="184.18,103.97 184.18,85.97 195.46,81.87 195.46,99.87" fill="#2f9149"/>
<polygon points="118.40,86.55 129.68,90.66 118.40,94.76 107.12,90.66" fill="#9be9a8"/>
<polygon points="107.12,104.66 107.12,90.66 118.40,94.76 118.40,108.76" fill="#88cd93"/>
<polygon points="118.40,108.76 118.40,94.76 129.68,90.66 129.68,104.66" fill="#72ac7c"/>
<polygon points="144.71,89.55 155.99,93.66 144.71,97.76 133.44,93.66" fill="#9be9a8"/>
<polygon points="133.44,104.66 133.44,93.66 144.71,97.76 144.71,108.76" fill="#88cd93"/>
<polygon points="144.71,108.76 144.71,97.76 155.99,93.66 155.99,104.66" fill="#72ac7c"/>
<polygon points="171.02,84.55 182.30,88.66 171.02,92.76 159.75,88.66" fill="#9be9a8"/>
<polygon points="159.75,104.66 159.75,88.66 171.02,92.76 171.02,108.76" fill="#88cd93"/>
<polygon points="171.02,108.76 171.02,92.76 182.30,88.66 182.30,104.66" fill="#72ac7c"/>
<polygon points="197.34,87.55 208.61,91.66 197.34,95.76 186.06,91.66" fill="#9be9a8"/>
<polygon points="186.06,104.66 186.06,91.66 197.34,95.76 197.34,108.76" fill="#88cd93"/>
<polygon points="197.34,108.76 197.34,95.76 208.61,91.66 208.61,104.66" fill="#72ac7c"/>
<polygon points="223.65,86.55 234.92,90.66 223.65,94.76 212.37,90.66" fill="#9be9a8"/>
<polygon points="212.37,104.66 212.37,90.66 223.65,94.76 223.65,108.76" fill="#88cd93"/>
<polygon points="223.65,108.76 223.65,94.76 234.92,90.66 234.92,104.66" fill="#72ac7c"/>
<polygon points="276.27,89.55 287.55,93.66 276.27,97.76 264.99,93.66" fill="#9be9a8"/>
<polygon points="264.99,104.66 264.99,93.66 276.27,97.76 276.27,108.76" fill="#88cd93"/>
<polygon points="276.27,108.76 276.27,97.76 287.55,93.66 287.55,104.66" fill="#72ac7c"/>
<polygon points="249.96,82.55 261.23,86.66 249.96,90.76 238.68,86.66" fill="#40c463"/>
<polygon points="238.68,104.66 238.68,86.66 249.96,90.76 249.96,108.76" fill="#38ac57"/>
<polygon points="249.96,108.76 249.96,90.76 261.23,86.66 261.23,104.66" fill="#2f9149"/>
<polygon points="131.56,105.34 142.83,109.45 131.56,113.55 120.28,109.45" fill="#ebedf0"/>
<polygon points="289.43,105.34 300.70,109.45 289.43,113.55 278.15,109.45" fill="#ebedf0"/>
<polygon points="157.87,89.34 169.14,93.45 157.87,97.55 146.59,93.45" fill="#9be9a8"/>
<polygon points="146.59,109.45 146.59,93.45 157.87,97.55 157.87,113.55" fill="#88cd93"/>
<polygon points="157.87,113.55 157.87,97.55 169.14,93.45 169.14,109.45" fill="#72ac7c"/>
<polygon points="184.18,88.34 195.46,92.45 184.18,96.55 172.90,92.45" fill="#9be9a8"/>
<polygon points="172.90,109.45 172.90,92.45 184.18,96.55 184.18,113.55" fill="#88cd93"/>
<polygon points="184.18,113.55 184.18,96.55 195.46,92.45 195.46,109.45" fill="#72ac7c"/>
<polygon points="210.49,89.34 221.77,93.45 210.49,97.55 199.21,93.45" fill="#9be9a8"/>
<polygon points="199.21,109.45 199.21,93.45 210.49,97.55 210.49,113.55" fill="#88cd93"/>
<polygon points="210.49,113.55 210.49,97.55 221.77,93.45 221.77,109.45" fill="#72ac7c"/>
<polygon points="236.80,89.34 248.08,93.45 236.80,97.55 225.53,93.45" fill="#9be9a8"/>
<polygon points="225.53,109.45 225.53,93.45 236.80,97.55 236.80,113.55" fill="#88cd93"/>
<polygon points="236.80,113.55 236.80,97.55 248.08,93.45 248.08,109.45" fill="#72ac7c"/>
<polygon points="263.11,90.34 274.39,94.45 263.11,98.55 251.84,94.45" fill="#9be9a8"/>
<polygon points="251.84,109.45 251.84,94.45 263.11,98.55 263.11,113.55" fill="#88cd93"/>
<polygon points="263.11,113.55 263.11,98.55 274.39,94.45 274.39,109.45" fill="#72ac7c"/>
<polygon points="276.27,110.13 287.55,114.23 276.27,118.34 264.99,114.23" fill="#ebedf0"/>
<polygon points="144.71,102.13 155.99,106.23 144.71,110.34 133.44,106.23" fill="#9be9a8"/>
<polygon points="133.44,114.23 133.44,106.23 144.71,110.34 144.71,118.34" fill="#88cd93"/>
<polygon points="144.71,118.34 144.71,110.34 155.99,106.23 155.99,114.23" fill="#72ac7c"/>
<polygon points="171.02,102.13 182.30,106.23 171.02,110.34 159.75,106.23" fill="#9be9a8"/>
<polygon points="159.75,114.23 159.75,106.23 171.02,110.34 171.02,118.34" fill="#88cd93"/>
<polygon points="171.02,118.34 171.02,110.34 182.30,106.23 182.30,114.23" fill="#72ac7c"/>
<polygon points="197.34,99.13 208.61,103.23 197.34,107.34 186.06,103.23" fill="#9be9a8"/>
<polygon points="186.06,114.23 186.06,103.23 197.34,107.34 197.34,118.34" fill="#88cd93"/>
<polygon points="197.34,118.34 197.34,107.34 208.61,103.23 208.61,114.23" fill="#72ac7c"/>
<polygon points="223.65,94.13 234.92,98.23 223.65,102.34 212.37,98.23" fill="#9be9a8"/>
<polygon points="212.37,114.23 212.37,98.23 223.65,102.34 223.65,118.34" fill="#88cd93"/>
<polygon points="223.65,118.34 223.65,102.34 234.92,98.23 234.92,114.23" fill="#72ac7c"/>
<polygon points="249.96,97.13 261.23,101.23 249.96,105.34 238.68,101.23" fill="#9be9a8"/>
<polygon points="238.68,114.23 238.68,101.23 249.96,105.34 249.96,118.34" fill="#88cd93"/>
<polygon points="249.96,118.34 249.96,105.34 261.23,101.23 261.23,114.23" fill="#72ac7c"/>
<polygon points="302.58,99.13 313.86,103.23 302.58,107.34 291.30,103.23" fill="#9be9a8"/>
<polygon points="291.30,114.23 291.30,103.23 302.58,107.34 302.58,118.34" fill="#88cd93"/>
<polygon points="302.58,118.34 302.58,107.34 313.86,103.23 313.86,114.23" fill="#72ac7c"/>
<polygon points="184.18,114.92 195.46,119.02 184.18,123.13 172.90,119.02" fill="#ebedf0"/>
<polygon points="263.11,114.92 274.39,119.02 263.11,123.13 251.84,119.02" fill="#ebedf0"/>
<polygon points="157.87,99.92 169.14,104.02 157.87,108.13 146.59,104.02" fill="#9be9a8"/>
<polygon points="146.59,119.02 146.59,104.02 157.87,108.13 157.87,123.13" fill="#88cd93"/>
<polygon points="157.87,123.13 157.87,108.13 169.14,104.02 169.14,119.02" fill="#72ac7c"/>
<polygon points="210.49,103.92 221.77,108.02 210.49,112.13 199.21,108.02" fill="#9be9a8"/>
<polygon points="199.21,119.02 199.21,108.02 210.49,112.13 210.49,123.13" fill="#88cd93"/>
<polygon points="210.49,123.13 210.49,112.13 221.77,108.02 221.77,119.02" fill="#72ac7c"/>
<polygon points="236.80,103.92 248.08,108.02 236.80,112.13 225.53,108.02" fill="#9be9a8"/>
<polygon points="225.53,119.02 225.53,108.02 236.80,112.13 236.80,123.13" fill="#88cd93"/>
<polygon points="236.80,123.13 236.80,112.13 248.08,108.02 248.08,119.02" fill="#72ac7c"/>
<polygon points="289.43,106.92 300.70,111.02 289.43,115.13 278.15,111.02" fill="#9be9a8"/>
<polygon points="278.15,119.02 278.15,111.02 289.43,115.13 289.43,123.13" fill="#88cd93"/>
<polygon points="289.43,123.13 289.43,115.13 300.70,111.02 300.70,119.02" fill="#72ac7c"/>
<polygon points="315.74,101.92 327.01,106.02 315.74,110.13 304.46,106.02" fill="#9be9a8"/>
<polygon points="304.46,119.02 304.46,106.02 315.74,110.13 315.74,123.13" fill="#88cd93"/>
<polygon points="315.74,123.13 315.74,110.13 327.01,106.02 327.01,119.02" fill="#72ac7c"/>
<polygon points="249.96,119.71 261.23,123.81 249.96,127.92 238.68,123.81" fill="#ebedf0"/>
<polygon points="171.02,106.71 182.30,110.81 171.02,114.92 159.75,110.81" fill="#9be9a8"/>
<polygon points="159.75,123.81 159.75,110.81 171.02,114.92 171.02,127.92" fill="#88cd93"/>
<polygon points="171.02,127.92 171.02,114.92 182.30,110.81 182.30,123.81" fill="#72ac7c"/>
<polygon points="197.34,103.71 208.61,107.81 197.34,111.92 186.06,107.81" fill="#9be9a8"/>
<polygon points="186.06,123.81 186.06,107.81 197.34,111.92 197.34,127.92" fill="#88cd93"/>
<polygon points="197.34,127.92 197.34,111.92 208.61,107.81 208.61,123.81" fill="#72ac7c"/>
<polygon points="223.65,106.71 234.92,110.81 223.65,114.92 212.37,110.81" fill="#9be9a8"/>
<polygon points="212.37,123.81 212.37,110.81 223.65,114.92 223.65,127.92" fill="#88cd93"/>
<polygon points="223.65,127.92 223.65,114.92 234.92,110.81 234.92,123.81" fill="#72ac7c"/>
<polygon points="276.27,105.71 287.55,109.81 276.27,113.92 264.99,109.81" fill="#9be9a8"/>
<polygon points="264.99,123.81 264.99,109.81 276.27,113.92 276.27,127.92" fill="#88cd93"/>
<polygon points="276.27,127.92 276.27,113.92 287.55,109.81 287.55,123.81" fill="#72ac7c"/>
<polygon points="302.58,105.71 313.86,109.81 302.58,113.92 291.30,109.81" fill="#9be9a8"/>
<polygon points="291.30,123.81 291.30,109.81 302.58,113.92 302.58,127.92" fill="#88cd93"/>
<polygon points="302.58,127.92 302.58,113.92 313.86,109.81 313.86,123.81" fill="#72ac7c"/>
<polygon points="328.89,111.71 340.17,115.81 328.89,119.92 317.62,115.81" fill="#9be9a8"/>
<polygon points="317.62,123.81 317.62,115.81 328.89,119.92 328.89,127.92" fill="#88cd93"/>
<polygon points="328.89,127.92 328.89,119.92 340.17,115.81 340.17,123.81" fill="#72ac7c"/>
<polygon points="263.11,124.50 274.39,128.60 263.11,132.70 251.84,128.60" fill="#ebedf0"/>
<polygon points="289.43,124.50 300.70,128.60 289.43,132.70 278.15,128.60" fill="#ebedf0"/>
<polygon points="184.18,116.50 195.46,120.60 184.18,124.70 172.90,120.60" fill="#9be9a8"/>
<polygon points="172.90,128.60 172.90,120.60 184.18,124.70 184.18,132.70" fill="#88cd93"/>
<polygon points="184.18,132.70 184.18,124.70 195.46,120.60 195.46,128.60" fill="#72ac7c"/>
<polygon points="210.49,111.50 221.77,115.60 210.49,119.70 199.21,115.60" fill="#9be9a8"/>
<polygon points="199.21,128.60 199.21,115.60 210.49,119.70 210.49,132.70" fill="#88cd93"/>
<polygon points="210.49,132.70 210.49,119.70 221.77,115.60 221.77,128.60" fill="#72ac7c"/>
<polygon points="236.80,109.50 248.08,113.60 236.80,117.70 225.53,113.60" fill="#9be9a8"/>
<polygon points="225.53,128.60 225.53,113.60 236.80,117.70 236.80,132.70" fill="#88cd93"/>
<polygon points="236.80,132.70 236.80,117.70 248.08,113.60 248.08,128.60" fill="#72ac7c"/>
<polygon points="315.74,108.50 327.01,112.60 315.74,116.70 304.46,112.60" fill="#9be9a8"/>
<polygon points="304.46,128.60 304.46,112.60 315.74,116.70 315.74,132.70" fill="#88cd93"/>
<polygon points="315.74,132.70 315.74,116.70 327.01,112.60 327.01,128.60" fill="#72ac7c"/>
<polygon points="342.05,107.50 353.32,111.60 342.05,115.70 330.77,111.60" fill="#9be9a8"/>
<polygon points="330.77,128.60 330.77,111.60 342.05,115.70 342.05,132.70" fill="#88cd93"/>
<polygon points="342.05,132.70 342.05,115.70 353.32,111.60 353.32,128.60" fill="#72ac7c"/>
<polygon points="197.34,129.28 208.61,133.39 197.34,137.49 186.06,133.39" fill="#ebedf0"/>
<polygon points="223.65,121.28 234.92,125.39 223.65,129.49 212.37,125.39" fill="#9be9a8"/>
<polygon points="212.37,133.39 212.37,125.39 223.65,129.49 223.65,137.49" fill="#88cd93"/>
<polygon points="223.65,137.49 223.65,129.49 234.92,125.39 234.92,133.39" fill="#72ac7c"/>
<polygon points="249.96,121.28 261.23,125.39 249.96,129.49 238.68,125.39" fill="#9be9a8"/>
<polygon points="238.68,133.39 238.68,125.39 249.96,129.49 249.96,137.49" fill="#88cd93"/>
<polygon points="249.96,137.49 249.96,129.49 261.23,125.39 261.23,133.39" fill="#72ac7c"/>
<polygon points="276.27,118.28 287.55,122.39 276.27,126.49 264.99,122.39" fill="#9be9a8"/>
<polygon points="264.99,133.39 264.99,122.39 276.27,126.49 276.27,137.49" fill="#88cd93"/>
<polygon points="276.27,137.49 276.27,126.49 287.55,122.39 287.55,133.39" fill="#72ac7c"/>
<polygon points="328.89,118.28 340.17,122.39 328.89,126.49 317.62,122.39" fill="#9be9a8"/>
<polygon points="317.62,133.39 317.62,122.39 328.89,126.49 328.89,137.49" fill="#88cd93"/>
<polygon points="328.89,137.49 328.89,126.49 340.17,122.39 340.17,133.39" fill="#72ac7c"/>
<polygon points="355.20,121.28 366.48,125.39 355.20,129.49 343.93,125.39" fill="#9be9a8"/>
<polygon points="343.93,133.39 343.93,125.39 355.20,129.49 355.20,137.49" fill="#88cd93"/>
<polygon points="355.20,137.49 355.20,129.49 366.48,125.39 366.48,133.39" fill="#72ac7c"/>
<polygon points="302.58,111.28 313.86,115.39 302.58,119.49 291.30,115.39" fill="#30a14e"/>
<polygon points="291.30,133.39 291.30,115.39 302.58,119.49 302.58,137.49" fill="#2a8d44"/>
<polygon points="302.58,137.49 302.58,119.49 313.86,115.39 313.86,133.39" fill="#237739"/>
<polygon points="263.11,134.07 274.39,138.18 263.11,142.28 251.84,138.18" fill="#ebedf0"/>
<polygon points="342.05,134.07 353.32,138.18 342.05,142.28 330.77,138.18" fill="#ebedf0"/>
<polygon points="210.49,121.07 221.77,125.18 210.49,129.28 199.21,125.18" fill="#9be9a8"/>
<polygon points="199.21,138.18 199.21,125.18 210.49,129.28 210.49,142.28" fill="#88cd93"/>
<polygon points="210.49,142.28 210.49,129.28 221.77,125.18 221.77,138.18" fill="#72ac7c"/>
<polygon points="236.80,120.07 248.08,124.18 236.80,128.28 225.53,124.18" fill="#9be9a8"/>
<polygon points="225.53,138.18 225.53,124.18 236.80,128.28 236.80,142.28" fill="#88cd93"/>
<polygon points="236.80,142.28 236.80,128.28 248.08,124.18 248.08,138.18" fill="#72ac7c"/>
<polygon points="289.43,120.07 300.70,124.18 289.43,128.28 278.15,124.18" fill="#9be9a8"/>
<polygon points="278.15,138.18 278.15,124.18 289.43,128.28 289.43,142.28" fill="#88cd93"/>
<polygon points="289.43,142.28 289.43,128.28 300.70,124.18 300.70,138.18" fill="#72ac7c"/>
<polygon points="368.36,120.07 379.64,124.18 368.36,128.28 357.08,124.18" fill="#9be9a8"/>
<polygon points="357.08,138.18 357.08,124.18 368.36,128.28 368.36,142.28" fill="#88cd93"/>
<polygon points="368.36,142.28 368.36,128.28 379.64,124.18 379.64,138.18" fill="#72ac7c"/>
<polygon points="315.74,116.07 327.01,120.18 315.74,124.28 304.46,120.18" fill="#40c463"/>
<polygon points="304.46,138.18 304.46,120.18 315.74,124.28 315.74,142.28" fill="#38ac57"/>
<polygon points="315.74,142.28 315.74,124.28 327.01,120.18 327.01,138.18" fill="#2f9149"/>
<polygon points="302.58,138.86 313.86,142.96 302.58,147.07 291.30,142.96" fill="#ebedf0"/>
<polygon points="223.65,130.86 234.92,134.96 223.65,139.07 212.37,134.96" fill="#9be9a8"/>
<polygon points="212.37,142.96 212.37,134.96 223.65,139.07 223.65,147.07" fill="#88cd93"/>
<polygon points="223.65,147.07 223.65,139.07 234.92,134.96 234.92,142.96" fill="#72ac7c"/>
<polygon points="328.89,122.86 340.17,126.96 328.89,131.07 317.62,126.96" fill="#9be9a8"/>
<polygon points="317.62,142.96 317.62,126.96 328.89,131.07 328.89,147.07" fill="#88cd93"/>
<polygon points="328.89,147.07 328.89,131.07 340.17,126.96 340.17,142.96" fill="#72ac7c"/>
<polygon points="355.20,130.86 366.48,134.96 355.20,139.07 343.93,134.96" fill="#9be9a8"/>
<polygon points="343.93,142.96 343.93,134.96 355.20,139.07 355.20,147.07" fill="#88cd93"/>
<polygon points="355.20,147.07 355.20,139.07 366.48,134.96 366.48,142.96" fill="#72ac7c"/>
<polygon points="381.52,130.86 392.79,134.96 381.52,139.07 370.24,134.96" fill="#9be9a8"/>
<polygon points="370.24,142.96 370.24,134.96 381.52,139.07 381.52,147.07" fill="#88cd93"/>
<polygon points="381.52,147.07 381.52,139.07 392.79,134.96 392.79,142.96" fill="#72ac7c"/>
<polygon points="249.96,120.86 261.23,124.96 249.96,129.07 238.68,124.96" fill="#40c463"/>
<polygon points="238.68,142.96 238.68,124.96 249.96,129.07 249.96,147.07" fill="#38ac57"/>
<polygon points="249.96,147.07 249.96,129.07 261.23,124.96 261.23,142.96" fill="#2f9149"/>
<polygon points="276.27,120.86 287.55,124.96 276.27,129.07 264.99,124.96" fill="#40c463"/>
<polygon points="264.99,142.96 264.99,124.96 276.27,129.07 276.27,147.07" fill="#38ac57"/>
<polygon points="276.27,147.07 276.27,129.07 287.55,124.96 287.55,142.96" fill="#2f9149"/>
<polygon points="263.11,143.65 274.39,147.75 263.11,151.86 251.84,147.75" fill="#ebedf0"/>
<polygon points="394.67,143.65 405.95,147.75 394.67,151.86 383.39,147.75" fill="#ebedf0"/>
<polygon points="289.43,130.65 300.70,134.75 289.43,138.86 278.15,134.75" fill="#9be9a8"/>
<polygon points="278.15,147.75 278.15,134.75 289.43,138.86 289.43,151.86" fill="#88cd93"/>
<polygon points="289.43,151.86 289.43,138.86 300.70,134.75 300.70,147.75" fill="#72ac7c"/>
<polygon points="236.80,125.65 248.08,129.75 236.80,133.86 225.53,129.75" fill="#40c463"/>
<polygon points="225.53,147.75 225.53,129.75 236.80,133.86 236.80,151.86" fill="#38ac57"/>
<polygon points="236.80,151.86 236.80,133.86 248.08,129.75 248.08,147.75" fill="#2f9149"/>
<polygon points="342.05,125.65 353.32,129.75 342.05,133.86 330.77,129.75" fill="#40c463"/>
<polygon points="330.77,147.75 330.77,129.75 342.05,133.86 342.05,151.86" fill="#38ac57"/>
<polygon points="342.05,151.86 342.05,133.86 353.32,129.75 353.32,147.75" fill="#2f9149"/>
<polygon points="315.74,125.65 327.01,129.75 315.74,133.86 304.46,129.75" fill="#30a14e"/>
<polygon points="304.46,147.75 304.46,129.75 315.74,133.86 315.74,151.86" fill="#2a8d44"/>
<polygon points="315.74,151.86 315.74,133.86 327.01,129.75 327.01,147.75" fill="#237739"/>
<polygon points="368.36,125.65 379.64,129.75 368.36,133.86 357.08,129.75" fill="#216e39"/>
<polygon points="357.08,147.75 357.08,129.75 368.36,133.86 368.36,151.86" fill="#1d6032"/>
<polygon points="368.36,151.86 368.36,133.86 379.64,129.75 379.64,147.75" fill="#18512a"/>
<polygon points="381.52,148.44 392.79,152.54 381.52,156.65 370.24,152.54" fill="#ebedf0"/>
<polygon points="249.96,140.44 261.23,144.54 249.96,148.65 238.68,144.54" fill="#9be9a8"/>
<polygon points="238.68,152.54 238.68,144.54 249.96,148.65 249.96,156.65" fill="#88cd93"/>
<polygon points="249.96,156.65 249.96,148.65 261.23,144.54 261.23,152.54" fill="#72ac7c"/>
<polygon points="276.27,135.44 287.55,139.54 276.27,143.65 264.99,139.54" fill="#9be9a8"/>
<polygon points="264.99,152.54 264.99,139.54 276.27,143.65 276.27,156.65" fill="#88cd93"/>
<polygon points="276.27,156.65 276.27,143.65 287.55,139.54 287.55,152.54" fill="#72ac7c"/>
<polygon points="328.89,133.44 340.17,137.54 328.89,141.65 317.62,137.54" fill="#9be9a8"/>
<polygon points="317.62,152.54 317.62,137.54 328.89,141.65 328.89,156.65" fill="#88cd93"/>
<polygon points="328.89,156.65 328.89,141.65 340.17,137.54 340.17,152.54" fill="#72ac7c"/>
<polygon points="407.83,137.44 419.10,141.54 407.83,145.65 396.55,141.54" fill="#9be9a8"/>
<polygon points="396.55,152.54 396.55,141.54 407.83,145.65 407.83,156.65" fill="#88cd93"/>
<polygon points="407.83,156.65 407.83,145.65 419.10,141.54 419.10,152.54" fill="#72ac7c"/>
<polygon points="355.20,130.44 366.48,134.54 355.20,138.65 343.93,134.54" fill="#40c463"/>
<polygon points="343.93,152.54 343.93,134.54 355.20,138.65 355.20,156.65" fill="#38ac57"/>
<polygon points="355.20,156.65 355.20,138.65 366.48,134.54 366.48,152.54" fill="#2f9149"/>
<polygon points="302.58,130.44 313.86,134.54 302.58,138.65 291.30,134.54" fill="#216e39"/>
<polygon points="291.30,152.54 291.30,134.54 302.58,138.65 302.58,156.65" fill="#1d6032"/>
<polygon points="302.58,156.65 302.58,138.65 313.86,134.54 313.86,152.54" fill="#18512a"/>
<polygon points="263.11,135.23 274.39,139.33 263.11,143.43 251.84,139.33" fill="#9be9a8"/>
<polygon points="251.84,157.33 251.84,139.33 263.11,143.43 263.11,161.43" fill="#88cd93"/>
<polygon points="263.11,161.43 263.11,143.43 274.39,139.33 274.39,157.33" fill="#72ac7c"/>
<polygon points="315.74,140.23 327.01,144.33 315.74,148.43 304.46,144.33" fill="#9be9a8"/>
<polygon points="304.46,157.33 304.46,144.33 315.74,148.43 315.74,161.43" fill="#88cd93"/>
<polygon points="315.74,161.43 315.74,148.43 327.01,144.33 327.01,157.33" fill="#72ac7c"/>
<polygon points="368.36,138.23 379.64,142.33 368.36,146.43 357.08,142.33" fill="#9be9a8"/>
<polygon points="357.08,157.33 357.08,142.33 368.36,146.43 368.36,161.43" fill="#88cd93"/>
<polygon points="368.36,161.43 368.36,146.43 379.64,142.33 379.64,157.33" fill="#72ac7c"/>
<polygon points="420.98,138.23 432.26,142.33 420.98,146.43 409.71,142.33" fill="#9be9a8"/>
<polygon points="409.71,157.33 409.71,142.33 420.98,146.43 420.98,161.43" fill="#88cd93"/>
<polygon points="420.98,161.43 420.98,146.43 432.26,142.33 432.26,157.33" fill="#72ac7c"/>
<polygon points="289.43,135.23 300.70,139.33 289.43,143.43 278.15,139.33" fill="#40c463"/>
<polygon points="278.15,157.33 278.15,139.33 289.43,143.43 289.43,161.43" fill="#38ac57"/>
<polygon points="289.43,161.43 289.43,143.43 300.70,139.33 300.70,157.33" fill="#2f9149"/>
<polygon points="342.05,135.23 353.32,139.33 342.05,143.43 330.77,139.33" fill="#40c463"/>
<polygon points="330.77,157.33 330.77,139.33 342.05,143.43 342.05,161.43" fill="#38ac57"/>
<polygon points="342.05,161.43 342.05,143.43 353.32,139.33 353.32,157.33" fill="#2f9149"/>
<polygon points="394.67,135.23 405.95,139.33 394.67,143.43 383.39,139.33" fill="#216e39"/>
<polygon points="383.39,157.33 383.39,139.33 394.67,143.43 394.67,161.43" fill="#1d6032"/>
<polygon points="394.67,161.43 394.67,143.43 405.95,139.33 405.95,157.33" fill="#18512a"/>
<polygon points="328.89,158.01 340.17,162.12 328.89,166.22 317.62,162.12" fill="#ebedf0"/>
<polygon points="276.27,141.01 287.55,145.12 276.27,149.22 264.99,145.12" fill="#9be9a8"/>
<polygon points="264.99,162.12 264.99,145.12 276.27,149.22 276.27,166.22" fill="#88cd93"/>
<polygon points="276.27,166.22 276.27,149.22 287.55,145.12 287.55,162.12" fill="#72ac7c"/>
<polygon points="355.20,142.01 366.48,146.12 355.20,150.22 343.93,146.12" fill="#9be9a8"/>
<polygon points="343.93,162.12 343.93,146.12 355.20,150.22 355.20,166.22" fill="#88cd93"/>
<polygon points="355.20,166.22 355.20,150.22 366.48,146.12 366.48,162.12" fill="#72ac7c"/>
<polygon points="434.14,150.01 445.41,154.12 434.14,158.22 422.86,154.12" fill="#9be9a8"/>
<polygon points="422.86,162.12 422.86,154.12 434.14,158.22 434.14,166.22" fill="#88cd93"/>
<polygon points="434.14,166.22 434.14,158.22 445.41,154.12 445.41,162.12" fill="#72ac7c"/>
<polygon points="302.58,140.01 313.86,144.12 302.58,148.22 291.30,144.12" fill="#40c463"/>
<polygon points="291.30,162.12 291.30,144.12 302.58,148.22 302.58,166.22" fill="#38ac57"/>
<polygon points="302.58,166.22 302.58,148.22 313.86,144.12 313.86,162.12" fill="#2f9149"/>
<polygon points="407.83,140.01 419.10,144.12 407.83,148.22 396.55,144.12" fill="#40c463"/>
<polygon points="396.55,162.12 396.55,144.12 407.83,148.22 407.83,166.22" fill="#38ac57"/>
<polygon points="407.83,166.22 407.83,148.22 419.10,144.12 419.10,162.12" fill="#2f9149"/>
<polygon points="381.52,140.01 392.79,144.12 381.52,148.22 370.24,144.12" fill="#30a14e"/>
<polygon points="370.24,162.12 370.24,144.12 381.52,148.22 381.52,166.22" fill="#2a8d44"/>
<polygon points="381.52,166.22 381.52,148.22 392.79,144.12 392.79,162.12" fill="#237739"/>
<polygon points="368.36,162.80 379.64,166.91 368.36,171.01 357.08,166.91" fill="#ebedf0"/>
<polygon points="447.29,162.80 458.57,166.91 447.29,171.01 436.02,166.91" fill="#ebedf0"/>
<polygon points="420.98,151.80 432.26,155.91 420.98,160.01 409.71,155.91" fill="#9be9a8"/>
<polygon points="409.71,166.91 409.71,155.91 420.98,160.01 420.98,171.01" fill="#88cd93"/>
<polygon points="420.98,171.01 420.98,160.01 432.26,155.91 432.26,166.91" fill="#72ac7c"/>
<polygon points="315.74,144.80 327.01,148.91 315.74,153.01 304.46,148.91" fill="#40c463"/>
<polygon points="304.46,166.91 304.46,148.91 315.74,153.01 315.74,171.01" fill="#38ac57"/>
<polygon points="315.74,171.01 315.74,153.01 327.01,148.91 327.01,166.91" fill="#2f9149"/>
<polygon points="289.43,144.80 300.70,148.91 289.43,153.01 278.15,148.91" fill="#216e39"/>
<polygon points="278.15,166.91 278.15,148.91 289.43,153.01 289.43,171.01" fill="#1d6032"/>
<polygon points="289.43,171.01 289.43,153.01 300.70,148.91 300.70,166.91" fill="#18512a"/>
<polygon points="342.05,144.80 353.32,148.91 342.05,153.01 330.77,148.91" fill="#216e39"/>
<polygon points="330.77,166.91 330.77,148.91 342.05,153.01 342.05,171.01" fill="#1d6032"/>
<polygon points="342.05,171.01 342.05,153.01 353.32,148.91 353.32,166.91" fill="#18512a"/>
<polygon points="394.67,144.80 405.95,148.91 394.67,153.01 383.39,148.91" fill="#216e39"/>
<polygon points="383.39,166.91 383.39,148.91 394.67,153.01 394.67,171.01" fill="#1d6032"/>
<polygon points="394.67,171.01 394.67,153.01 405.95,148.91 405.95,166.91" fill="#18512a"/>
<polygon points="302.58,167.59 313.86,171.69 302.58,175.80 291.30,171.69" fill="#ebedf0"/>
<polygon points="460.45,167.59 471.73,171.69 460.45,175.80 449.17,171.69" fill="#ebedf0"/>
<polygon points="355.20,159.59 366.48,163.69 355.20,167.80 343.93,163.69" fill="#9be9a8"/>
<polygon points="343.93,171.69 343.93,163.69 355.20,167.80 355.20,175.80" fill="#88cd93"/>
<polygon points="355.20,175.80 355.20,167.80 366.48,163.69 366.48,171.69" fill="#72ac7c"/>
<polygon points="407.83,154.59 419.10,158.69 407.83,162.80 396.55,158.69" fill="#9be9a8"/>
<polygon points="396.55,171.69 396.55,158.69 407.83,162.80 407.83,175.80" fill="#88cd93"/>
<polygon points="407.83,175.80 407.83,162.80 419.10,158.69 419.10,171.69" fill="#72ac7c"/>
<polygon points="434.14,152.59 445.41,156.69 434.14,160.80 422.86,156.69" fill="#9be9a8"/>
<polygon points="422.86,171.69 422.86,156.69 434.14,160.80 434.14,175.80" fill="#88cd93"/>
<polygon points="434.14,175.80 434.14,160.80 445.41,156.69 445.41,171.69" fill="#72ac7c"/>
<polygon points="328.89,149.59 340.17,153.69 328.89,157.80 317.62,153.69" fill="#40c463"/>
<polygon points="317.62,171.69 317.62,153.69 328.89,157.80 328.89,175.80" fill="#38ac57"/>
<polygon points="328.89,175.80 328.89,157.80 340.17,153.69 340.17,171.69" fill="#2f9149"/>
<polygon points="381.52,149.59 392.79,153.69 381.52,157.80 370.24,153.69" fill="#40c463"/>
<polygon points="370.24,171.69 370.24,153.69 381.52,157.80 381.52,175.80" fill="#38ac57"/>
<polygon points="381.52,175.80 381.52,157.80 392.79,153.69 392.79,171.69" fill="#2f9149"/>
<polygon points="473.61,172.38 484.88,176.48 473.61,180.59 462.33,176.48" fill="#ebedf0"/>
<polygon points="368.36,164.38 379.64,168.48 368.36,172.59 357.08,168.48" fill="#9be9a8"/>
<polygon points="357.08,176.48 357.08,168.48 368.36,172.59 368.36,180.59" fill="#88cd93"/>
<polygon points="368.36,180.59 368.36,172.59 379.64,168.48 379.64,176.48" fill="#72ac7c"/>
<polygon points="420.98,158.38 432.26,162.48 420.98,166.59 409.71,162.48" fill="#9be9a8"/>
<polygon points="409.71,176.48 409.71,162.48 420.98,166.59 420.98,180.59" fill="#88cd93"/>
<polygon points="420.98,180.59 420.98,166.59 432.26,162.48 432.26,176.48" fill="#72ac7c"/>
<polygon points="447.29,164.38 458.57,168.48 447.29,172.59 436.02,168.48" fill="#9be9a8"/>
<polygon points="436.02,176.48 436.02,168.48 447.29,172.59 447.29,180.59" fill="#88cd93"/>
<polygon points="447.29,180.59 447.29,172.59 458.57,168.48 458.57,176.48" fill="#72ac7c"/>
<polygon points="315.74,154.38 327.01,158.48 315.74,162.59 304.46,158.48" fill="#30a14e"/>
<polygon points="304.46,176.48 304.46,158.48 315.74,162.59 315.74,180.59" fill="#2a8d44"/>
<polygon points="315.74,180.59 315.74,162.59 327.01,158.48 327.01,176.48" fill="#237739"/>
<polygon points="342.05,154.38 353.32,158.48 342.05,162.59 330.77,158.48" fill="#30a14e"/>
<polygon points="330.77,176.48 330.77,158.48 342.05,162.59 342.05,180.59" fill="#2a8d44"/>
<polygon points="342.05,180.59 342.05,162.59 353.32,158.48 353.32,176.48" fill="#237739"/>
<polygon points="394.67,154.38 405.95,158.48 394.67,162.59 383.39,158.48" fill="#216e39"/>
<polygon points="383.39,176.48 383.39,158.48 394.67,162.59 394.67,180.59" fill="#1d6032"/>
<polygon points="394.67,180.59 394.67,162.59 405.95,158.48 405.95,176.48" fill="#18512a"/>
<polygon points="486.76,177.17 498.04,181.27 486.76,185.37 475.48,181.27" fill="#ebedf0"/>
<polygon points="328.89,166.17 340.17,170.27 328.89,174.37 317.62,170.27" fill="#9be9a8"/>
<polygon points="317.62,181.27 317.62,170.27 328.89,174.37 328.89,185.37" fill="#88cd93"/>
<polygon points="328.89,185.37 328.89,174.37 340.17,170.27 340.17,181.27" fill="#72ac7c"/>
<polygon points="355.20,169.17 366.48,173.27 355.20,177.37 343.93,173.27" fill="#9be9a8"/>
<polygon points="343.93,181.27 343.93,173.27 355.20,177.37 355.20,185.37" fill="#88cd93"/>
<polygon points="355.20,185.37 355.20,177.37 366.48,173.27 366.48,181.27" fill="#72ac7c"/>
<polygon points="407.83,169.17 419.10,173.27 407.83,177.37 396.55,173.27" fill="#9be9a8"/>
<polygon points="396.55,181.27 396.55,173.27 407.83,177.37 407.83,185.37" fill="#88cd93"/>
<polygon points="407.83,185.37 407.83,177.37 419.10,173.27 419.10,181.27" fill="#72ac7c"/>
<polygon points="434.14,169.17 445.41,173.27 434.14,177.37 422.86,173.27" fill="#9be9a8"/>
<polygon points="422.86,181.27 422.86,173.27 434.14,177.37 434.14,185.37" fill="#88cd93"/>
<polygon points="434.14,185.37 434.14,177.37 445.41,173.27 445.41,181.27" fill="#72ac7c"/>
<polygon points="460.45,166.17 471.73,170.27 460.45,174.37 449.17,170.27" fill="#9be9a8"/>
<polygon points="449.17,181.27 449.17,170.27 460.45,174.37 460.45,185.37" fill="#88cd93"/>
<polygon points="460.45,185.37 460.45,174.37 471.73,170.27 471.73,181.27" fill="#72ac7c"/>
<polygon points="381.52,159.17 392.79,163.27 381.52,167.37 370.24,163.27" fill="#216e39"/>
<polygon points="370.24,181.27 370.24,163.27 381.52,167.37 381.52,185.37" fill="#1d6032"/>
<polygon points="381.52,185.37 381.52,167.37 392.79,163.27 392.79,181.27" fill="#18512a"/>
<polygon points="342.05,181.95 353.32,186.06 342.05,190.16 330.77,186.06" fill="#ebedf0"/>
<polygon points="420.98,181.95 432.26,186.06 420.98,190.16 409.71,186.06" fill="#ebedf0"/>
<polygon points="499.92,181.95 511.19,186.06 499.92,190.16 488.64,186.06" fill="#ebedf0"/>
<polygon points="368.36,163.95 379.64,168.06 368.36,172.16 357.08,168.06" fill="#9be9a8"/>
<polygon points="357.08,186.06 357.08,168.06 368.36,172.16 368.36,190.16" fill="#88cd93"/>
<polygon points="368.36,190.16 368.36,172.16 379.64,168.06 379.64,186.06" fill="#72ac7c"/>
<polygon points="394.67,163.95 405.95,168.06 394.67,172.16 383.39,168.06" fill="#40c463"/>
<polygon points="383.39,186.06 383.39,168.06 394.67,172.16 394.67,190.16" fill="#38ac57"/>
<polygon points="394.67,190.16 394.67,172.16 405.95,168.06 405.95,186.06" fill="#2f9149"/>
<polygon points="447.29,163.95 458.57,168.06 447.29,172.16 436.02,168.06" fill="#40c463"/>
<polygon points="436.02,186.06 436.02,168.06 447.29,172.16 447.29,190.16" fill="#38ac57"/>
<polygon points="447.29,190.16 447.29,172.16 458.57,168.06 458.57,186.06" fill="#2f9149"/>
<polygon points="473.61,163.95 484.88,168.06 473.61,172.16 462.33,168.06" fill="#40c463"/>
<polygon points="462.33,186.06 462.33,168.06 473.61,172.16 473.61,190.16" fill="#38ac57"/>
<polygon points="473.61,190.16 473.61,172.16 484.88,168.06 484.88,186.06" fill="#2f9149"/>
<polygon points="355.20,186.74 366.48,190.85 355.20,194.95 343.93,190.85" fill="#ebedf0"/>
<polygon points="407.83,186.74 419.10,190.85 407.83,194.95 396.55,190.85" fill="#ebedf0"/>
<polygon points="460.45,186.74 471.73,190.85 460.45,194.95 449.17,190.85" fill="#ebedf0"/>
<polygon points="513.07,186.74 524.35,190.85 513.07,194.95 501.80,190.85" fill="#ebedf0"/>
<polygon points="381.52,170.74 392.79,174.85 381.52,178.95 370.24,174.85" fill="#9be9a8"/>
<polygon points="370.24,190.85 370.24,174.85 381.52,178.95 381.52,194.95" fill="#88cd93"/>
<polygon points="381.52,194.95 381.52,178.95 392.79,174.85 392.79,190.85" fill="#72ac7c"/>
<polygon points="486.76,175.74 498.04,179.85 486.76,183.95 475.48,179.85" fill="#9be9a8"/>
<polygon points="475.48,190.85 475.48,179.85 486.76,183.95 486.76,194.95" fill="#88cd93"/>
<polygon points="486.76,194.95 486.76,183.95 498.04,179.85 498.04,190.85" fill="#72ac7c"/>
<polygon points="434.14,168.74 445.41,172.85 434.14,176.95 422.86,172.85" fill="#40c463"/>
<polygon points="422.86,190.85 422.86,172.85 434.14,176.95 434.14,194.95" fill="#38ac57"/>
<polygon points="434.14,194.95 434.14,176.95 445.41,172.85 445.41,190.85" fill="#2f9149"/>
<polygon points="420.98,191.53 432.26,195.64 420.98,199.74 409.71,195.64" fill="#ebedf0"/>
<polygon points="447.29,191.53 458.57,195.64 447.29,199.74 436.02,195.64" fill="#ebedf0"/>
<polygon points="368.36,175.53 379.64,179.64 368.36,183.74 357.08,179.64" fill="#9be9a8"/>
<polygon points="357.08,195.64 357.08,179.64 368.36,183.74 368.36,199.74" fill="#88cd93"/>
<polygon points="368.36,199.74 368.36,183.74 379.64,179.64 379.64,195.64" fill="#72ac7c"/>
<polygon points="394.67,178.53 405.95,182.64 394.67,186.74 383.39,182.64" fill="#9be9a8"/>
<polygon points="383.39,195.64 383.39,182.64 394.67,186.74 394.67,199.74" fill="#88cd93"/>
<polygon points="394.67,199.74 394.67,186.74 405.95,182.64 405.95,195.64" fill="#72ac7c"/>
<polygon points="473.61,178.53 484.88,182.64 473.61,186.74 462.33,182.64" fill="#9be9a8"/>
<polygon points="462.33,195.64 462.33,182.64 473.61,186.74 473.61,199.74" fill="#88cd93"/>
<polygon points="473.61,199.74 473.61,186.74 484.88,182.64 484.88,195.64" fill="#72ac7c"/>
<polygon points="526.23,183.53 537.50,187.64 526.23,191.74 514.95,187.64" fill="#9be9a8"/>
<polygon points="514.95,195.64 514.95,187.64 526.23,191.74 526.23,199.74" fill="#88cd93"/>
<polygon points="526.23,199.74 526.23,191.74 537.50,187.64 537.50,195.64" fill="#72ac7c"/>
<polygon points="499.92,173.53 511.19,177.64 499.92,181.74 488.64,177.64" fill="#30a14e"/>
<polygon points="488.64,195.64 488.64,177.64 499.92,181.74 499.92,199.74" fill="#2a8d44"/>
<polygon points="499.92,199.74 499.92,181.74 511.19,177.64 511.19,195.64" fill="#237739"/>
<polygon points="407.83,196.32 419.10,200.42 407.83,204.53 396.55,200.42" fill="#ebedf0"/>
<polygon points="434.14,196.32 445.41,200.42 434.14,204.53 422.86,200.42" fill="#ebedf0"/>
<polygon points="460.45,196.32 471.73,200.42 460.45,204.53 449.17,200.42" fill="#ebedf0"/>
<polygon points="381.52,178.32 392.79,182.42 381.52,186.53 370.24,182.42" fill="#9be9a8"/>
<polygon points="370.24,200.42 370.24,182.42 381.52,186.53 381.52,204.53" fill="#88cd93"/>
<polygon points="381.52,204.53 381.52,186.53 392.79,182.42 392.79,200.42" fill="#72ac7c"/>
<polygon points="486.76,180.32 498.04,184.42 486.76,188.53 475.48,184.42" fill="#9be9a8"/>
<polygon points="475.48,200.42 475.48,184.42 486.76,188.53 486.76,204.53" fill="#88cd93"/>
<polygon points="486.76,204.53 486.76,188.53 498.04,184.42 498.04,200.42" fill="#72ac7c"/>
<polygon points="513.07,188.32 524.35,192.42 513.07,196.53 501.80,192.42" fill="#9be9a8"/>
<polygon points="501.80,200.42 501.80,192.42 513.07,196.53 513.07,204.53" fill="#88cd93"/>
<polygon points="513.07,204.53 513.07,196.53 524.35,192.42 524.35,200.42" fill="#72ac7c"/>
<polygon points="539.38,185.32 550.66,189.42 539.38,193.53 528.11,189.42" fill="#9be9a8"/>
<polygon points="528.11,200.42 528.11,189.42 539.38,193.53 539.38,204.53" fill="#88cd93"/>
<polygon points="539.38,204.53 539.38,193.53 550.66,189.42 550.66,200.42" fill="#72ac7c"/>
<polygon points="394.67,201.11 405.95,205.21 394.67,209.32 383.39,205.21" fill="#ebedf0"/>
<polygon points="420.98,201.11 432.26,205.21 420.98,209.32 409.71,205.21" fill="#ebedf0"/>
<polygon points="447.29,190.11 458.57,194.21 447.29,198.32 436.02,194.21" fill="#9be9a8"/>
<polygon points="436.02,205.21 436.02,194.21 447.29,198.32 447.29,209.32" fill="#88cd93"/>
<polygon points="447.29,209.32 447.29,198.32 458.57,194.21 458.57,205.21" fill="#72ac7c"/>
<polygon points="552.54,185.11 563.82,189.21 552.54,193.32 541.26,189.21" fill="#9be9a8"/>
<polygon points="541.26,205.21 541.26,189.21 552.54,193.32 552.54,209.32" fill="#88cd93"/>
<polygon points="552.54,209.32 552.54,193.32 563.82,189.21 563.82,205.21" fill="#72ac7c"/>
<polygon points="473.61,183.11 484.88,187.21 473.61,191.32 462.33,187.21" fill="#40c463"/>
<polygon points="462.33,205.21 462.33,187.21 473.61,191.32 473.61,209.32" fill="#38ac57"/>
<polygon points="473.61,209.32 473.61,191.32 484.88,187.21 484.88,205.21" fill="#2f9149"/>
<polygon points="526.23,183.11 537.50,187.21 526.23,191.32 514.95,187.21" fill="#40c463"/>
<polygon points="514.95,205.21 514.95,187.21 526.23,191.32 526.23,209.32" fill="#38ac57"/>
<polygon points="526.23,209.32 526.23,191.32 537.50,187.21 537.50,205.21" fill="#2f9149"/>
<polygon points="499.92,183.11 511.19,187.21 499.92,191.32 488.64,187.21" fill="#30a14e"/>
<polygon points="488.64,205.21 488.64,187.21 499.92,191.32 499.92,209.32" fill="#2a8d44"/>
<polygon points="499.92,209.32 499.92,191.32 511.19,187.21 511.19,205.21" fill="#237739"/>
<polygon points="407.83,205.90 419.10,210.00 407.83,214.10 396.55,210.00" fill="#ebedf0"/>
<polygon points="513.07,205.90 524.35,210.00 513.07,214.10 501.80,210.00" fill="#ebedf0"/>
<polygon points="565.69,205.90 576.97,210.00 565.69,214.10 554.42,210.00" fill="#ebedf0"/>
<polygon points="434.14,191.90 445.41,196.00 434.14,200.10 422.86,196.00" fill="#9be9a8"/>
<polygon points="422.86,210.00 422.86,196.00 434.14,200.10 434.14,214.10" fill="#88cd93"/>
<polygon points="434.14,214.10 434.14,200.10 445.41,196.00 445.41,210.00" fill="#72ac7c"/>
<polygon points="486.76,187.90 498.04,192.00 486.76,196.10 475.48,192.00" fill="#40c463"/>
<polygon points="475.48,210.00 475.48,192.00 486.76,196.10 486.76,214.10" fill="#38ac57"/>
<polygon points="486.76,214.10 486.76,196.10 498.04,192.00 498.04,210.00" fill="#2f9149"/>
<polygon points="539.38,187.90 550.66,192.00 539.38,196.10 528.11,192.00" fill="#40c463"/>
<polygon points="528.11,210.00 528.11,192.00 539.38,196.10 539.38,214.10" fill="#38ac57"/>
<polygon points="539.38,214.10 539.38,196.10 550.66,192.00 550.66,210.00" fill="#2f9149"/>
<polygon points="460.45,187.90 471.73,192.00 460.45,196.10 449.17,192.00" fill="#30a14e"/>
<polygon points="449.17,210.00 449.17,192.00 460.45,196.10 460.45,214.10" fill="#2a8d44"/>
<polygon points="460.45,214.10 460.45,196.10 471.73,192.00 471.73,210.00" fill="#237739"/>
<polygon points="420.98,210.68 432.26,214.79 420.98,218.89 409.71,214.79" fill="#ebedf0"/>
<polygon points="578.85,210.68 590.13,214.79 578.85,218.89 567.57,214.79" fill="#ebedf0"/>
<polygon points="447.29,199.68 458.57,203.79 447.29,207.89 436.02,203.79" fill="#9be9a8"/>
<polygon points="436.02,214.79 436.02,203.79 447.29,207.89 447.29,218.89" fill="#88cd93"/>
<polygon points="447.29,218.89 447.29,207.89 458.57,203.79 458.57,214.79" fill="#72ac7c"/>
<polygon points="499.92,199.68 511.19,203.79 499.92,207.89 488.64,203.79" fill="#9be9a8"/>
<polygon points="488.64,214.79 488.64,203.79 499.92,207.89 499.92,218.89" fill="#88cd93"/>
<polygon points="499.92,218.89 499.92,207.89 511.19,203.79 511.19,214.79" fill="#72ac7c"/>
<polygon points="552.54,195.68 563.82,199.79 552.54,203.89 541.26,199.79" fill="#9be9a8"/>
<polygon points="541.26,214.79 541.26,199.79 552.54,203.89 552.54,218.89" fill="#88cd93"/>
<polygon points="552.54,218.89 552.54,203.89 563.82,199.79 563.82,214.79" fill="#72ac7c"/>
<polygon points="473.61,192.68 484.88,196.79 473.61,200.89 462.33,196.79" fill="#40c463"/>
<polygon points="462.33,214.79 462.33,196.79 473.61,200.89 473.61,218.89" fill="#38ac57"/>
<polygon points="473.61,218.89 473.61,200.89 484.88,196.79 484.88,214.79" fill="#2f9149"/>
<polygon points="526.23,192.68 537.50,196.79 526.23,200.89 514.95,196.79" fill="#40c463"/>
<polygon points="514.95,214.79 514.95,196.79 526.23,200.89 526.23,218.89" fill="#38ac57"/>
<polygon points="526.23,218.89 526.23,200.89 537.50,196.79 537.50,214.79" fill="#2f9149"/>
<polygon points="434.14,215.47 445.41,219.58 434.14,223.68 422.86,219.58" fill="#ebedf0"/>
<polygon points="592.01,215.47 603.28,219.58 592.01,223.68 580.73,219.58" fill="#ebedf0"/>
<polygon points="486.76,201.47 498.04,205.58 486.76,209.68 475.48,205.58" fill="#9be9a8"/>
<polygon points="475.48,219.58 475.48,205.58 486.76,209.68 486.76,223.68" fill="#88cd93"/>
<polygon points="486.76,223.68 486.76,209.68 498.04,205.58 498.04,219.58" fill="#72ac7c"/>
<polygon points="539.38,199.47 550.66,203.58 539.38,207.68 528.11,203.58" fill="#9be9a8"/>
<polygon points="528.11,219.58 528.11,203.58 539.38,207.68 539.38,223.68" fill="#88cd93"/>
<polygon points="539.38,223.68 539.38,207.68 550.66,203.58 550.66,219.58" fill="#72ac7c"/>
<polygon points="565.69,204.47 576.97,208.58 565.69,212.68 554.42,208.58" fill="#9be9a8"/>
<polygon points="554.42,219.58 554.42,208.58 565.69,212.68 565.69,223.68" fill="#88cd93"/>
<polygon points="565.69,223.68 565.69,212.68 576.97,208.58 576.97,219.58" fill="#72ac7c"/>
<polygon points="460.45,197.47 471.73,201.58 460.45,205.68 449.17,201.58" fill="#40c463"/>
<polygon points="449.17,219.58 449.17,201.58 460.45,205.68 460.45,223.68" fill="#38ac57"/>
<polygon points="460.45,223.68 460.45,205.68 471.73,201.58 471.73,219.58" fill="#2f9149"/>
<polygon points="513.07,197.47 524.35,201.58 513.07,205.68 501.80,201.58" fill="#40c463"/>
<polygon points="501.80,219.58 501.80,201.58 513.07,205.68 513.07,223.68" fill="#38ac57"/>
<polygon points="513.07,223.68 513.07,205.68 524.35,201.58 524.35,219.58" fill="#2f9149"/>
<polygon points="447.29,212.26 458.57,216.37 447.29,220.47 436.02,216.37" fill="#9be9a8"/>
<polygon points="436.02,224.37 436.02,216.37 447.29,220.47 447.29,228.47" fill="#88cd93"/>
<polygon points="447.29,228.47 447.29,220.47 458.57,216.37 458.57,224.37" fill="#72ac7c"/>
<polygon points="473.61,207.26 484.88,211.37 473.61,215.47 462.33,211.37" fill="#9be9a8"/>
<polygon points="462.33,224.37 462.33,211.37 473.61,215.47 473.61,228.47" fill="#88cd93"/>
<polygon points="473.61,228.47 473.61,215.47 484.88,211.37 484.88,224.37" fill="#72ac7c"/>
<polygon points="499.92,212.26 511.19,216.37 499.92,220.47 488.64,216.37" fill="#9be9a8"/>
<polygon points="488.64,224.37 488.64,216.37 499.92,220.47 499.92,228.47" fill="#88cd93"/>
<polygon points="499.92,228.47 499.92,220.47 511.19,216.37 511.19,224.37" fill="#72ac7c"/>
<polygon points="552.54,204.26 563.82,208.37 552.54,212.47 541.26,208.37" fill="#9be9a8"/>
<polygon points="541.26,224.37 541.26,208.37 552.54,212.47 552.54,228.47" fill="#88cd93"/>
<polygon points="552.54,228.47 552.54,212.47 563.82,208.37 563.82,224.37" fill="#72ac7c"/>
<polygon points="578.85,204.26 590.13,208.37 578.85,212.47 567.57,208.37" fill="#9be9a8"/>
<polygon points="567.57,224.37 567.57,208.37 578.85,212.47 578.85,228.47" fill="#88cd93"/>
<polygon points="578.85,228.47 578.85,212.47 590.13,208.37 590.13,224.37" fill="#72ac7c"/>
<polygon points="605.16,212.26 616.44,216.37 605.16,220.47 593.89,216.37" fill="#9be9a8"/>
<polygon points="593.89,224.37 593.89,216.37 605.16,220.47 605.16,228.47" fill="#88cd93"/>
<polygon points="605.16,228.47 605.16,220.47 616.44,216.37 616.44,224.37" fill="#72ac7c"/>
<polygon points="526.23,202.26 537.50,206.37 526.23,210.47 514.95,206.37" fill="#40c463"/>
<polygon points="514.95,224.37 514.95,206.37 526.23,210.47 526.23,228.47" fill="#38ac57"/>
<polygon points="526.23,228.47 526.23,210.47 537.50,206.37 537.50,224.37" fill="#2f9149"/>
<polygon points="618.32,225.05 629.59,229.15 618.32,233.26 607.04,229.15" fill="#ebedf0"/>
<polygon points="460.45,210.05 471.73,214.15 460.45,218.26 449.17,214.15" fill="#9be9a8"/>
<polygon points="449.17,229.15 449.17,214.15 460.45,218.26 460.45,233.26" fill="#88cd93"/>
<polygon points="460.45,233.26 460.45,218.26 471.73,214.15 471.73,229.15" fill="#72ac7c"/>
<polygon points="486.76,214.05 498.04,218.15 486.76,222.26 475.48,218.15" fill="#9be9a8"/>
<polygon points="475.48,229.15 475.48,218.15 486.76,222.26 486.76,233.26" fill="#88cd93"/>
<polygon points="486.76,233.26 486.76,222.26 498.04,218.15 498.04,229.15" fill="#72ac7c"/>
<polygon points="513.07,207.05 524.35,211.15 513.07,215.26 501.80,211.15" fill="#9be9a8"/>
<polygon points="501.80,229.15 501.80,211.15 513.07,215.26 513.07,233.26" fill="#88cd93"/>
<polygon points="513.07,233.26 513.07,215.26 524.35,211.15 524.35,229.15" fill="#72ac7c"/>
<polygon points="539.38,209.05 550.66,213.15 539.38,217.26 528.11,213.15" fill="#9be9a8"/>
<polygon points="528.11,229.15 528.11,213.15 539.38,217.26 539.38,233.26" fill="#88cd93"/>
<polygon points="539.38,233.26 539.38,217.26 550.66,213.15 550.66,229.15" fill="#72ac7c"/>
<polygon points="592.01,214.05 603.28,218.15 592.01,222.26 580.73,218.15" fill="#9be9a8"/>
<polygon points="580.73,229.15 580.73,218.15 592.01,222.26 592.01,233.26" fill="#88cd93"/>
<polygon points="592.01,233.26 592.01,222.26 603.28,218.15 603.28,229.15" fill="#72ac7c"/>
<polygon points="565.69,207.05 576.97,211.15 565.69,215.26 554.42,211.15" fill="#40c463"/>
<polygon points="554.42,229.15 554.42,211.15 565.69,215.26 565.69,233.26" fill="#38ac57"/>
<polygon points="565.69,233.26 565.69,215.26 576.97,211.15 576.97,229.15" fill="#2f9149"/>
<polygon points="473.61,229.84 484.88,233.94 473.61,238.05 462.33,233.94" fill="#ebedf0"/>
<polygon points="499.92,212.84 511.19,216.94 499.92,221.05 488.64,216.94" fill="#9be9a8"/>
<polygon points="488.64,233.94 488.64,216.94 499.92,221.05 499.92,238.05" fill="#88cd93"/>
<polygon points="499.92,238.05 499.92,221.05 511.19,216.94 511.19,233.94" fill="#72ac7c"/>
<polygon points="578.85,213.84 590.13,217.94 578.85,222.05 567.57,217.94" fill="#9be9a8"/>
<polygon points="567.57,233.94 567.57,217.94 578.85,222.05 578.85,238.05" fill="#88cd93"/>
<polygon points="578.85,238.05 578.85,222.05 590.13,217.94 590.13,233.94" fill="#72ac7c"/>
<polygon points="605.16,218.84 616.44,222.94 605.16,227.05 593.89,222.94" fill="#9be9a8"/>
<polygon points="593.89,233.94 593.89,222.94 605.16,227.05 605.16,238.05" fill="#88cd93"/>
<polygon points="605.16,238.05 605.16,227.05 616.44,222.94 616.44,233.94" fill="#72ac7c"/>
<polygon points="631.47,218.84 642.75,222.94 631.47,227.05 620.20,222.94" fill="#9be9a8"/>
<polygon points="620.20,233.94 620.20,222.94 631.47,227.05 631.47,238.05" fill="#88cd93"/>
<polygon points="631.47,238.05 631.47,227.05 642.75,222.94 642.75,233.94" fill="#72ac7c"/>
<polygon points="526.23,211.84 537.50,215.94 526.23,220.05 514.95,215.94" fill="#40c463"/>
<polygon points="514.95,233.94 514.95,215.94 526.23,220.05 526.23,238.05" fill="#38ac57"/>
<polygon points="526.23,238.05 526.23,220.05 537.50,215.94 537.50,233.94" fill="#2f9149"/>
<polygon points="552.54,211.84 563.82,215.94 552.54,220.05 541.26,215.94" fill="#30a14e"/>
<polygon points="541.26,233.94 541.26,215.94 552.54,220.05 552.54,238.05" fill="#2a8d44"/>
<polygon points="552.54,238.05 552.54,220.05 563.82,215.94 563.82,233.94" fill="#237739"/>
<polygon points="513.07,234.63 524.35,238.73 513.07,242.83 501.80,238.73" fill="#ebedf0"/>
<polygon points="644.63,234.63 655.91,238.73 644.63,242.83 633.35,238.73" fill="#ebedf0"/>
<polygon points="486.76,226.63 498.04,230.73 486.76,234.83 475.48,230.73" fill="#9be9a8"/>
<polygon points="475.48,238.73 475.48,230.73 486.76,234.83 486.76,242.83" fill="#88cd93"/>
<polygon points="486.76,242.83 486.76,234.83 498.04,230.73 498.04,238.73" fill="#72ac7c"/>
<polygon points="539.38,216.63 550.66,220.73 539.38,224.83 528.11,220.73" fill="#9be9a8"/>
<polygon points="528.11,238.73 528.11,220.73 539.38,224.83 539.38,242.83" fill="#88cd93"/>
<polygon points="539.38,242.83 539.38,224.83 550.66,220.73 550.66,238.73" fill="#72ac7c"/>
<polygon points="565.69,217.63 576.97,221.73 565.69,225.83 554.42,221.73" fill="#9be9a8"/>
<polygon points="554.42,238.73 554.42,221.73 565.69,225.83 565.69,242.83" fill="#88cd93"/>
<polygon points="565.69,242.83 565.69,225.83 576.97,221.73 576.97,238.73" fill="#72ac7c"/>
<polygon points="592.01,216.63 603.28,220.73 592.01,224.83 580.73,220.73" fill="#30a14e"/>
<polygon points="580.73,238.73 580.73,220.73 592.01,224.83 592.01,242.83" fill="#2a8d44"/>
<polygon points="592.01,242.83 592.01,224.83 603.28,220.73 603.28,238.73" fill="#237739"/>
<polygon points="618.32,216.63 629.59,220.73 618.32,224.83 607.04,220.73" fill="#30a14e"/>
<polygon points="607.04,238.73 607.04,220.73 618.32,224.83 618.32,242.83" fill="#2a8d44"/>
<polygon points="618.32,242.83 618.32,224.83 629.59,220.73 629.59,238.73" fill="#237739"/>
<polygon points="499.92,239.41 511.19,243.52 499.92,247.62 488.64,243.52" fill="#ebedf0"/>
<polygon points="657.78,239.41 669.06,243.52 657.78,247.62 646.51,243.52" fill="#ebedf0"/>
<polygon points="526.23,225.41 537.50,229.52 526.23,233.62 514.95,229.52" fill="#9be9a8"/>
<polygon points="514.95,243.52 514.95,229.52 526.23,233.62 526.23,247.62" fill="#88cd93"/>
<polygon points="526.23,247.62 526.23,233.62 537.50,229.52 537.50,243.52" fill="#72ac7c"/>
<polygon points="552.54,223.41 563.82,227.52 552.54,231.62 541.26,227.52" fill="#9be9a8"/>
<polygon points="541.26,243.52 541.26,227.52 552.54,231.62 552.54,247.62" fill="#88cd93"/>
<polygon points="552.54,247.62 552.54,231.62 563.82,227.52 563.82,243.52" fill="#72ac7c"/>
<polygon points="631.47,224.41 642.75,228.52 631.47,232.62 620.20,228.52" fill="#9be9a8"/>
<polygon points="620.20,243.52 620.20,228.52 631.47,232.62 631.47,247.62" fill="#88cd93"/>
<polygon points="631.47,247.62 631.47,232.62 642.75,228.52 642.75,243.52" fill="#72ac7c"/>
<polygon points="578.85,221.41 590.13,225.52 578.85,229.62 567.57,225.52" fill="#40c463"/>
<polygon points="567.57,243.52 567.57,225.52 578.85,229.62 578.85,247.62" fill="#38ac57"/>
<polygon points="578.85,247.62 578.85,229.62 590.13,225.52 590.13,243.52" fill="#2f9149"/>
<polygon points="605.16,221.41 616.44,225.52 605.16,229.62 593.89,225.52" fill="#40c463"/>
<polygon points="593.89,243.52 593.89,225.52 605.16,229.62 605.16,247.62" fill="#38ac57"/>
<polygon points="605.16,247.62 605.16,229.62 616.44,225.52 616.44,243.52" fill="#2f9149"/>
<polygon points="670.94,244.20 682.22,248.31 670.94,252.41 659.66,248.31" fill="#ebedf0"/>
<polygon points="513.07,231.20 524.35,235.31 513.07,239.41 501.80,235.31" fill="#9be9a8"/>
<polygon points="501.80,248.31 501.80,235.31 513.07,239.41 513.07,252.41" fill="#88cd93"/>
<polygon points="513.07,252.41 513.07,239.41 524.35,235.31 524.35,248.31" fill="#72ac7c"/>
<polygon points="539.38,228.20 550.66,232.31 539.38,236.41 528.11,232.31" fill="#9be9a8"/>
<polygon points="528.11,248.31 528.11,232.31 539.38,236.41 539.38,252.41" fill="#88cd93"/>
<polygon points="539.38,252.41 539.38,236.41 550.66,232.31 550.66,248.31" fill="#72ac7c"/>
<polygon points="618.32,228.20 629.59,232.31 618.32,236.41 607.04,232.31" fill="#9be9a8"/>
<polygon points="607.04,248.31 607.04,232.31 618.32,236.41 618.32,252.41" fill="#88cd93"/>
<polygon points="618.32,252.41 618.32,236.41 629.59,232.31 629.59,248.31" fill="#72ac7c"/>
<polygon points="644.63,229.20 655.91,233.31 644.63,237.41 633.35,233.31" fill="#9be9a8"/>
<polygon points="633.35,248.31 633.35,233.31 644.63,237.41 644.63,252.41" fill="#88cd93"/>
<polygon points="644.63,252.41 644.63,237.41 655.91,233.31 655.91,248.31" fill="#72ac7c"/>
<polygon points="565.69,226.20 576.97,230.31 565.69,234.41 554.42,230.31" fill="#40c463"/>
<polygon points="554.42,248.31 554.42,230.31 565.69,234.41 565.69,252.41" fill="#38ac57"/>
<polygon points="565.69,252.41 565.69,234.41 576.97,230.31 576.97,248.31" fill="#2f9149"/>
<polygon points="592.01,226.20 603.28,230.31 592.01,234.41 580.73,230.31" fill="#40c463"/>
<polygon points="580.73,248.31 580.73,230.31 592.01,234.41 592.01,252.41" fill="#38ac57"/>
<polygon points="592.01,252.41 592.01,234.41 603.28,230.31 603.28,248.31" fill="#2f9149"/>
<polygon points="526.23,248.99 537.50,253.09 526.23,257.20 514.95,253.09" fill="#ebedf0"/>
<polygon points="552.54,248.99 563.82,253.09 552.54,257.20 541.26,253.09" fill="#ebedf0"/>
<polygon points="631.47,232.99 642.75,237.09 631.47,241.20 620.20,237.09" fill="#9be9a8"/>
<polygon points="620.20,253.09 620.20,237.09 631.47,241.20 631.47,257.20" fill="#88cd93"/>
<polygon points="631.47,257.20 631.47,241.20 642.75,237.09 642.75,253.09" fill="#72ac7c"/>
<polygon points="657.78,232.99 669.06,237.09 657.78,241.20 646.51,237.09" fill="#9be9a8"/>
<polygon points="646.51,253.09 646.51,237.09 657.78,241.20 657.78,257.20" fill="#88cd93"/>
<polygon points="657.78,257.20 657.78,241.20 669.06,237.09 669.06,253.09" fill="#72ac7c"/>
<polygon points="684.10,232.99 695.37,237.09 684.10,241.20 672.82,237.09" fill="#9be9a8"/>
<polygon points="672.82,253.09 672.82,237.09 684.10,241.20 684.10,257.20" fill="#88cd93"/>
<polygon points="684.10,257.20 684.10,241.20 695.37,237.09 695.37,253.09" fill="#72ac7c"/>
<polygon points="578.85,230.99 590.13,235.09 578.85,239.20 567.57,235.09" fill="#40c463"/>
<polygon points="567.57,253.09 567.57,235.09 578.85,239.20 578.85,257.20" fill="#38ac57"/>
<polygon points="578.85,257.20 578.85,239.20 590.13,235.09 590.13,253.09" fill="#2f9149"/>
<polygon points="605.16,230.99 616.44,235.09 605.16,239.20 593.89,235.09" fill="#40c463"/>
<polygon points="593.89,253.09 593.89,235.09 605.16,239.20 605.16,257.20" fill="#38ac57"/>
<polygon points="605.16,257.20 605.16,239.20 616.44,235.09 616.44,253.09" fill="#2f9149"/>
<polygon points="539.38,253.78 550.66,257.88 539.38,261.99 528.11,257.88" fill="#ebedf0"/>
<polygon points="592.01,253.78 603.28,257.88 592.01,261.99 580.73,257.88" fill="#ebedf0"/>
<polygon points="618.32,237.78 629.59,241.88 618.32,245.99 607.04,241.88" fill="#9be9a8"/>
<polygon points="607.04,257.88 607.04,241.88 618.32,245.99 618.32,261.99" fill="#88cd93"/>
<polygon points="618.32,261.99 618.32,245.99 629.59,241.88 629.59,257.88" fill="#72ac7c"/>
<polygon points="565.69,235.78 576.97,239.88 565.69,243.99 554.42,239.88" fill="#40c463"/>
<polygon points="554.42,257.88 554.42,239.88 565.69,243.99 565.69,261.99" fill="#38ac57"/>
<polygon points="565.69,261.99 565.69,243.99 576.97,239.88 576.97,257.88" fill="#2f9149"/>
<polygon points="670.94,235.78 682.22,239.88 670.94,243.99 659.66,239.88" fill="#40c463"/>
<polygon points="659.66,257.88 659.66,239.88 670.94,243.99 670.94,261.99" fill="#38ac57"/>
<polygon points="670.94,261.99 670.94,243.99 682.22,239.88 682.22,257.88" fill="#2f9149"/>
<polygon points="644.63,235.78 655.91,239.88 644.63,243.99 633.35,239.88" fill="#30a14e"/>
<polygon points="633.35,257.88 633.35,239.88 644.63,243.99 644.63,261.99" fill="#2a8d44"/>
<polygon points="644.63,261.99 644.63,243.99 655.91,239.88 655.91,257.88" fill="#237739"/>
<polygon points="552.54,244.57 563.82,248.67 552.54,252.78 541.26,248.67" fill="#9be9a8"/>
<polygon points="541.26,262.67 541.26,248.67 552.54,252.78 552.54,266.78" fill="#88cd93"/>
<polygon points="552.54,266.78 552.54,252.78 563.82,248.67 563.82,262.67" fill="#72ac7c"/>
<polygon points="578.85,243.57 590.13,247.67 578.85,251.78 567.57,247.67" fill="#9be9a8"/>
<polygon points="567.57,262.67 567.57,247.67 578.85,251.78 578.85,266.78" fill="#88cd93"/>
<polygon points="578.85,266.78 578.85,251.78 590.13,247.67 590.13,262.67" fill="#72ac7c"/>
<polygon points="605.16,240.57 616.44,244.67 605.16,248.78 593.89,244.67" fill="#9be9a8"/>
<polygon points="593.89,262.67 593.89,244.67 605.16,248.78 605.16,266.78" fill="#88cd93"/>
<polygon points="605.16,266.78 605.16,248.78 616.44,244.67 616.44,262.67" fill="#72ac7c"/>
<polygon points="631.47,244.57 642.75,248.67 631.47,252.78 620.20,248.67" fill="#9be9a8"/>
<polygon points="620.20,262.67 620.20,248.67 631.47,252.78 631.47,266.78" fill="#88cd93"/>
<polygon points="631.47,266.78 631.47,252.78 642.75,248.67 642.75,262.67" fill="#72ac7c"/>
<polygon points="565.69,250.36 576.97,254.46 565.69,258.56 554.42,254.46" fill="#9be9a8"/>
<polygon points="554.42,267.46 554.42,254.46 565.69,258.56 565.69,271.56" fill="#88cd93"/>
<polygon points="565.69,271.56 565.69,258.56 576.97,254.46 576.97,267.46" fill="#72ac7c"/>
<polygon points="592.01,247.36 603.28,251.46 592.01,255.56 580.73,251.46" fill="#9be9a8"/>
<polygon points="580.73,267.46 580.73,251.46 592.01,255.56 592.01,271.56" fill="#88cd93"/>
<polygon points="592.01,271.56 592.01,255.56 603.28,251.46 603.28,267.46" fill="#72ac7c"/>
<polygon points="618.32,245.36 629.59,249.46 618.32,253.56 607.04,249.46" fill="#40c463"/>
<polygon points="607.04,267.46 607.04,249.46 618.32,253.56 618.32,271.56" fill="#38ac57"/>
<polygon points="618.32,271.56 618.32,253.56 629.59,249.46 629.59,267.46" fill="#2f9149"/>
<polygon points="578.85,255.14 590.13,259.25 578.85,263.35 567.57,259.25" fill="#9be9a8"/>
<polygon points="567.57,272.25 567.57,259.25 578.85,263.35 578.85,276.35" fill="#88cd93"/>
<polygon points="578.85,276.35 578.85,263.35 590.13,259.25 590.13,272.25" fill="#72ac7c"/>
<polygon points="605.16,251.14 616.44,255.25 605.16,259.35 593.89,255.25" fill="#9be9a8"/>
<polygon points="593.89,272.25 593.89,255.25 605.16,259.35 605.16,276.35" fill="#88cd93"/>
<polygon points="605.16,276.35 605.16,259.35 616.44,255.25 616.44,272.25" fill="#72ac7c"/>
<polygon points="592.01,254.93 603.28,259.04 592.01,263.14 580.73,259.04" fill="#40c463"/>
<polygon points="580.73,277.04 580.73,259.04 592.01,263.14 592.01,281.14" fill="#38ac57"/>
<polygon points="592.01,281.14 592.01,263.14 603.28,259.04 603.28,277.04" fill="#2f9149"/>
<text x="697.25" y="14.00" text-anchor="end" font-family='-apple-system, BlinkMacSystemFont, "Segoe UI", Helvetica, Arial, sans-serif' font-size="34" font-weight="700" fill="#216e39">2,279</text>
<text x="697.25" y="26.00" text-anchor="end" font-family='-apple-system, BlinkMacSystemFont, "Segoe UI", Helvetica, Arial, sans-serif' font-size="10" fill="#59636e" letter-spacing="0.8">TOTAL CONTRIBUTIONS</text>
<rect x="-92.09" y="228.60" width="12" height="10.70" rx="1" fill="#40c463"/>
<text x="-86.09" y="257.30" text-anchor="middle" font-family='-apple-system, BlinkMacSystemFont, "Segoe UI", Helvetica, Arial, sans-serif' font-size="11" fill="#59636e">S</text>
<rect x="-76.09" y="191.94" width="12" height="47.36" rx="1" fill="#40c463"/>
<text x="-70.09" y="257.30" text-anchor="middle" font-family='-apple-system, BlinkMacSystemFont, "Segoe UI", Helvetica, Arial, sans-serif' font-size="11" fill="#59636e">M</text>
<rect x="-60.09" y="185.30" width="12" height="54.00" rx="1" fill="#216e39"/>
<text x="-54.09" y="257.30" text-anchor="middle" font-family='-apple-system, BlinkMacSystemFont, "Segoe UI", Helvetica, Arial, sans-serif' font-size="11" fill="#59636e">T</text>
<rect x="-44.09" y="185.79" width="12" height="53.51" rx="1" fill="#40c463"/>
<text x="-38.09" y="257.30" text-anchor="middle" font-family='-apple-system, BlinkMacSystemFont, "Segoe UI", Helvetica, Arial, sans-serif' font-size="11" fill="#59636e">W</text>
<rect x="-28.09" y="190.96" width="12" height="48.34" rx="1" fill="#40c463"/>
<text x="-22.09" y="257.30" text-anchor="middle" font-family='-apple-system, BlinkMacSystemFont, "Segoe UI", Helvetica, Arial, sans-serif' font-size="11" fill="#59636e">T</text>
<rect x="-12.09" y="202.15" width="12" height="37.15" rx="1" fill="#40c463"/>
<text x="-6.09" y="257.30" text-anchor="middle" font-family='-apple-system, BlinkMacSystemFont, "Segoe UI", Helvetica, Arial, sans-serif' font-size="11" fill="#59636e">F</text>
<rect x="3.91" y="210.02" width="12" height="29.28" rx="1" fill="#40c463"/>
<text x="9.91" y="257.30" text-anchor="middle" font-family='-apple-system, BlinkMacSystemFont, "Segoe UI", Helvetica, Arial, sans-serif' font-size="11" fill="#59636e">S</text>
<text x="-92.09" y="277.30" font-family='-apple-system, BlinkMacSystemFont, "Segoe UI", Helvetica, Arial, sans-serif' font-size="12" fill="#59636e" letter-spacing="0.3">Most active days</text>
<text x="-92.09" y="293.30" font-family='-apple-system, BlinkMacSystemFont, "Segoe UI", Helvetica, Arial, sans-serif' font-size="9" fill="#59636e">Data pulled daily from GitHub.</text>
<text x="-92.09" y="303.30" font-family='-apple-system, BlinkMacSystemFont, "Segoe UI", Helvetica, Arial, sans-serif' font-size="9" fill="#59636e">Rolling last-12-month activity.</text>
</svg>